<svg width="154" height="154" viewBox="0 0 154 154" fill="none" xmlns="http://www.w3.org/2000/svg">
    <path
        d="M61.9416 118.849C63.7505 115.916 64.7771 112.445 64.7771 108.778C64.7771 97.9734 56.026 89.2223 45.2216 89.2223M61.9416 118.849C58.5682 124.52 52.3593 128.333 45.2216 128.333C38.0838 128.333 31.8749 124.52 28.5016 118.849C26.6927 115.916 25.666 112.445 25.666 108.778C25.666 97.9734 34.4171 89.2223 45.2216 89.2223M61.9416 118.849C60.9149 120.609 59.5949 122.173 58.0793 123.445H103.888C118.555 123.445 128.333 113.667 128.333 99.0001V74.5556C128.333 61.1601 120.168 51.8222 107.555 50.3556C106.382 50.16 105.159 50.1112 103.888 50.1112H54.9993C53.6305 50.1112 52.3105 50.209 51.0393 50.4045C38.5727 51.969 30.5549 61.2579 30.5549 74.5556V95.8711C34.1238 91.8133 39.3549 89.2223 45.2216 89.2223M52.5144 108.678H37.9455M45.2216 101.54V116.158M128.333 77.0001H113.666C108.288 77.0001 103.888 81.4001 103.888 86.7779C103.888 92.1556 108.288 96.5556 113.666 96.5556H128.333M107.562 50.3555C106.388 50.1599 105.166 50.1111 103.895 50.1111H55.0062C53.6373 50.1111 52.3173 50.2089 51.0462 50.4044C51.7307 49.0355 52.7084 47.7646 53.8818 46.5912L69.7707 30.6534C76.4684 24.0045 87.3218 24.0045 94.0196 30.6534L102.575 39.3065C105.704 42.3865 107.366 46.2977 107.562 50.3555Z"
        stroke="url(#paint0_linear_2548_22543)" stroke-width="6" stroke-linecap="round"
        stroke-linejoin="round" />
    <defs>
        <linearGradient id="paint0_linear_2548_22543" x1="128.333" y1="128.333" x2="25.666"
            y2="128.333" gradientUnits="userSpaceOnUse">
            <stop stop-color="#828282" />
            <stop offset="1" stop-color="#E3E3E3" />
        </linearGradient>
    </defs>
</svg>
    