<svg width="40" height="40" viewBox="0 0 40 40" fill="none" xmlns="http://www.w3.org/2000/svg"
    xmlns:xlink="http://www.w3.org/1999/xlink">
    <path
        d="M2 10.3077C2 5.71948 5.71948 2 10.3077 2H20H29H29.6923C34.2805 2 38 5.71948 38 10.3077V11V20V25.5588C38 27.7622 37.1247 29.8753 35.5667 31.4333L31.4333 35.5667C29.8753 37.1247 27.7622 38 25.5588 38H20H11H10.3077C5.71948 38 2 34.2805 2 29.6923V29V20V10.3077Z"
        fill="#D9D9D9" />
    <path
        d="M29.6924 1.13477C34.7585 1.13481 38.8652 5.24153 38.8652 10.3076V25.5586C38.8652 27.8395 38.016 30.0331 36.4922 31.7158L36.1787 32.0449L32.0449 36.1787C30.3247 37.8989 27.9914 38.8652 25.5586 38.8652H10.3076C5.24153 38.8652 1.13481 34.7585 1.13477 29.6924V10.3076C1.13481 5.24153 5.24153 1.13481 10.3076 1.13477H29.6924Z"
        stroke="white" stroke-opacity="0.1" stroke-width="1.73077" />
    <path
        d="M10.3076 2.17285H29.6924C34.1849 2.17289 37.8271 5.81505 37.8271 10.3076V25.5586C37.8271 27.5811 37.0738 29.5263 35.7227 31.0186L35.4443 31.3105L31.3105 35.4443C29.785 36.9698 27.716 37.8271 25.5586 37.8271H10.3076C5.81505 37.8271 2.17289 34.1849 2.17285 29.6924V10.3076C2.17289 5.95556 5.5908 2.40167 9.88867 2.18359L10.3076 2.17285Z"
        fill="#D9D9D9" />
    <path
        d="M10.3076 2.17285H29.6924C34.1849 2.17289 37.8271 5.81505 37.8271 10.3076V25.5586C37.8271 27.5811 37.0738 29.5263 35.7227 31.0186L35.4443 31.3105L31.3105 35.4443C29.785 36.9698 27.716 37.8271 25.5586 37.8271H10.3076C5.81505 37.8271 2.17289 34.1849 2.17285 29.6924V10.3076C2.17289 5.95556 5.5908 2.40167 9.88867 2.18359L10.3076 2.17285Z"
        fill="url(#pattern0_40002109_9762)" />
    <path
        d="M10.3076 2.17285H29.6924C34.1849 2.17289 37.8271 5.81505 37.8271 10.3076V25.5586C37.8271 27.5811 37.0738 29.5263 35.7227 31.0186L35.4443 31.3105L31.3105 35.4443C29.785 36.9698 27.716 37.8271 25.5586 37.8271H10.3076C5.81505 37.8271 2.17289 34.1849 2.17285 29.6924V10.3076C2.17289 5.95556 5.5908 2.40167 9.88867 2.18359L10.3076 2.17285Z"
        stroke="#9B9B9B" stroke-width="0.346154" />
    <defs>
        <pattern id="pattern0_40002109_9762" patternContentUnits="objectBoundingBox" width="1"
            height="1">
            <use xlink:href="#image0_40002109_9762" transform="scale(0.015625)" />
        </pattern>
    </defs>
</svg>
    