<svg width="216" height="80" viewBox="0 0 216 80" fill="none" xmlns="http://www.w3.org/2000/svg">
<g clip-path="url(#clip0_373_37771)">
<mask id="mask0_373_37771" style="mask-type:luminance" maskUnits="userSpaceOnUse" x="30" y="23" width="147" height="34">
<path d="M176.183 23.3335H30.814V56.6668H176.183V23.3335Z" fill="white"/>
</mask>
<g mask="url(#mask0_373_37771)">
<path d="M74.1153 23.3335V32.4244H71.0224V23.3335H67.9294V32.4244H64.8365V23.3335H61.7435V32.4244H46.2787V23.3335H43.1858V32.4244V35.4547H74.1153V38.485H71.0224H67.9294H40.0928V23.3335H36.9999V38.485H33.9069V23.3335H30.814V38.485V41.5153V56.6668H33.9069V47.5759H36.9999V56.6668H40.0928V47.5759H43.1858V56.6668H46.2787V47.5759H61.7435V56.6668H64.8365V47.5759V44.5456H40.0928H36.9999H33.9069V41.5153H36.9999H40.0928H67.9294V56.6668H71.0224V41.5153H74.1153V56.6668H77.2083V41.5153V38.485V35.4547V32.4244V23.3335H74.1153Z" fill="white"/>
<path d="M98.1066 35.4546V38.7444H90.552V35.4546H88.0332V44.5019H90.552V41.2122H98.1066V44.5019H100.625V35.4546H98.1066Z" fill="white"/>
<path d="M145.96 41.2124H143.441V44.5022H145.96V41.2124Z" fill="white"/>
<path d="M145.961 35.4546H143.442V38.7444H135.886V35.4546H133.367V44.5019H135.886V41.2122H143.442L145.961 38.7444V35.4546Z" fill="white"/>
<path d="M114.059 35.4546H103.145V44.5019H105.664V41.2122H113.22V44.5019H115.739V35.4546H114.059ZM105.664 38.7444V37.9224H113.22V38.7444H105.664Z" fill="white"/>
<path d="M130.85 37.9224V35.4546H120.775H119.936H118.256V44.5019H119.936H120.775H130.85V42.0341H120.775V37.9224H130.85Z" fill="white"/>
<path d="M161.072 37.9224V35.4546H150.997H150.158H148.48V44.5019H150.158H150.997H161.072V42.0341H150.997V41.2122H161.072V38.7444H150.997V37.9224H161.072Z" fill="white"/>
<path d="M173.664 35.4546V41.2122L166.11 35.4546H163.591V44.5019H166.11V38.7444L173.664 44.5019H176.183V35.4546H173.664Z" fill="white"/>
</g>
</g>
<defs>
<clipPath id="clip0_373_37771">
<rect width="145.369" height="33.3333" fill="white" transform="translate(30.8164 23.3335)"/>
</clipPath>
</defs>
</svg>
