<?xml version="1.0" encoding="UTF-8"?>
<svg xmlns="http://www.w3.org/2000/svg" width="34" height="32" viewBox="0 0 34 32" fill="none">
  <path d="M11.4914 29.0719C11.1063 29.0719 10.7074 28.9833 10.3499 28.806C9.56593 28.426 9.08459 27.6659 9.08459 26.8553V25.0567C4.93113 24.664 2.20801 21.8519 2.20801 17.8239V10.224C2.20801 5.86667 5.38499 2.94067 10.1161 2.94067H23.8692C28.6003 2.94067 31.7773 5.86667 31.7773 10.224V17.8239C31.7773 22.1813 28.6003 25.1073 23.8692 25.1073H18.6843L12.8254 28.7047C12.4266 28.9454 11.959 29.0719 11.4914 29.0719ZM10.1161 4.82799C6.56776 4.82799 4.27098 6.94333 4.27098 10.2113V17.8114C4.27098 21.0794 6.56776 23.1947 10.1161 23.1947C10.68 23.1947 11.1476 23.6254 11.1476 24.1447V26.8427C11.1476 27.0074 11.2576 27.0834 11.3264 27.1214C11.3951 27.1594 11.5327 27.1974 11.684 27.1087L17.8041 23.3594C17.9692 23.2581 18.1754 23.1947 18.3817 23.1947H23.883C27.4313 23.1947 29.7281 21.0794 29.7281 17.8114V10.2113C29.7281 6.94333 27.4313 4.82799 23.883 4.82799H10.1161Z" fill="#0FF47F"></path>
  <path d="M16.9922 16.1393C16.4283 16.1393 15.9607 15.7086 15.9607 15.1893V14.9234C15.9607 13.454 17.1297 12.732 17.5698 12.4533C18.0787 12.1367 18.2437 11.9214 18.2437 11.592C18.2437 10.9587 17.6799 10.4393 16.9922 10.4393C16.3046 10.4393 15.7407 10.9587 15.7407 11.592C15.7407 12.1114 15.2731 12.542 14.7092 12.542C14.1453 12.542 13.6777 12.1114 13.6777 11.592C13.6777 9.90735 15.163 8.53931 16.9922 8.53931C18.8214 8.53931 20.3067 9.90735 20.3067 11.592C20.3067 13.036 19.1515 13.758 18.7251 14.024C18.1887 14.3533 18.0237 14.5687 18.0237 14.9234V15.1893C18.0237 15.7213 17.5561 16.1393 16.9922 16.1393Z" fill="#0FF47F"></path>
  <path d="M16.9924 19.2933C16.4148 19.2933 15.9609 18.8626 15.9609 18.3433C15.9609 17.824 16.4285 17.3933 16.9924 17.3933C17.5563 17.3933 18.0239 17.824 18.0239 18.3433C18.0239 18.8626 17.5701 19.2933 16.9924 19.2933Z" fill="#0FF47F"></path>
</svg>
