<?xml version="1.0" encoding="UTF-8"?>
<svg xmlns="http://www.w3.org/2000/svg" width="33" height="32" viewBox="0 0 33 32" fill="none">
  <path d="M5.95866 20.2667L6.82469 20.7667L5.95866 20.2667ZM12.425 9.06673L11.559 8.56673L12.425 9.06673ZM19.8154 9.06673L20.6815 8.56673L19.8154 9.06673ZM26.2818 20.2667L27.1478 19.7667L26.2818 20.2667ZM15.0352 5.5638L15.442 6.47734L15.0352 5.5638ZM17.2048 5.5638L16.798 6.47734L17.2048 5.5638ZM5.31543 26.1574L4.72765 26.9664H4.72765L5.31543 26.1574ZM4.23054 24.2787L5.22506 24.1741L4.23054 24.2787ZM26.925 26.1574L27.5128 26.9664L26.925 26.1574ZM28.0099 24.2787L29.0044 24.3832L28.0099 24.2787ZM16.1865 21.3333H17.1865C17.1865 20.781 16.7388 20.3333 16.1865 20.3333V21.3333ZM16.1865 21.4667L16.1863 22.4667C16.4515 22.4667 16.706 22.3614 16.8935 22.1739C17.0811 21.9863 17.1865 21.7319 17.1865 21.4667H16.1865ZM16.0537 21.4666H15.0537C15.0537 22.0188 15.5013 22.4665 16.0535 22.4666L16.0537 21.4666ZM16.0537 21.3333V20.3333C15.5014 20.3333 15.0537 20.781 15.0537 21.3333H16.0537ZM17.1201 12C17.1201 11.4477 16.6724 11 16.1201 11C15.5678 11 15.1201 11.4477 15.1201 12H17.1201ZM15.1201 17.3333C15.1201 17.8856 15.5678 18.3333 16.1201 18.3333C16.6724 18.3333 17.1201 17.8856 17.1201 17.3333H15.1201ZM22.5866 25.6667H9.65397V27.6667H22.5866V25.6667ZM6.82469 20.7667L13.291 9.56673L11.559 8.56673L5.09264 19.7667L6.82469 20.7667ZM18.9494 9.56673L25.4157 20.7667L27.1478 19.7667L20.6815 8.56673L18.9494 9.56673ZM13.291 9.56673C13.9072 8.49949 14.3355 7.7596 14.7048 7.23679C15.0771 6.70971 15.2979 6.54147 15.442 6.47734L14.6285 4.65025C13.981 4.93854 13.503 5.47164 13.0712 6.08286C12.6364 6.69835 12.1554 7.53372 11.559 8.56673L13.291 9.56673ZM20.6815 8.56673C20.085 7.53365 19.6038 6.69829 19.1689 6.08276C18.737 5.47151 18.2589 4.9385 17.6115 4.65025L16.798 6.47734C16.9421 6.54151 17.1631 6.70984 17.5355 7.2369C17.9049 7.75966 18.3333 8.49957 18.9494 9.56673L20.6815 8.56673ZM15.442 6.47734C15.8735 6.28522 16.3665 6.28522 16.798 6.47734L17.6115 4.65025C16.6622 4.22759 15.5778 4.22759 14.6285 4.65025L15.442 6.47734ZM9.65397 25.6667C8.42168 25.6667 7.56683 25.6657 6.9295 25.6072C6.28699 25.5482 6.03084 25.4411 5.90322 25.3484L4.72765 26.9664C5.301 27.383 6.00155 27.5305 6.74677 27.5988C7.49718 27.6677 8.46111 27.6667 9.65397 27.6667V25.6667ZM5.09264 19.7667C4.4962 20.7998 4.01338 21.6341 3.69782 22.3184C3.38443 22.998 3.16194 23.6784 3.23601 24.3832L5.22506 24.1741C5.20856 24.0172 5.24384 23.7418 5.51402 23.1559C5.78202 22.5747 6.20855 21.8339 6.82469 20.7667L5.09264 19.7667ZM5.90322 25.3484C5.52093 25.0706 5.27441 24.6437 5.22506 24.1741L3.23601 24.3832C3.34466 25.4169 3.8871 26.3557 4.72765 26.9664L5.90322 25.3484ZM22.5866 27.6667C23.7795 27.6667 24.7434 27.6677 25.4937 27.5988C26.2389 27.5304 26.9394 27.383 27.5128 26.9664L26.3372 25.3484C26.2096 25.4411 25.9534 25.5482 25.311 25.6072C24.6737 25.6657 23.8189 25.6667 22.5866 25.6667V27.6667ZM25.4157 20.7667C26.0319 21.8339 26.4584 22.5747 26.7264 23.1559C26.9966 23.7418 27.0318 24.0172 27.0154 24.1741L29.0044 24.3832C29.0785 23.6784 28.856 22.998 28.5426 22.3184C28.227 21.6341 27.7442 20.7998 27.1478 19.7667L25.4157 20.7667ZM27.5128 26.9664C28.3533 26.3557 28.8958 25.4169 29.0044 24.3832L27.0154 24.1741C26.966 24.6437 26.7195 25.0706 26.3372 25.3484L27.5128 26.9664ZM15.1865 21.3333V21.4667H17.1865V21.3333H15.1865ZM16.1868 20.4667L16.054 20.4666L16.0535 22.4666L16.1863 22.4667L16.1868 20.4667ZM17.0537 21.4666V21.3333H15.0537V21.4666H17.0537ZM16.0537 22.3333H16.1865V20.3333H16.0537V22.3333ZM15.1201 12V17.3333H17.1201V12H15.1201Z" fill="#0FF47F"></path>
</svg>
