<?xml version="1.0" encoding="UTF-8"?>
<svg xmlns="http://www.w3.org/2000/svg" width="30" height="26" viewBox="0 0 30 26" fill="none">
  <path d="M21.1695 7.48894H27.3464C28.1992 7.48894 28.8906 8.12569 28.8906 8.91116V24.5556L23.743 20.6172C23.4657 20.4051 23.1172 20.2889 22.7567 20.2889H10.36C9.50717 20.2889 8.8158 19.6522 8.8158 18.8667V14.6M19.6253 1.80005C20.4782 1.80005 21.1695 2.4368 21.1695 3.22227V13.1778C21.1695 13.9633 20.4782 14.6 19.6253 14.6H7.22861C6.86816 14.6 6.51961 14.7162 6.24236 14.9283L1.09473 18.8668V3.22227C1.09473 2.4368 1.7861 1.80005 2.63894 1.80005H19.6253Z" stroke="#0FF47F" stroke-width="2" stroke-linecap="round" stroke-linejoin="round"></path>
</svg>
