<?xml version="1.0" encoding="UTF-8"?>
<svg xmlns="http://www.w3.org/2000/svg" width="33" height="28" viewBox="0 0 33 28" fill="none">
  <path d="M16.4927 22.7578C22.9564 22.7578 28.1962 17.9319 28.1962 11.9789C28.1962 6.02585 22.9564 1.19995 16.4927 1.19995C10.029 1.19995 4.78918 6.02585 4.78918 11.9789C4.78918 13.2808 5.03978 14.5288 5.49898 15.6842M5.52065 15.6842H3.69197C2.48003 15.6842 1.49756 14.7793 1.49756 13.6631V10.9684C1.49756 9.85218 2.48003 8.94732 3.69197 8.94732H5.15491M27.8305 8.94732H29.2934C30.5054 8.94732 31.4878 9.85218 31.4878 10.9684V13.6631C31.4878 14.7793 30.5054 15.6842 29.2934 15.6842H27.8305M11.7381 12.3157H12.8353M15.7612 12.3157H16.8584M19.4186 12.3157H20.5158M24.5389 11.9789C24.5389 16.0716 20.9365 19.3894 16.4927 19.3894H7.71506L10.4492 16.8713C9.20256 15.5661 8.44653 13.8538 8.44653 11.9789C8.44653 7.88618 12.0489 4.56837 16.4927 4.56837C20.9365 4.56837 24.5389 7.88618 24.5389 11.9789ZM17.2242 22.7578H11.3724C10.1605 22.7578 9.178 23.6627 9.178 24.7789C9.178 25.8951 10.1605 26.8 11.3724 26.8H15.0298C16.2417 26.8 17.2242 25.8951 17.2242 24.7789V22.7578Z" stroke="#0FF47F" stroke-width="2" stroke-linecap="round" stroke-linejoin="round"></path>
</svg>
