<?xml version="1.0" encoding="UTF-8"?>
<svg xmlns="http://www.w3.org/2000/svg" width="68" height="66" viewBox="0 0 68 66" fill="none">
  <g filter="url(#filter0_d_999_249)">
    <path d="M46.4173 31.1122H43.6761C43.0967 31.1122 42.6261 31.5862 42.6261 32.1699V35.6452H40.3761V31.4333L41.8761 29.0119C41.9998 29.027 42.1254 29.0364 42.2511 29.0383C43.6048 29.0421 44.7823 28.1072 45.0954 26.7813C45.4086 25.4554 44.7767 24.086 43.5692 23.4741C42.3598 22.8621 40.8917 23.1662 40.0236 24.2107C39.1536 25.2532 39.1105 26.7642 39.9186 27.856L38.1261 30.7911V35.6452H35.1261V21.6342C36.4048 21.094 37.1267 19.7209 36.8548 18.3534C36.5811 16.9841 35.3867 16 34.0011 16C32.6155 16 31.4211 16.9841 31.1473 18.3534C30.8755 19.7208 31.5973 21.094 32.8761 21.6342V35.6452H29.8761V30.7911L28.0836 27.856C28.888 26.7662 28.8429 25.2608 27.9767 24.222C27.1086 23.1814 25.6442 22.8773 24.4405 23.4892C23.2348 24.0993 22.6048 25.4629 22.9179 26.7851C23.2292 28.1072 24.403 29.0403 25.751 29.0384C25.8767 29.0365 26.0023 29.0271 26.126 29.0119L27.626 31.4333V35.6452H25.376V32.1699C25.376 31.5863 24.9054 31.1122 24.326 31.1122H21.5848C18.5004 31.1122 16.001 33.6299 16.001 36.737V44.3752C16.001 47.4822 18.5003 50 21.5848 50H46.4171C49.5015 50 52.001 47.4823 52.001 44.3752V36.737C52.001 33.63 49.5018 31.1122 46.4173 31.1122ZM37.7509 44.7112C36.8415 44.7112 36.0202 44.1597 35.6715 43.3116C35.3246 42.4655 35.5159 41.4909 36.159 40.8411C36.804 40.1933 37.7715 40.0006 38.6115 40.3501C39.4534 40.7014 40.0009 41.5287 40.0009 42.4447C40.0009 43.6969 38.994 44.7112 37.7509 44.7112ZM44.5006 44.7112C43.5913 44.7112 42.77 44.1597 42.4213 43.3116C42.0744 42.4655 42.2657 41.4909 42.9088 40.8411C43.5538 40.1933 44.5213 40.0006 45.3613 40.3501C46.2032 40.7014 46.7506 41.5287 46.7506 42.4447C46.7506 43.6969 45.7437 44.7112 44.5006 44.7112Z" fill="#998DF8"></path>
  </g>
  <defs>
    <filter id="filter0_d_999_249" x="0.000976562" y="0" width="68" height="66" color-interpolation-filters="sRGB">
      <feFlood flood-opacity="0" result="BackgroundImageFix"></feFlood>
      <feColorMatrix in="SourceAlpha" type="matrix" values="0 0 0 0 0 0 0 0 0 0 0 0 0 0 0 0 0 0 127 0" result="hardAlpha"></feColorMatrix>
      <feOffset></feOffset>
      <feGaussianBlur stdDeviation="8"></feGaussianBlur>
      <feComposite in2="hardAlpha" operator="out"></feComposite>
      <feColorMatrix type="matrix" values="0 0 0 0 0.572549 0 0 0 0 0.435294 0 0 0 0 0.952941 0 0 0 1 0"></feColorMatrix>
      <feBlend mode="normal" in2="BackgroundImageFix" result="effect1_dropShadow_999_249"></feBlend>
      <feBlend mode="normal" in="SourceGraphic" in2="effect1_dropShadow_999_249" result="shape"></feBlend>
    </filter>
  </defs>
</svg>
