<?xml version="1.0" encoding="UTF-8"?>
<svg xmlns="http://www.w3.org/2000/svg" width="56" height="56" viewBox="0 0 56 56" fill="none">
  <path d="M4 13.189C4 8.77678 7.57683 5.19995 11.9891 5.19995H35.5722C39.9845 5.19995 43.5613 8.77678 43.5613 13.189V25.8143C43.5613 26.4771 43.024 27.0143 42.3613 27.0143C41.6985 27.0143 41.1613 26.4771 41.1613 25.8143V13.189C41.1613 10.1023 38.659 7.59995 35.5722 7.59995H11.9891C8.90232 7.59995 6.4 10.1023 6.4 13.189V36.7722C6.4 39.8589 8.90232 42.3612 11.9891 42.3612H26.401C27.0637 42.3612 27.601 42.8985 27.601 43.5612C27.601 44.224 27.0637 44.7612 26.401 44.7612H11.9891C7.57683 44.7612 4 41.1844 4 36.7722V13.189Z" fill="#0FF47F"></path>
  <path d="M34.3901 15.7498C34.3901 15.0871 33.8528 14.5498 33.1901 14.5498C32.5273 14.5498 31.9901 15.0871 31.9901 15.7498V33.0799C31.9901 33.7426 32.5273 34.2799 33.1901 34.2799C33.8528 34.2799 34.3901 33.7426 34.3901 33.0799V15.7498Z" fill="#0FF47F"></path>
  <path fill-rule="evenodd" clip-rule="evenodd" d="M20.677 15.5097C20.5013 15.0381 20.05 14.7261 19.5468 14.7285C19.0435 14.7308 18.5951 15.047 18.4239 15.5203L12.3495 32.3143C12.1241 32.9376 12.4465 33.6255 13.0698 33.851C13.693 34.0764 14.381 33.7539 14.6064 33.1307L15.677 30.1706H23.5748L24.6809 33.1412C24.9122 33.7623 25.6031 34.0783 26.2242 33.8471C26.8453 33.6158 27.1613 32.9249 26.9301 32.3038L20.677 15.5097ZM22.6812 27.7706H16.5451L19.5687 19.4113L22.6812 27.7706Z" fill="#0FF47F"></path>
  <path fill-rule="evenodd" clip-rule="evenodd" d="M44.9634 33.7437C43.8036 30.6095 39.3706 30.6095 38.2108 33.7437L37.2899 36.2325C37.1684 36.5609 36.9094 36.8199 36.5809 36.9414L34.0922 37.8624C30.9579 39.0221 30.9579 43.4551 34.0922 44.6149L36.5809 45.5358C36.9094 45.6574 37.1684 45.9163 37.2899 46.2448L38.2108 48.7335C39.3706 51.8678 43.8036 51.8678 44.9634 48.7335L45.8843 46.2448C46.0058 45.9163 46.2648 45.6574 46.5933 45.5358L49.082 44.6149C52.2162 43.4551 52.2162 39.0221 49.082 37.8624L46.5933 36.9414C46.2648 36.8199 46.0058 36.5609 45.8843 36.2325L44.9634 33.7437ZM40.4617 34.5766C40.8483 33.5319 42.3259 33.5319 42.7125 34.5766L43.6334 37.0653C43.9981 38.0507 44.775 38.8277 45.7604 39.1923L48.2491 40.1132C49.2939 40.4998 49.2939 41.9775 48.2491 42.3641L45.7604 43.285C44.775 43.6496 43.9981 44.4265 43.6334 45.4119L42.7125 47.9007C42.3259 48.9454 40.8483 48.9454 40.4617 47.9007L39.5407 45.4119C39.1761 44.4265 38.3992 43.6496 37.4138 43.285L34.9251 42.3641C33.8803 41.9775 33.8803 40.4998 34.9251 40.1132L37.4138 39.1923C38.3992 38.8277 39.1761 38.0507 39.5407 37.0653L40.4617 34.5766Z" fill="#0FF47F"></path>
</svg>
