<?xml version="1.0" encoding="UTF-8"?>
<svg xmlns="http://www.w3.org/2000/svg" width="56" height="56" viewBox="0 0 56 56" fill="none">
  <path fill-rule="evenodd" clip-rule="evenodd" d="M24.1208 13.7882C26.3931 13.7882 28.8756 15.3153 28.8756 18.2661C28.8756 18.8972 28.3482 19.4089 27.6977 19.4089C27.0472 19.4089 26.5199 18.8972 26.5199 18.2661C26.5199 16.8786 25.4255 16.0739 24.1208 16.0739C23.4815 16.0739 22.8864 16.2826 22.4625 16.6639C22.0573 17.0284 21.7218 17.6277 21.7218 18.5914C21.7218 19.1834 22.0384 19.6418 22.6283 20.0528C23.2387 20.4782 23.9938 20.7419 24.5529 20.9248C25.1264 21.1124 26.1619 21.4717 27.0637 22.1288C27.9894 22.8034 28.8756 23.8734 28.8756 25.4405C28.8756 26.8842 28.2876 28.0479 27.3634 28.8467C26.4617 29.626 25.2945 30.014 24.1636 30.0539C23.0348 30.0937 21.85 29.7892 20.9237 29.0665C19.9679 28.3209 19.3661 27.1877 19.3661 25.7659C19.3661 25.1347 19.8934 24.623 20.544 24.623C21.1945 24.623 21.7218 25.1347 21.7218 25.7659C21.7218 26.5131 22.0143 26.9845 22.3998 27.2852C22.8148 27.6089 23.4184 27.7929 24.0781 27.7697C24.7357 27.7465 25.3569 27.5199 25.7965 27.14C26.2136 26.7795 26.5199 26.2391 26.5199 25.4405C26.5199 24.8248 26.2044 24.3612 25.6491 23.9565C25.0698 23.5344 24.3448 23.2688 23.8005 23.0908C23.2419 22.9081 22.1806 22.555 21.2541 21.9093C20.307 21.2493 19.3661 20.1822 19.3661 18.5914C19.3661 17.0607 19.9249 15.8297 20.8609 14.9877C21.7784 14.1624 22.9717 13.7882 24.1208 13.7882Z" fill="#0FF47F"></path>
  <path fill-rule="evenodd" clip-rule="evenodd" d="M24.2326 11.8088C24.8831 11.8088 25.4105 12.3205 25.4105 12.9517V14.5785H23.0548V12.9517C23.0548 12.3205 23.5821 11.8088 24.2326 11.8088Z" fill="#0FF47F"></path>
  <path fill-rule="evenodd" clip-rule="evenodd" d="M24.2326 32.4237C23.5821 32.4237 23.0548 31.912 23.0548 31.2808V29.654H25.4105V31.2808C25.4105 31.912 24.8831 32.4237 24.2326 32.4237Z" fill="#0FF47F"></path>
  <path fill-rule="evenodd" clip-rule="evenodd" d="M35.8574 26.9466C34.872 26.9466 34.0732 27.7217 34.0732 28.6778V39.7946C34.0732 40.1893 33.8633 40.556 33.5181 40.7647C33.1729 40.9733 32.7411 40.9944 32.376 40.8204L27.334 38.4172C26.1793 37.8668 25.0887 39.2653 25.9483 40.1939L34.4467 49.3738C34.6473 49.5905 34.9334 49.7143 35.2336 49.7143H44.2535C44.7207 49.7143 45.1326 49.4168 45.2667 48.9826L47.9309 40.3544C48.3338 39.0497 47.4416 37.704 46.0509 37.5188L38.6594 36.5344C38.0762 36.4567 37.6417 35.9733 37.6417 35.4021V28.6778C37.6417 27.7217 36.8429 26.9466 35.8574 26.9466ZM31.7175 28.6778C31.7175 26.4593 33.571 24.6609 35.8574 24.6609C38.1439 24.6609 39.9974 26.4593 39.9974 28.6778V34.4054L46.3713 35.2543C49.1942 35.6302 51.0053 38.3619 50.1875 41.0104L47.5233 49.6386C47.0905 51.0401 45.7613 52 44.2535 52H35.2336C34.2648 52 33.3416 51.6006 32.6942 50.9012L24.1958 41.7214C21.6045 38.9222 24.8921 34.7067 28.3726 36.3656L31.7175 37.9599V28.6778Z" fill="#0FF47F"></path>
  <path fill-rule="evenodd" clip-rule="evenodd" d="M24.8474 6.28571C15.9601 6.28571 8.75561 13.2762 8.75561 21.8993C8.75561 28.1743 12.5706 33.587 18.0779 36.0686C18.6679 36.3345 18.9241 37.0141 18.6501 37.5865C18.3761 38.159 17.6757 38.4075 17.0857 38.1417C10.7779 35.2994 6.3999 29.0966 6.3999 21.8993C6.3999 12.0138 14.6591 4 24.8474 4C35.0356 4 43.2949 12.0138 43.2949 21.8993C43.2949 22.5305 42.7675 23.0422 42.117 23.0422C41.4665 23.0422 40.9391 22.5305 40.9391 21.8993C40.9391 13.2762 33.7346 6.28571 24.8474 6.28571Z" fill="#0FF47F"></path>
</svg>
