<?xml version="1.0" encoding="UTF-8"?>
<svg xmlns="http://www.w3.org/2000/svg" width="56" height="56" viewBox="0 0 56 56" fill="none">
  <path fill-rule="evenodd" clip-rule="evenodd" d="M10.3554 21.0445C10.3554 15.0798 15.1907 10.2445 21.1554 10.2445H34.7331C40.6978 10.2445 45.5331 15.0798 45.5331 21.0445V34.6223C45.5331 40.5869 40.6978 45.4223 34.7331 45.4223H21.1554C15.1907 45.4223 10.3554 40.5869 10.3554 34.6223V21.0445ZM21.1554 12.6445C16.5162 12.6445 12.7554 16.4053 12.7554 21.0445V34.6223C12.7554 39.2615 16.5162 43.0223 21.1554 43.0223H34.7331C39.3723 43.0223 43.1331 39.2615 43.1331 34.6223V21.0445C43.1331 16.4053 39.3723 12.6445 34.7331 12.6445H21.1554Z" fill="#0FF47F"></path>
  <path fill-rule="evenodd" clip-rule="evenodd" d="M20.7776 2.80005C21.4403 2.80005 21.9776 3.33731 21.9776 4.00005V11.4445C21.9776 12.1072 21.4403 12.6445 20.7776 12.6445C20.1148 12.6445 19.5776 12.1072 19.5776 11.4445V4.00005C19.5776 3.33731 20.1148 2.80005 20.7776 2.80005Z" fill="#0FF47F"></path>
  <path fill-rule="evenodd" clip-rule="evenodd" d="M53.1998 20.7778C53.1998 21.4406 52.6625 21.9778 51.9998 21.9778H44.5554C43.8926 21.9778 43.3554 21.4406 43.3554 20.7778C43.3554 20.1151 43.8926 19.5778 44.5554 19.5778H51.9998C52.6625 19.5778 53.1998 20.1151 53.1998 20.7778Z" fill="#0FF47F"></path>
  <path fill-rule="evenodd" clip-rule="evenodd" d="M20.7776 43.3556C21.4403 43.3556 21.9776 43.8929 21.9776 44.5556V52C21.9776 52.6628 21.4403 53.2001 20.7776 53.2001C20.1148 53.2001 19.5776 52.6628 19.5776 52V44.5556C19.5776 43.8929 20.1148 43.3556 20.7776 43.3556Z" fill="#0FF47F"></path>
  <path fill-rule="evenodd" clip-rule="evenodd" d="M12.6442 20.7778C12.6442 21.4406 12.107 21.9778 11.4443 21.9778H3.9998C3.33706 21.9778 2.7998 21.4406 2.7998 20.7778C2.7998 20.1151 3.33706 19.5778 3.9998 19.5778H11.4443C12.107 19.5778 12.6442 20.1151 12.6442 20.7778Z" fill="#0FF47F"></path>
  <path fill-rule="evenodd" clip-rule="evenodd" d="M35.222 2.80005C35.8848 2.80005 36.422 3.33731 36.422 4.00005V11.4445C36.422 12.1072 35.8848 12.6445 35.222 12.6445C34.5593 12.6445 34.022 12.1072 34.022 11.4445V4.00005C34.022 3.33731 34.5593 2.80005 35.222 2.80005Z" fill="#0FF47F"></path>
  <path fill-rule="evenodd" clip-rule="evenodd" d="M53.1998 35.2223C53.1998 35.885 52.6625 36.4223 51.9998 36.4223H44.5554C43.8926 36.4223 43.3554 35.885 43.3554 35.2223C43.3554 34.5595 43.8926 34.0223 44.5554 34.0223H51.9998C52.6625 34.0223 53.1998 34.5595 53.1998 35.2223Z" fill="#0FF47F"></path>
  <path fill-rule="evenodd" clip-rule="evenodd" d="M35.222 43.3556C35.8848 43.3556 36.422 43.8929 36.422 44.5556V52C36.422 52.6628 35.8848 53.2001 35.222 53.2001C34.5593 53.2001 34.022 52.6628 34.022 52V44.5556C34.022 43.8929 34.5593 43.3556 35.222 43.3556Z" fill="#0FF47F"></path>
  <path fill-rule="evenodd" clip-rule="evenodd" d="M12.6442 35.2223C12.6442 35.885 12.107 36.4223 11.4443 36.4223H3.9998C3.33706 36.4223 2.7998 35.885 2.7998 35.2223C2.7998 34.5595 3.33706 34.0223 3.9998 34.0223H11.4443C12.107 34.0223 12.6442 34.5595 12.6442 35.2223Z" fill="#0FF47F"></path>
  <path fill-rule="evenodd" clip-rule="evenodd" d="M25.3483 21.0404C25.817 21.509 25.817 22.2688 25.3483 22.7375L20.2524 27.8334L25.3483 32.9293C25.817 33.3979 25.817 34.1577 25.3483 34.6264C24.8797 35.095 24.1199 35.095 23.6513 34.6264L17.7068 28.6819C17.2382 28.2133 17.2382 27.4535 17.7068 26.9849L23.6513 21.0404C24.1199 20.5718 24.8797 20.5718 25.3483 21.0404Z" fill="#0FF47F"></path>
  <path fill-rule="evenodd" clip-rule="evenodd" d="M30.5402 34.6264C30.0715 34.1577 30.0715 33.3979 30.5402 32.9293L35.6361 27.8334L30.5402 22.7375C30.0715 22.2688 30.0715 21.509 30.5402 21.0404C31.0088 20.5718 31.7686 20.5718 32.2372 21.0404L38.1817 26.9849C38.6503 27.4535 38.6503 28.2133 38.1817 28.6819L32.2372 34.6264C31.7686 35.095 31.0088 35.095 30.5402 34.6264Z" fill="#0FF47F"></path>
</svg>
