<svg width="50" height="48" viewBox="0 0 50 48" fill="none" xmlns="http://www.w3.org/2000/svg">
    <rect x="1" width="48" height="48" rx="16" fill="#0052FF" />
    <path fill-rule="evenodd" clip-rule="evenodd"
        d="M7.77344 24C7.77344 33.3198 15.486 40.875 25 40.875C34.514 40.875 42.2266 33.3198 42.2266 24C42.2266 14.6802 34.514 7.125 25 7.125C15.486 7.125 7.77344 14.6802 7.77344 24ZM20.5977 18.5625C19.9634 18.5625 19.4492 19.0662 19.4492 19.6875V28.3125C19.4492 28.9338 19.9634 29.4375 20.5977 29.4375H29.4023C30.0366 29.4375 30.5508 28.9338 30.5508 28.3125V19.6875C30.5508 19.0662 30.0366 18.5625 29.4023 18.5625H20.5977Z"
        fill="white" />
</svg>
    