<svg width="48" height="48" viewBox="0 0 48 48" fill="none" xmlns="http://www.w3.org/2000/svg">
    <rect width="48" height="48" rx="16" fill="#191919" />
    <path d="M39.7595 7.84253L26.0508 17.9353L28.5911 11.9849L39.7595 7.84253Z" fill="#E27625" />
    <path d="M8.10742 7.84253L21.7017 18.0268L19.2758 11.9849L8.10742 7.84253Z" fill="#E27625" />
    <path d="M34.8395 31.2549L31.1777 36.7933L39.0048 38.9446L41.2476 31.3693L34.8395 31.2549Z"
        fill="#E27625" />
    <path d="M6.66797 31.3693L8.88791 38.9446L16.692 36.7933L13.0532 31.2549L6.66797 31.3693Z"
        fill="#E27625" />
    <path d="M16.2796 21.8716L14.1055 25.1443L21.8409 25.4876L21.5892 17.2029L16.2796 21.8716Z"
        fill="#E27625" />
    <path d="M31.6121 21.8716L26.211 17.1113L26.0508 25.4876L33.7863 25.1443L31.6121 21.8716Z"
        fill="#E27625" />
    <path d="M16.6914 36.7933L21.383 34.5505L17.3322 31.438L16.6914 36.7933Z" fill="#E27625" />
    <path d="M26.5098 34.5505L31.1785 36.7933L30.5377 31.438L26.5098 34.5505Z" fill="#E27625" />
    <path d="M31.1785 36.7931L26.5098 34.5503L26.8988 37.5712L26.8531 38.8529L31.1785 36.7931Z"
        fill="#D7C1B3" />
    <path d="M16.6914 36.7931L21.0398 38.8529L21.0169 37.5712L21.383 34.5503L16.6914 36.7931Z"
        fill="#D7C1B3" />
    <path d="M21.108 29.4241L17.2402 28.3027L19.9866 27.0439L21.108 29.4241Z" fill="#2F343B" />
    <path d="M26.7598 29.4241L27.9041 27.0439L30.6504 28.3027L26.7598 29.4241Z" fill="#2F343B" />
    <path d="M16.6916 36.7933L17.3782 31.2549L13.0527 31.3693L16.6916 36.7933Z" fill="#CC6228" />
    <path d="M30.5137 31.2549L31.1774 36.7933L34.8391 31.3693L30.5137 31.2549Z" fill="#CC6228" />
    <path
        d="M33.7863 25.1443L26.0508 25.4876L26.7602 29.424L27.9045 27.0438L30.6509 28.3026L33.7863 25.1443Z"
        fill="#CC6228" />
    <path
        d="M17.2409 28.3026L19.9872 27.0438L21.1086 29.424L21.8409 25.4876L14.1055 25.1443L17.2409 28.3026Z"
        fill="#CC6228" />
    <path d="M14.1055 25.1443L17.3324 31.4379L17.2409 28.3026L14.1055 25.1443Z" fill="#E27625" />
    <path d="M30.6515 28.3026L30.5371 31.4379L33.7869 25.1443L30.6515 28.3026Z" fill="#E27625" />
    <path d="M21.8417 25.4875L21.1094 29.4239L22.0248 34.0927L22.2308 27.9592L21.8417 25.4875Z"
        fill="#E27625" />
    <path d="M26.0512 25.4875L25.6621 27.9364L25.8452 34.0927L26.7606 29.4239L26.0512 25.4875Z"
        fill="#E27625" />
    <path
        d="M26.7611 29.4239L25.8457 34.0927L26.5094 34.5504L30.5373 31.4379L30.6518 28.3025L26.7611 29.4239Z"
        fill="#F5841F" />
    <path
        d="M17.2402 28.3025L17.3318 31.4379L21.3826 34.5504L22.0234 34.0927L21.108 29.4239L17.2402 28.3025Z"
        fill="#F5841F" />
    <path
        d="M26.8528 38.853L26.8986 37.5713L26.5324 37.2738H21.3373L21.0169 37.5713L21.0398 38.853L16.6914 36.7932L18.2019 38.0291L21.2915 40.1575H26.5782L29.6678 38.0291L31.1783 36.7932L26.8528 38.853Z"
        fill="#C0AD9E" />
    <path
        d="M26.5102 34.5505L25.8465 34.0928H22.0246L21.3838 34.5505L21.0176 37.5714L21.338 37.2739H26.5331L26.8993 37.5714L26.5102 34.5505Z"
        fill="#2F343B" />
    <path
        d="M40.3558 18.599L41.5001 13.0148L39.7608 7.84253L26.5098 17.592L31.6133 21.8717L38.8224 23.9772L40.4016 22.1234L39.715 21.6199L40.8135 20.6358L39.9667 19.9721L41.0653 19.1482L40.3558 18.599Z"
        fill="#763E1A" />
    <path
        d="M6.36914 13.0148L7.53633 18.599L6.80398 19.1482L7.9025 19.995L7.05572 20.6358L8.15425 21.6199L7.46767 22.1234L9.06969 23.9772L16.2788 21.8717L21.3824 17.592L8.10848 7.84253L6.36914 13.0148Z"
        fill="#763E1A" />
    <path
        d="M38.8219 23.9771L31.6128 21.8716L33.7869 25.1443L30.5371 31.4379L34.8397 31.3693H41.2478L38.8219 23.9771Z"
        fill="#F5841F" />
    <path
        d="M16.2801 21.8716L9.071 23.9771L6.66797 31.3693H13.0532L17.3329 31.4379L14.1059 25.1443L16.2801 21.8716Z"
        fill="#F5841F" />
    <path
        d="M26.0516 25.4876L26.5093 17.5919L28.592 11.9849H19.2773L21.3829 17.5919L21.8406 25.4876L22.0237 27.9593V34.0928H25.8456L25.8685 27.9593L26.0516 25.4876Z"
        fill="#F5841F" />
</svg>
    