<svg width="48" height="48" viewBox="0 0 48 48" fill="none" xmlns="http://www.w3.org/2000/svg">
    <rect width="48" height="48" rx="16" fill="#3396FF" />
    <path
        d="M12.8849 16.995C19.0171 11.0007 28.9846 11.0007 35.1398 16.995L35.8747 17.707C36.1733 18.0056 36.1733 18.4879 35.8747 18.7864L33.3483 21.2439C33.1876 21.4046 32.9349 21.4046 32.7971 21.2439L31.7866 20.2563C27.4918 16.0763 20.5558 16.0763 16.261 20.2563L15.1816 21.3128C15.0208 21.4735 14.7682 21.4735 14.6304 21.3128L12.1041 18.8553C11.8055 18.5568 11.8055 18.0745 12.1041 17.7759L12.9079 16.995H12.8849ZM40.3532 22.0936L42.604 24.2985C42.9025 24.597 42.9025 25.0793 42.604 25.3779L32.4526 35.2766C32.1541 35.5752 31.6488 35.5752 31.3502 35.2766L24.1387 28.2487C24.0698 28.1798 23.932 28.1798 23.8631 28.2487L16.6515 35.2766C16.3529 35.5752 15.8476 35.5752 15.5491 35.2766L5.39775 25.3779C5.09919 25.0793 5.09919 24.597 5.39775 24.2985L7.6485 22.0936C7.94707 21.7951 8.45234 21.7951 8.75091 22.0936L15.9625 29.1215C16.0314 29.1904 16.1692 29.1904 16.2381 29.1215L23.4497 22.0936C23.7482 21.7951 24.2535 21.7951 24.5521 22.0936L31.7636 29.1215C31.8325 29.1904 31.9703 29.1904 32.0392 29.1215L39.2508 22.0936C39.5494 21.7951 40.0546 21.7951 40.3532 22.0936Z"
        fill="white" />
</svg>
    