<svg width="216" height="80" viewBox="0 0 216 80" fill="none" xmlns="http://www.w3.org/2000/svg">
<mask id="mask0_429_2" style="mask-type:luminance" maskUnits="userSpaceOnUse" x="8" y="22" width="200" height="35">
<path d="M207.792 22H8V57H207.792V22Z" fill="white"/>
</mask>
<g mask="url(#mask0_429_2)">
<path d="M13.8391 27.3609L23.1269 22L32.4148 27.3609L29 29.3415L23.1269 25.9609L17.2537 29.3415L13.8391 27.3609ZM32.4148 34.122L29 32.1415L23.1269 35.522L17.2537 32.1415L13.8391 34.122V38.0829L19.7122 41.4634V48.2243L23.1269 50.2049L26.5417 48.2243V41.4634L32.4148 38.0829V34.122ZM32.4148 44.844V40.8829L29 42.8634V46.8243L32.4148 44.844ZM34.8391 46.244L28.9659 49.6243V53.5853L38.2537 48.2243V37.5024L34.8391 39.4829V46.244ZM31.4246 30.7415L34.8391 32.722V36.6829L38.2537 34.7024V30.7415L34.8391 28.7609L31.4246 30.7415ZM19.7122 51.0586V55.0195L23.1269 57L26.5417 55.0195V51.0586L23.1269 53.0391L19.7122 51.0586ZM13.8391 44.844L17.2537 46.8243V42.8634L13.8391 40.8829V44.844ZM19.7122 30.7415L23.1269 32.722L26.5417 30.7415L23.1269 28.7609L19.7122 30.7415ZM11.4147 32.722L14.8293 30.7415L11.4147 28.7609L8 30.7415V34.7024L11.4147 36.6829V32.722ZM11.4147 39.4829L8 37.5024V48.2243L17.2878 53.5853V49.6243L11.4147 46.244V39.4829Z" fill="white"/>
<path d="M65.1738 43.9649V43.9092C65.1738 41.2936 63.7823 39.9857 61.5286 39.1231C62.9198 38.3441 64.0884 37.1197 64.0884 34.9213V34.8657C64.0884 31.8049 61.6398 29.8291 57.6606 29.8291H48.6171V49.3077H57.8833C62.2799 49.3077 65.1738 47.5267 65.1738 43.9649ZM59.8311 35.6449C59.8311 37.0919 58.6346 37.704 56.7425 37.704H52.7911V33.5857H57.0207C58.8293 33.5857 59.8311 34.3092 59.8311 35.5892V35.6449ZM60.9164 43.4363C60.9164 44.8833 59.7755 45.551 57.8833 45.551H52.7911V41.2659H57.7442C59.9424 41.2659 60.9164 42.0728 60.9164 43.3806V43.4363Z" fill="white"/>
<path d="M86.2853 49.3077V29.8291H82.0556V41.8224L72.9286 29.8291H68.9773V49.3077H73.2069V36.9248L82.6399 49.3077H86.2853Z" fill="white"/>
<path d="M107.796 43.9649V43.9092C107.796 41.2936 106.406 39.9857 104.151 39.1231C105.543 38.3441 106.711 37.1197 106.711 34.9213V34.8657C106.711 31.8049 104.263 29.8291 100.283 29.8291H91.2398V49.3077H100.505C104.902 49.3077 107.796 47.5267 107.796 43.9649ZM102.453 35.6449C102.453 37.0919 101.258 37.704 99.3652 37.704H95.4138V33.5857H99.6439C101.452 33.5857 102.453 34.3092 102.453 35.5892V35.6449ZM103.54 43.4363C103.54 44.8833 102.398 45.551 100.505 45.551H95.4138V41.2659H100.367C102.565 41.2659 103.54 42.0728 103.54 43.3806V43.4363Z" fill="white"/>
<path d="M133.622 45.8664L131.424 43.6404C129.755 45.1986 128.224 46.1724 125.831 46.1724C122.102 46.1724 119.403 43.056 119.403 39.2159C119.403 35.3758 122.102 32.3149 125.831 32.3149C128.057 32.3149 129.726 33.2889 131.285 34.7359L133.484 32.2036C131.619 30.4228 129.449 29.1706 125.859 29.1706C119.96 29.1706 115.814 33.7062 115.814 39.2716C115.814 44.8925 120.044 49.3169 125.72 49.3169C129.366 49.3169 131.591 47.9812 133.622 45.8664Z" fill="white"/>
<path d="M150.215 40.7741V48.9828H153.638V29.5044H150.215V37.6019H140.921V29.5044H137.498V48.9828H140.921V40.7741H150.215Z" fill="white"/>
<path d="M168.991 29.3657H165.819L157.248 48.9834H160.754L162.758 44.2806H171.969L173.945 48.9834H177.562L168.991 29.3657ZM170.717 41.2475H164.012L167.349 33.4561L170.717 41.2475Z" fill="white"/>
<path d="M181.376 29.5044V48.9828H184.798V29.5044H181.376Z" fill="white"/>
<path d="M203.898 42.9724L193.463 29.5044H190.29V48.9828H193.658V35.1254L204.398 48.9828H207.265V29.5044H203.898V42.9724Z" fill="white"/>
</g>
</svg>
