<svg width="216" height="80" viewBox="0 0 216 80" fill="none" xmlns="http://www.w3.org/2000/svg">
<path fill-rule="evenodd" clip-rule="evenodd" d="M33.936 43.5122C33.3063 43.9091 32.5646 43.9582 32.001 43.6413C31.2849 43.2382 30.8912 42.2943 30.8912 40.9817V37.0541C30.8912 35.1576 30.139 33.808 28.8813 33.4436C26.7498 32.8246 25.1468 35.4245 24.5444 36.4009L20.7853 42.477V35.0504C20.743 33.3418 20.1864 32.3197 19.1295 32.0115C18.4301 31.8078 17.3838 31.8895 16.3674 33.4401L7.9455 46.9217C6.81812 44.788 6.23065 42.412 6.23329 40C6.23329 31.8789 12.7615 25.2725 20.7853 25.2725C28.8091 25.2725 35.3364 31.8789 35.3364 40C35.3364 40.014 35.3399 40.0263 35.3408 40.0395C35.3408 40.0536 35.3382 40.0659 35.3391 40.0799C35.4148 41.6525 34.904 42.9028 33.936 43.5122ZM38.5697 40.0009V39.9596L38.5688 39.9192C38.5239 30.0289 30.5644 22 20.7844 22C10.9789 22 3 30.0745 3 40C3 49.9246 10.9789 58 20.7853 58C25.2851 58 29.5797 56.2948 32.8764 53.1997C33.5317 52.5851 33.5705 51.5499 32.9628 50.8878C32.6598 50.5541 32.2282 50.3645 31.7772 50.3645C31.3686 50.3645 30.9749 50.5199 30.6781 50.8C28.0067 53.3218 24.4643 54.7284 20.7853 54.7275C16.4889 54.7275 12.6232 52.8318 9.95717 49.8254L17.552 37.6679V43.2725C17.552 45.9646 18.5992 46.8347 19.4774 47.0894C20.3564 47.344 21.6995 47.1701 23.1096 44.8872L27.2871 38.1359C27.421 37.9181 27.5443 37.7302 27.657 37.5678V40.9817C27.657 43.4981 28.6681 45.5106 30.4306 46.502C32.0195 47.3958 34.017 47.315 35.6447 46.2912C37.6176 45.0488 38.6807 42.7597 38.5697 40.0009ZM63.3307 33.851C63.7578 34.11 64.1278 34.686 64.1278 35.205C64.1278 36.04 63.4161 36.731 62.619 36.731C62.42 36.731 62.2209 36.674 62.05 36.616C61.1103 35.925 59.9151 35.464 58.6626 35.464C55.7032 35.464 53.6537 37.883 53.6537 40.878C53.6537 43.874 55.7032 46.264 58.6626 46.264C60.1423 46.264 61.452 45.659 62.4481 44.738C62.7053 44.5536 63.0136 44.4526 63.3307 44.45C64.1278 44.45 64.754 45.083 64.754 45.89C64.754 46.408 64.4404 46.869 64.0423 47.128C62.619 48.338 60.684 49.144 58.6917 49.144C54.1381 49.144 50.4371 45.4 50.4371 40.792C50.4371 36.184 54.1372 32.44 58.6917 32.44C60.3995 32.44 62.021 32.958 63.3307 33.851ZM71.6574 37.336C74.7595 37.336 77.378 39.957 77.378 43.182C77.378 46.408 74.7595 49.144 71.6574 49.144C68.4127 49.144 65.7087 46.408 65.7087 43.182C65.7087 39.957 68.4127 37.336 71.6574 37.336ZM71.6284 46.264C72.9953 46.264 74.1614 44.968 74.1614 43.211C74.1614 41.4549 72.9953 40.36 71.6284 40.36C70.1487 40.36 68.9244 41.426 68.9244 43.211C68.9244 44.968 70.1487 46.264 71.6284 46.264ZM79.3289 47.358V39.122C79.3289 38.229 80.0405 37.48 80.9231 37.48C81.8056 37.48 82.5454 38.229 82.5454 39.122V47.358C82.5454 48.251 81.8056 49 80.9231 49C80.0405 49 79.3289 48.251 79.3289 47.358ZM79.0735 34.37C79.0735 33.304 79.8979 32.44 80.9231 32.44C81.9756 32.44 82.8299 33.304 82.8299 34.37C82.8299 35.406 81.9756 36.242 80.9231 36.242C79.8979 36.242 79.0735 35.406 79.0735 34.37ZM88.709 42.894V47.358C88.709 48.251 87.9692 49 87.0858 49C86.2041 49 85.4916 48.251 85.4916 47.358V38.747C85.4916 38.056 86.0615 37.48 86.7449 37.48C87.4275 37.48 87.9692 38.056 87.9692 38.747C89.278 37.538 90.416 37.336 91.4975 37.336C94.7141 37.336 96.1374 39.755 96.1374 42.491V47.358C96.1374 48.251 95.3976 49 94.515 49C93.6325 49 92.9209 48.251 92.9209 47.358V42.894C92.9209 41.483 92.75 40.302 90.7295 40.302C89.3062 40.302 88.709 41.483 88.709 42.894ZM106.598 44.594C106.228 44.594 105.973 44.421 105.773 44.19L102.016 40.13V47.358C102.016 48.251 101.276 49 100.393 49C99.5107 49 98.7991 48.251 98.7991 47.358V33.0459C98.8933 32.7991 99.1338 32.6376 99.398 32.642C99.6816 32.642 99.9088 32.8729 100.081 33.0459L106.057 39.7559C106.228 39.9579 106.456 40.0729 106.57 40.0729C106.684 40.0729 106.911 39.9579 107.082 39.7568L113.06 33.0459C113.23 32.8729 113.458 32.642 113.742 32.642C114.027 32.642 114.255 32.8149 114.34 33.0459V47.358C114.34 48.251 113.629 49 112.746 49C111.863 49 111.124 48.251 111.124 47.358V40.13L107.367 44.19C107.167 44.421 106.911 44.594 106.598 44.594ZM122.069 46.264C123.52 46.264 124.744 44.968 124.744 43.211C124.744 41.4549 123.492 40.302 122.069 40.302C120.646 40.302 119.507 41.483 119.507 43.211C119.507 44.91 120.646 46.264 122.069 46.264ZM125.485 47.733L125.426 47.358C124.801 48.5961 122.808 49.144 121.527 49.144C118.51 49.144 116.29 46.408 116.29 43.182C116.29 39.957 118.567 37.336 121.698 37.336C122.239 37.336 124.032 37.48 125.426 39.122L125.484 38.747C125.484 38.056 126.024 37.48 126.708 37.48C127.39 37.48 127.959 38.056 127.959 38.747V47.733C127.959 48.424 127.39 49 126.707 49C126.024 49 125.483 48.424 125.483 47.733H125.485ZM136.884 40.302H136.543C134.522 40.418 134.124 41.57 134.124 42.894V47.358C134.124 48.251 133.384 49 132.502 49C131.619 49 130.907 48.251 130.907 47.358V38.747C130.907 38.056 131.476 37.48 132.16 37.48C132.843 37.48 133.384 38.056 133.384 38.747C134.579 37.624 135.547 37.394 136.543 37.336H136.856C137.625 37.336 138.336 37.998 138.336 38.834C138.336 39.611 137.653 40.302 136.884 40.302ZM149.281 46.61C149.424 46.84 149.509 47.099 149.509 47.387C149.509 48.222 148.74 49 147.915 49C147.346 49 146.862 48.568 146.492 48.107L142.792 43.816V47.358C142.792 48.251 142.052 49 141.169 49C140.287 49 139.575 48.251 139.575 47.358V34.2839C139.575 33.39 140.287 32.642 141.169 32.642C142.052 32.642 142.792 33.39 142.792 34.2839V42.4339L146.492 38.344C146.862 37.912 147.317 37.48 147.887 37.48C148.684 37.48 149.424 38.229 149.424 39.064C149.424 39.323 149.366 39.582 149.224 39.813L146.293 43.0091L149.281 46.61ZM155.587 40.36C154.705 40.36 153.281 40.821 153.281 42.174H157.92C157.92 40.792 156.441 40.36 155.586 40.36H155.587ZM159.799 44.219H153.281C153.281 46.149 155.131 46.437 155.956 46.437C156.555 46.437 157.409 46.322 158.063 46.0331C158.262 45.89 158.604 45.774 158.888 45.774C159.6 45.774 160.197 46.3799 160.197 47.0999C160.197 47.589 159.885 48.021 159.486 48.251C158.49 48.971 157.209 49.144 155.985 49.144C152.741 49.144 150.037 47.3879 150.037 43.326C150.037 40.13 151.687 37.336 155.53 37.336C158.632 37.336 160.994 39.352 161.052 42.952C161.052 43.643 160.483 44.219 159.799 44.219ZM168.752 49.144H167.87C165.421 49.144 163.999 48.078 163.999 44.248V40.302H163.173C162.404 40.302 161.722 39.611 161.722 38.834C161.722 37.998 162.404 37.336 163.173 37.336H163.999V34.283C163.999 33.39 164.71 32.6411 165.593 32.6411C166.474 32.6411 167.215 33.39 167.215 34.283V37.336H168.552C169.321 37.336 170.005 37.998 170.005 38.834C170.005 39.611 169.321 40.302 168.552 40.302H167.215V43.614C167.215 45.803 167.329 46.264 168.297 46.264H168.752C169.52 46.264 170.175 46.898 170.175 47.704C170.175 48.482 169.52 49.144 168.752 49.144ZM184.336 33.851C184.763 34.11 185.133 34.686 185.133 35.205C185.133 36.04 184.422 36.731 183.625 36.731C183.426 36.731 183.226 36.674 183.056 36.616C182.116 35.925 180.921 35.464 179.668 35.464C176.709 35.464 174.659 37.883 174.659 40.878C174.659 43.874 176.708 46.264 179.668 46.264C181.148 46.264 182.458 45.659 183.454 44.738C183.711 44.5536 184.019 44.4526 184.336 44.45C185.133 44.45 185.759 45.083 185.759 45.89C185.759 46.408 185.446 46.869 185.048 47.128C183.625 48.338 181.689 49.144 179.697 49.144C175.143 49.144 171.443 45.4 171.443 40.792C171.443 36.184 175.142 32.44 179.697 32.44C181.405 32.44 183.027 32.958 184.336 33.851ZM192.492 46.264C193.944 46.264 195.167 44.968 195.167 43.211C195.167 41.4549 193.915 40.302 192.491 40.302C191.069 40.302 189.93 41.483 189.93 43.211C189.93 44.91 191.069 46.264 192.491 46.264H192.492ZM195.907 47.733L195.851 47.358C195.224 48.5961 193.232 49.144 191.951 49.144C188.934 49.144 186.714 46.408 186.714 43.182C186.714 39.957 188.991 37.336 192.121 37.336C192.662 37.336 194.455 37.48 195.851 39.122L195.907 38.747C195.907 38.056 196.448 37.48 197.131 37.48C197.814 37.48 198.384 38.056 198.384 38.747V47.733C198.384 48.424 197.814 49 197.131 49C196.448 49 195.907 48.424 195.907 47.733ZM207.222 46.264C208.645 46.264 209.783 44.91 209.783 43.211C209.783 41.483 208.645 40.302 207.222 40.302C205.799 40.302 204.546 41.454 204.546 43.211C204.546 44.968 205.771 46.264 207.222 46.264ZM204.546 48.194V52.283C204.546 53.176 203.807 53.925 202.924 53.925C202.042 53.925 201.33 53.176 201.33 52.283V38.747C201.33 38.056 201.9 37.48 202.583 37.48C203.266 37.48 203.807 38.056 203.807 38.862C205.002 37.624 206.482 37.336 207.592 37.336C210.723 37.336 213 39.957 213 43.182C213 46.408 210.78 49.144 207.763 49.144C206.824 49.144 205.429 48.856 204.546 48.194Z" fill="white"/>
</svg>
