<svg width="33" height="33" viewBox="0 0 33 33" fill="none" xmlns="http://www.w3.org/2000/svg">
    <path fill-rule="evenodd" clip-rule="evenodd"
        d="M16.8408 23.3589L18.5681 27.8909H21.609C21.7827 27.1466 22.468 26.5909 23.2819 26.5909C24.2284 26.5909 24.9986 27.3391 24.9986 28.2644C24.9986 29.191 24.231 29.938 23.2819 29.938C22.464 29.938 21.7813 29.3823 21.609 28.6379H18.3069C18.1479 28.6379 18.0047 28.5384 17.9503 28.3962L16.0295 23.3639H16.8408L16.8408 23.3589ZM23.2818 2.46978C24.2283 2.46978 24.9984 3.21803 24.9984 4.14333C24.9984 5.06993 24.2309 5.81688 23.2818 5.81688C22.4639 5.81688 21.7812 5.26118 21.6089 4.51681H18.568L16.8407 9.04888H16.0295L17.9503 4.01659C18.0046 3.87056 18.1465 3.77493 18.3069 3.77493H21.6089C21.7826 3.03055 22.4679 2.47485 23.2818 2.47485L23.2818 2.46978ZM30.0583 6.79376C29.2404 6.79376 28.5577 7.34946 28.3854 8.09383H26.0033C25.8774 8.09383 25.7594 8.15716 25.6878 8.25925L23.2103 11.8584H21.6872V12.6027H23.4104C23.5536 12.6027 23.6782 12.5265 23.7431 12.4115L26.2035 8.83816H28.3827C28.5564 9.58254 29.2417 10.1382 30.0557 10.1382C31.0021 10.1382 31.7723 9.38999 31.7723 8.46469C31.7723 7.53809 31.0048 6.79114 30.0557 6.79114L30.0583 6.79376ZM30.0583 22.2641C29.2537 22.2641 28.5789 22.803 28.392 23.5345L26.1796 23.4854L23.6994 19.8799C23.6278 19.7779 23.5099 19.7107 23.3733 19.7145L21.6871 19.7546V20.4951L23.1797 20.4589L25.6533 24.0554C25.7276 24.1614 25.8469 24.2208 25.9728 24.2208L28.3748 24.2777C28.5338 25.0414 29.2271 25.6139 30.0583 25.6139C31.0048 25.6139 31.7749 24.8657 31.7749 23.9404C31.7749 23.0138 31.0074 22.2668 30.0583 22.2668L30.0583 22.2641ZM30.0583 14.7016C31.0048 14.7016 31.775 15.4499 31.775 16.3752C31.775 17.3018 31.0074 18.0487 30.0583 18.0487C29.1795 18.0487 28.457 17.4039 28.3549 16.5768H21.6897V15.8324H28.4357C28.6663 15.1746 29.3079 14.7042 30.0582 14.7042L30.0583 14.7016ZM10.1281 26.8829C10.1997 27.0741 10.0936 27.29 9.89745 27.3597C9.70126 27.4295 9.47988 27.3261 9.40831 27.1349C9.16705 26.4771 8.74684 25.9343 8.23384 25.557C7.7182 25.177 7.10709 24.9651 6.49333 24.9716C6.28257 24.9716 6.11289 24.81 6.11024 24.6045C6.11024 24.3991 6.27594 24.2336 6.48672 24.2311C6.84331 24.2272 7.1959 24.2802 7.53525 24.3836C7.65455 23.7413 7.92496 23.1429 8.31206 22.6531C8.79062 22.0406 9.44944 21.5909 10.2222 21.3996C10.4264 21.3505 10.6332 21.472 10.6836 21.671C10.7339 21.87 10.6093 22.0716 10.4052 22.1207C9.80735 22.2693 9.2917 22.6234 8.91523 23.1068C8.56529 23.55 8.33463 24.0992 8.25376 24.6911C8.40355 24.7738 8.54937 24.8669 8.69122 24.969C9.31957 25.4316 9.83124 26.0907 10.1229 26.8881L10.1281 26.8829ZM4.84167 21.8867C5.05243 21.9099 5.2009 22.0947 5.17439 22.3002C5.15053 22.5057 4.96097 22.6504 4.7502 22.6246C3.47101 22.476 2.35484 21.8014 1.62445 20.8179C1.29173 21.5054 1.25062 22.2937 1.48129 23.0019C1.66422 23.5706 2.01417 24.0772 2.49935 24.4312C2.72337 24.5928 2.9779 24.722 3.25892 24.8112C3.43522 24.8538 3.56115 25.0166 3.5479 25.1989C3.48692 25.9898 3.74409 26.7703 4.24384 27.3493C4.85098 28.0536 5.77093 28.3948 6.70018 28.2126C6.8566 28.1828 7.00507 28.1402 7.14823 28.0833C7.42926 27.9606 7.69836 28.1622 7.69836 28.418C7.69836 30.3461 9.07565 31.5945 10.9699 31.5945C12.8629 31.5945 14.2919 29.8615 14.2919 27.9594C14.2919 26.0572 12.8735 24.3242 10.9699 24.3242C10.7592 24.3242 10.5895 24.1588 10.5895 23.9533C10.5895 23.7478 10.7592 23.5824 10.9699 23.5824C12.3406 23.5824 13.5562 24.3229 14.2919 25.4252L14.2786 10.0376C14.0003 9.63046 13.6649 9.26347 13.2871 8.95848C12.8934 8.64057 12.452 8.38984 11.988 8.22443C11.7918 8.15464 11.6897 7.9427 11.76 7.74757C11.8316 7.5563 12.049 7.45679 12.2491 7.52529C13.0233 7.79925 13.7152 8.25934 14.2813 8.84474V4.43144C14.2813 3.13137 13.5588 2.01997 12.3499 1.46689C12.0821 1.34412 11.8037 1.25495 11.5148 1.20196C10.4729 1.01717 9.18305 1.40098 8.33467 2.04843C7.86276 2.40897 7.46904 2.88196 7.21453 3.48418C7.71029 3.59015 8.15834 3.84862 8.50699 4.21174C8.96831 4.6886 9.26656 5.35027 9.30766 6.08432C9.31826 6.2898 9.15787 6.46167 8.94842 6.4746C8.73765 6.48494 8.56135 6.32857 8.54809 6.12438C8.5176 5.57127 8.29357 5.07502 7.95025 4.72222C7.22383 3.97397 6.10369 3.99465 5.40113 4.76487C4.81785 5.40714 4.68133 6.38932 5.04189 7.18924C7.73286 6.7925 10.139 8.81369 10.2476 11.4669C10.2542 11.6724 10.0911 11.8442 9.88171 11.8507C9.67094 11.8572 9.49464 11.6982 9.48799 11.4941C9.40713 9.50519 7.76737 7.88071 5.71405 7.88071C3.66072 7.88071 1.93739 9.59174 1.93739 11.6555C1.93739 12.7075 2.38543 13.749 3.16886 14.4443C3.34915 14.6033 3.34252 14.8837 3.1344 15.0271C2.10972 15.7315 1.49862 16.8868 1.49862 18.1364C1.49862 20.0349 2.92363 21.6631 4.83778 21.8841L4.84167 21.8867ZM5.12932 19.2658C4.92253 19.2361 4.7767 19.0474 4.8072 18.8458C4.8377 18.6443 5.03123 18.5021 5.23801 18.5318C5.84247 18.6184 6.42972 18.4788 6.92419 18.1751C7.33114 17.9231 7.68376 17.5626 7.93563 17.1193C7.02229 16.8221 6.30646 16.1604 5.87565 15.3166C5.34012 14.275 5.26852 13.011 5.72586 11.8855C5.80407 11.6968 6.02412 11.6012 6.21765 11.6774C6.41119 11.7537 6.50928 11.9682 6.43107 12.1569C6.05724 13.077 6.11558 14.1315 6.55303 14.9819C7.32716 16.4836 9.10877 17.0302 10.4756 16.0441C10.6453 15.9214 10.8826 15.9576 11.0085 16.1204C11.1344 16.2858 11.0973 16.5171 10.9303 16.6399C10.2887 17.1025 9.50792 17.3352 8.71122 17.2719C8.39175 17.9167 7.90658 18.4466 7.32996 18.7968C6.68172 19.1935 5.91818 19.3719 5.13078 19.2594L5.12932 19.2658ZM19.3384 9.78815C20.2133 9.78815 20.9264 10.4834 20.9264 11.3363V21.0661C20.9264 21.919 20.2133 22.6143 19.3384 22.6143H15.0527V20.9304H17.8656C18.6027 20.9304 19.1992 20.345 19.1992 19.6304V12.7722C19.1992 12.0537 18.5987 11.4722 17.8656 11.4722H15.0421V9.78829L19.3384 9.78815ZM15.0422 12.2164L15.0488 20.1901H17.8617C18.1772 20.1901 18.4357 19.9381 18.4357 19.6305V12.7724C18.4357 12.4648 18.1772 12.2128 17.8617 12.2128H15.0382L15.0422 12.2164Z"
        fill="#CABBFE" />
</svg>
    