<svg width="32" height="33" viewBox="0 0 32 33" fill="none" xmlns="http://www.w3.org/2000/svg">
    <path
        d="M25.9327 14.8648H23.7397C23.2762 14.8648 22.8997 15.244 22.8997 15.7109V18.4912H21.0997V15.1216L22.2997 13.1845C22.3987 13.1966 22.4992 13.2042 22.5997 13.2057C23.6827 13.2087 24.6247 12.4608 24.8752 11.4C25.1257 10.3393 24.6202 9.24384 23.6542 8.75428C22.6867 8.26473 21.5122 8.50799 20.8177 9.34356C20.1217 10.1776 20.0872 11.3864 20.7337 12.2598L19.2997 14.6079V18.4912H16.8997V7.28237C17.9227 6.85022 18.5002 5.75173 18.2827 4.65774C18.0637 3.56227 17.1082 2.77502 15.9997 2.77502C14.8912 2.77502 13.9357 3.56227 13.7167 4.65774C13.4992 5.7517 14.0767 6.85022 15.0997 7.28237V18.4912H12.6997V14.6079L11.2657 12.2598C11.9092 11.388 11.8732 10.1837 11.1802 9.35265C10.4857 8.52011 9.31419 8.27684 8.35119 8.76639C7.3867 9.25444 6.8827 10.3454 7.13318 11.4031C7.38218 12.4608 8.3212 13.2072 9.39967 13.2057C9.50017 13.2042 9.60067 13.1967 9.69967 13.1846L10.8997 15.1217V18.4912H9.09967V15.711C9.09967 15.2441 8.72317 14.8648 8.25967 14.8648H6.06668C3.59917 14.8648 1.59961 16.879 1.59961 19.3646V25.4752C1.59961 27.9608 3.5991 29.975 6.06668 29.975H25.9325C28.4 29.975 30.3996 27.9609 30.3996 25.4752V19.3646C30.3996 16.879 28.4002 14.8648 25.9327 14.8648ZM18.9995 25.744C18.272 25.744 17.615 25.3028 17.336 24.6243C17.0585 23.9474 17.2115 23.1677 17.726 22.6479C18.2421 22.1297 19.016 21.9755 19.688 22.2551C20.3615 22.5361 20.7995 23.198 20.7995 23.9308C20.7995 24.9326 19.994 25.744 18.9995 25.744ZM24.3993 25.744C23.6719 25.744 23.0148 25.3028 22.7359 24.6243C22.4584 23.9474 22.6114 23.1677 23.1258 22.6479C23.6419 22.1297 24.4159 21.9755 25.0879 22.2551C25.7614 22.5361 26.1993 23.198 26.1993 23.9308C26.1993 24.9326 25.3938 25.744 24.3993 25.744Z"
        fill="#CABBFE" />
</svg>
    