<svg width="33" height="33" viewBox="0 0 33 33" fill="none" xmlns="http://www.w3.org/2000/svg">
    <path
        d="M30.671 13.6112C30.521 13.6075 30.3698 13.605 30.2198 13.605H4.88866H2.28742C2.27742 13.6975 2.26867 13.755 2.26867 13.81C2.26867 17.1888 2.25867 20.5687 2.27492 23.9475C2.27867 24.7513 2.68743 25.3525 3.4049 25.73C3.82739 25.9538 4.2849 25.9575 4.74614 25.9538C10.8037 25.9538 16.861 25.95 22.9186 25.9475C24.9536 25.9475 26.9886 25.9575 29.0273 25.9413C29.9523 25.935 30.7523 25.3075 30.9536 24.415C31.0498 23.9825 31.0498 23.5288 31.0498 23.08C31.0561 20.05 31.0498 17.0225 31.0498 13.9927C31.0498 13.5227 31.0436 13.6177 30.6748 13.609L30.671 13.6112ZM16.4637 17.0551C13.0113 17.0488 9.55878 17.0488 6.10888 17.0451C5.71886 17.0451 5.72139 17.0388 5.73137 16.6513C5.73762 16.3476 5.73137 16.04 5.73137 15.7163H16.6501C16.6501 16.1038 16.6401 16.4775 16.6563 16.8488C16.6626 17.0051 16.6213 17.0501 16.4676 17.0501L16.4637 17.0551Z"
        fill="#CABBFE" />
    <path
        d="M31.0657 9.08256C31.0982 7.76756 30.1569 6.76631 28.9019 6.77508C26.7932 6.78758 24.6808 6.80383 22.572 6.80758C19.3682 6.81383 16.1657 6.81133 12.9622 6.80758C10.1009 6.80758 7.24089 6.79508 4.37978 6.78883C3.35604 6.78883 2.50728 7.43507 2.32478 8.44009C2.23853 8.91634 2.28603 9.41634 2.27353 9.90507C2.26728 10.1351 2.37603 10.2513 2.59977 10.2538H2.69852H16.6636H24.8709C26.8322 10.2538 28.7909 10.2538 30.7522 10.2638C30.9959 10.2638 31.0684 10.2001 31.0534 9.95631C31.0347 9.66881 31.0534 9.37382 31.0634 9.08255L31.0657 9.08256Z"
        fill="#CABBFE" />
</svg>
    