<svg width="33" height="33" viewBox="0 0 33 33" fill="none" xmlns="http://www.w3.org/2000/svg">
    <path
        d="M18.2085 3.16667C18.3684 2.95675 18.4803 2.70754 18.4803 2.42397C18.4803 1.73553 17.9203 1.17505 17.2313 1.17505C16.5424 1.17505 15.9824 1.73553 15.9824 2.42397C15.9824 2.7076 16.0943 2.95694 16.2543 3.16686C16.7338 3.7784 17.7312 3.77821 18.2085 3.16667Z"
        fill="#CABBFE" />
    <path
        d="M27.8794 9.01938C27.834 9.14869 27.7969 9.28267 27.7969 9.42727C27.7969 10.1157 28.3568 10.6762 29.0458 10.6762C29.7348 10.6762 30.2947 10.1157 30.2947 9.42727C30.2947 8.73882 29.7348 8.17834 29.0458 8.17834C28.5624 8.17834 28.1543 8.46249 27.9468 8.86506C27.9204 8.91586 27.8985 8.96743 27.8794 9.01938Z"
        fill="#CABBFE" />
    <path
        d="M27.7969 23.323C27.7969 23.4676 27.834 23.6016 27.8794 23.7309C27.8985 23.7829 27.9204 23.8344 27.9468 23.8852C28.1543 24.2878 28.5624 24.5719 29.0458 24.5719C29.7348 24.5719 30.2947 24.0115 30.2947 23.323C30.2947 22.6346 29.7348 22.0741 29.0458 22.0741C28.3568 22.0741 27.7969 22.6346 27.7969 23.323Z"
        fill="#CABBFE" />
    <path
        d="M27.0976 21.2837C27.2094 21.1768 27.3305 21.0799 27.4587 20.9924C27.484 20.9751 27.5123 20.9628 27.5382 20.9463C27.6535 20.873 27.7731 20.8066 27.8989 20.7503C27.952 20.7266 28.0073 20.7087 28.062 20.6882C28.1279 20.6635 28.1909 20.633 28.259 20.6132V12.1369C28.1909 12.1171 28.1279 12.0866 28.062 12.0619C28.0073 12.0414 27.952 12.0235 27.8989 11.9998C27.7731 11.9435 27.6535 11.8771 27.5382 11.8037C27.5123 11.7873 27.484 11.775 27.4587 11.7577C27.3305 11.6701 27.2094 11.5733 27.0976 11.4664L21.0957 15.0461C21.2404 15.4652 21.3356 15.9074 21.3356 16.375C21.3356 16.8427 21.2404 17.2849 21.0957 17.7039L27.0976 21.2837Z"
        fill="#CABBFE" />
    <path
        d="M13.1262 16.375C13.1262 15.9086 13.2211 15.4676 13.3651 15.0495L7.28655 11.464C7.17407 11.5717 7.05238 11.6695 6.92333 11.7576C6.89799 11.7749 6.86971 11.7872 6.8438 11.8037C6.72851 11.8771 6.60892 11.9434 6.48307 11.9997C6.42997 12.0234 6.37475 12.0413 6.32005 12.0618C6.25415 12.0865 6.19112 12.1171 6.12305 12.1368V20.6131C6.19112 20.6329 6.25415 20.6634 6.32005 20.6881C6.37475 20.7086 6.42997 20.7265 6.48307 20.7502C6.60892 20.8065 6.72851 20.8729 6.8438 20.9463C6.86971 20.9627 6.89799 20.9751 6.92333 20.9923C7.05238 21.0804 7.17407 21.1783 7.28655 21.2859L13.3651 17.7004C13.2211 17.2823 13.1262 16.8413 13.1262 16.375Z"
        fill="#CABBFE" />
    <path
        d="M17.2319 18.9077C18.6306 18.9077 19.7645 17.7738 19.7645 16.3751C19.7645 14.9763 18.6306 13.8424 17.2319 13.8424C15.8331 13.8424 14.6992 14.9763 14.6992 16.3751C14.6992 17.7738 15.8331 18.9077 17.2319 18.9077Z"
        fill="#CABBFE" />
    <path
        d="M6.58574 9.42727C6.58574 9.28267 6.54863 9.14869 6.5032 9.01938C6.48407 8.96743 6.46225 8.91586 6.43576 8.86506C6.22827 8.46249 5.82026 8.17834 5.33681 8.17834C4.64786 8.17834 4.08789 8.73882 4.08789 9.42727C4.08789 10.1157 4.64786 10.6762 5.33681 10.6762C6.02577 10.6762 6.58574 10.1157 6.58574 9.42727Z"
        fill="#CABBFE" />
    <path
        d="M16.2543 29.5834C16.0943 29.7934 15.9824 30.0427 15.9824 30.3263C15.9824 31.0148 16.5424 31.5752 17.2313 31.5752C17.9203 31.5752 18.4803 31.0148 18.4803 30.3263C18.4803 30.0428 18.3684 29.7936 18.2085 29.5836C17.7312 28.9721 16.7338 28.9719 16.2543 29.5834Z"
        fill="#CABBFE" />
    <path
        d="M17.2317 27.5046C17.9842 27.5046 18.6649 27.8051 19.1712 28.2868L26.3181 24.0281C26.3147 24.0153 26.3161 24.0018 26.3129 23.9889C26.2605 23.7742 26.2249 23.5533 26.2249 23.3227C26.2249 23.1429 26.2457 22.9683 26.278 22.7978C26.2877 22.7462 26.3034 22.6973 26.316 22.6468L20.3083 19.0637C19.5553 19.9243 18.4623 20.4799 17.2317 20.4799C15.9999 20.4799 14.906 19.9232 14.1529 19.0612L8.06858 22.6501C8.0808 22.6996 8.09597 22.7473 8.1055 22.7978C8.13781 22.9683 8.15854 23.1429 8.15854 23.3227C8.15854 23.552 8.12348 23.7717 8.07165 23.9853C8.06839 23.9985 8.06986 24.0123 8.06641 24.0255L15.289 28.2894C15.7956 27.806 16.4776 27.5046 17.2317 27.5046Z"
        fill="#CABBFE" />
    <path
        d="M8.15854 9.42734C8.15854 9.60719 8.13781 9.78173 8.1055 9.95231C8.09597 10.0027 8.0808 10.0505 8.06858 10.0999L14.1529 13.6889C14.906 12.8269 15.9999 12.2702 17.2317 12.2702C18.4623 12.2702 19.5553 12.8258 20.3083 13.6864L26.316 10.1033C26.3034 10.0528 26.2877 10.0039 26.278 9.95231C26.2457 9.78173 26.2249 9.60719 26.2249 9.42734C26.2249 9.19675 26.2605 8.97582 26.3129 8.76116C26.3161 8.7483 26.3147 8.7348 26.3181 8.722L19.1712 4.46325C18.6649 4.94497 17.9842 5.24549 17.2317 5.24549C16.4776 5.24549 15.7956 4.94407 15.289 4.46069L8.06641 8.72456C8.06986 8.73774 8.06839 8.75156 8.07165 8.76474C8.12348 8.97831 8.15854 9.19809 8.15854 9.42734Z"
        fill="#CABBFE" />
    <path
        d="M6.5032 23.7309C6.54863 23.6016 6.58574 23.4676 6.58574 23.323C6.58574 22.6346 6.02577 22.0741 5.33681 22.0741C4.64786 22.0741 4.08789 22.6346 4.08789 23.323C4.08789 24.0115 4.64786 24.5719 5.33681 24.5719C5.82026 24.5719 6.22827 24.2878 6.43576 23.8852C6.46225 23.8344 6.48407 23.7829 6.5032 23.7309Z"
        fill="#CABBFE" />
</svg>
    