<svg width="33" height="33" viewBox="0 0 33 33" fill="none" xmlns="http://www.w3.org/2000/svg">
    <path fill-rule="evenodd" clip-rule="evenodd"
        d="M27.4918 14.3065V8.50324L16.2223 3.50543L4.9527 8.50324V14.3065C4.9527 21.1492 9.60017 27.111 16.2223 28.7886C22.8444 27.111 27.4918 21.1492 27.4918 14.3065ZM3.68362 5.64158C2.55188 6.14348 1.82227 7.26521 1.82227 8.50324V14.3065C1.82227 22.6371 7.51725 29.888 15.6105 31.8621C16.0125 31.9604 16.4321 31.9604 16.834 31.8621C24.9273 29.888 30.6223 22.6371 30.6223 14.3065V8.50324C30.6223 7.26521 29.8926 6.14348 28.7609 5.64158L17.4913 0.643779C16.6833 0.285407 15.7613 0.285407 14.9532 0.643779L3.68362 5.64158Z"
        fill="#CABBFE" />
    <path
        d="M17.7874 16.2535C18.7231 15.7122 19.3527 14.7005 19.3527 13.5418C19.3527 11.8129 17.9511 10.4114 16.2222 10.4114C14.4934 10.4114 13.0918 11.8129 13.0918 13.5418C13.0918 14.7005 13.7213 15.7122 14.657 16.2535V19.8027C14.657 20.6671 15.3578 21.3679 16.2222 21.3679C17.0867 21.3679 17.7874 20.6671 17.7874 19.8027V16.2535Z"
        fill="#CABBFE" />
</svg>
    