<svg width="40" height="40" viewBox="0 0 40 40" fill="none" xmlns="http://www.w3.org/2000/svg">
<g clip-path="url(#clip0_1313_9962)">
<path d="M32.95 18.7502H26.2167C22.8667 18.7502 21.25 17.1168 21.25 13.7835V7.05016C21.25 3.70016 22.8833 2.0835 26.2167 2.0835H32.95C36.3 2.0835 37.9167 3.71683 37.9167 7.05016V13.7835C37.9167 17.1168 36.2833 18.7502 32.95 18.7502ZM26.2167 4.5835C24.25 4.5835 23.75 5.0835 23.75 7.05016V13.7835C23.75 15.7502 24.25 16.2502 26.2167 16.2502H32.95C34.9167 16.2502 35.4167 15.7502 35.4167 13.7835V7.05016C35.4167 5.0835 34.9167 4.5835 32.95 4.5835H26.2167Z" fill="#BABABA"/>
<path d="M13.7834 18.7502H7.05004C3.70004 18.7502 2.08337 17.2668 2.08337 14.2002V6.6335C2.08337 3.56683 3.71671 2.0835 7.05004 2.0835H13.7834C17.1334 2.0835 18.75 3.56683 18.75 6.6335V14.1835C18.75 17.2668 17.1167 18.7502 13.7834 18.7502ZM7.05004 4.5835C4.81671 4.5835 4.58337 5.21683 4.58337 6.6335V14.1835C4.58337 15.6168 4.81671 16.2335 7.05004 16.2335H13.7834C16.0167 16.2335 16.25 15.6002 16.25 14.1835V6.6335C16.25 5.20016 16.0167 4.5835 13.7834 4.5835H7.05004Z" fill="#BABABA"/>
<path d="M13.7834 37.9169H7.05004C3.70004 37.9169 2.08337 36.2836 2.08337 32.9502V26.2169C2.08337 22.8669 3.71671 21.2502 7.05004 21.2502H13.7834C17.1334 21.2502 18.75 22.8836 18.75 26.2169V32.9502C18.75 36.2836 17.1167 37.9169 13.7834 37.9169ZM7.05004 23.7502C5.08337 23.7502 4.58337 24.2502 4.58337 26.2169V32.9502C4.58337 34.9169 5.08337 35.4169 7.05004 35.4169H13.7834C15.75 35.4169 16.25 34.9169 16.25 32.9502V26.2169C16.25 24.2502 15.75 23.7502 13.7834 23.7502H7.05004Z" fill="#BABABA"/>
<path d="M34.1666 30.417H24.1666C23.4833 30.417 22.9166 29.8503 22.9166 29.167C22.9166 28.4837 23.4833 27.917 24.1666 27.917H34.1666C34.85 27.917 35.4166 28.4837 35.4166 29.167C35.4166 29.8503 34.85 30.417 34.1666 30.417Z" fill="#BABABA"/>
<path d="M29.1666 35.417C28.4833 35.417 27.9166 34.8503 27.9166 34.167V24.167C27.9166 23.4837 28.4833 22.917 29.1666 22.917C29.85 22.917 30.4166 23.4837 30.4166 24.167V34.167C30.4166 34.8503 29.85 35.417 29.1666 35.417Z" fill="#BABABA"/>
</g>
<defs>
<clipPath id="clip0_1313_9962">
<rect width="40" height="40" fill="white" transform="translate(0 0.000244141)"/>
</clipPath>
</defs>
</svg>
