<svg width="40" height="40" viewBox="0 0 40 40" fill="none" xmlns="http://www.w3.org/2000/svg">
<g clip-path="url(#clip0_1313_9934)">
<path d="M35 37.917H5C4.31667 37.917 3.75 37.3503 3.75 36.667C3.75 35.9837 4.31667 35.417 5 35.417H35C35.6833 35.417 36.25 35.9837 36.25 36.667C36.25 37.3503 35.6833 37.917 35 37.917Z" fill="#BABABA"/>
<path d="M9.33329 32.9168H6.66667C5.06667 32.9168 3.75 31.6001 3.75 30.0001V15.6335C3.75 14.0335 5.06667 12.7168 6.66667 12.7168H9.33329C10.9333 12.7168 12.25 14.0335 12.25 15.6335V30.0001C12.25 31.6001 10.9333 32.9168 9.33329 32.9168ZM6.66667 15.2001C6.43333 15.2001 6.25 15.3834 6.25 15.6168V30.0001C6.25 30.2335 6.43333 30.4168 6.66667 30.4168H9.33329C9.56663 30.4168 9.74996 30.2335 9.74996 30.0001V15.6335C9.74996 15.4001 9.56663 15.2168 9.33329 15.2168H6.66667V15.2001Z" fill="#BABABA"/>
<path d="M21.3337 32.9168H18.667C17.067 32.9168 15.7504 31.6001 15.7504 30.0001V10.3168C15.7504 8.71681 17.067 7.40015 18.667 7.40015H21.3337C22.9337 7.40015 24.2503 8.71681 24.2503 10.3168V30.0001C24.2503 31.6001 22.9337 32.9168 21.3337 32.9168ZM18.667 9.90015C18.4337 9.90015 18.2504 10.0835 18.2504 10.3168V30.0001C18.2504 30.2335 18.4337 30.4168 18.667 30.4168H21.3337C21.567 30.4168 21.7503 30.2335 21.7503 30.0001V10.3168C21.7503 10.0835 21.567 9.90015 21.3337 9.90015H18.667Z" fill="#BABABA"/>
<path d="M33.3332 32.9168H30.6665C29.0665 32.9168 27.7499 31.6002 27.7499 30.0002V5.00016C27.7499 3.40016 29.0665 2.0835 30.6665 2.0835H33.3332C34.9332 2.0835 36.2498 3.40016 36.2498 5.00016V30.0002C36.2498 31.6002 34.9332 32.9168 33.3332 32.9168ZM30.6665 4.5835C30.4332 4.5835 30.2499 4.76683 30.2499 5.00016V30.0002C30.2499 30.2335 30.4332 30.4168 30.6665 30.4168H33.3332C33.5665 30.4168 33.7498 30.2335 33.7498 30.0002V5.00016C33.7498 4.76683 33.5665 4.5835 33.3332 4.5835H30.6665Z" fill="#BABABA"/>
</g>
<defs>
<clipPath id="clip0_1313_9934">
<rect width="40" height="40" fill="white" transform="translate(0 0.000244141)"/>
</clipPath>
</defs>
</svg>
