<?xml version="1.0" encoding="UTF-8"?>
<svg xmlns="http://www.w3.org/2000/svg" width="97" height="16" viewBox="0 0 97 16" fill="none">
  <path d="M16.1724 16H15.2656V5.11775C15.2656 2.80329 13.4088 0.934476 11.0914 0.905725H5.23318C2.94458 0.905725 1.08778 2.76016 1.08778 5.04587C1.08778 7.33157 2.94458 9.18601 5.23318 9.18601H5.24757L5.80893 9.20039C6.7877 9.20039 7.56497 9.99104 7.56497 10.9542C7.56497 11.9317 6.77331 12.708 5.80893 12.708H0.166585V11.8024H5.80893C6.28392 11.8024 6.67255 11.4142 6.67255 10.9398C6.67255 10.4654 6.28392 10.0773 5.80893 10.0773H5.79454L5.23318 10.0629C2.4408 10.0629 0.166585 7.82034 0.152191 5.03149C0.166585 2.24265 2.4408 -0.0143072 5.23318 6.82933e-05H11.077C13.8838 0.0288193 16.1436 2.30015 16.158 5.10337V16H16.1724Z" fill="white"></path>
  <path d="M14.4884 16H13.5815V5.11772C13.5815 3.73767 12.4732 2.60201 11.0914 2.57326H5.23318C3.86577 2.57326 2.74306 3.68017 2.74306 5.06022C2.74306 6.42589 3.85138 7.54718 5.23318 7.54718H5.27636L5.80893 7.60468C7.68011 7.60468 9.17706 9.12848 9.17706 10.9973C9.17706 12.8661 7.65133 14.3612 5.78014 14.3612H0.16658V13.4555H5.80893C7.17633 13.4555 8.29904 12.3486 8.29904 10.9686C8.29904 9.5885 7.19073 8.48159 5.80893 8.48159H5.76575L5.23318 8.42409C3.36199 8.42409 1.86504 6.90028 1.86504 5.03147C1.86504 3.16265 3.39078 1.6676 5.26196 1.6676H11.1058C12.9914 1.69635 14.5027 3.23453 14.5027 5.11772V16H14.4884Z" fill="white"></path>
  <path d="M5.80893 16H0.16658V15.0943H5.80893C8.09753 15.0943 9.95432 13.2399 9.95432 10.9542C9.95432 8.66849 8.09753 6.81405 5.80893 6.81405H5.79453L5.23318 6.79968C4.2544 6.79968 3.47714 6.00902 3.47714 5.04587C3.47714 4.06833 4.2688 3.29205 5.23318 3.29205H11.0914C12.0702 3.3208 12.8619 4.14021 12.8475 5.11774V16H11.9407V5.11774C11.9551 4.62898 11.5664 4.21209 11.077 4.18334H5.21878C4.74379 4.18334 4.35516 4.57147 4.35516 5.04587C4.35516 5.52026 4.74379 5.9084 5.21878 5.9084H5.23318L5.79453 5.92277C8.57252 5.92277 10.8323 8.17973 10.8323 10.9542C10.8611 13.743 8.60131 15.9856 5.80893 16Z" fill="white"></path>
  <path d="M18.8497 15.08C18.8497 15.4106 18.9936 15.6693 19.4398 15.6693C19.8428 15.6693 20.0587 15.4825 20.0587 15.1806C20.0587 14.4762 18.4035 14.8499 18.4035 13.8293C18.4035 13.3549 18.8497 13.0386 19.4254 13.0386C20.0875 13.0386 20.4762 13.3405 20.4905 13.8724H20.0012C20.0012 13.5993 19.7853 13.3693 19.5262 13.3693C19.4974 13.3693 19.483 13.3693 19.4542 13.3693C19.1375 13.3693 18.9216 13.5562 18.9216 13.8005C18.9216 14.4762 20.5769 14.0737 20.5769 15.1518C20.5769 15.6981 20.0731 15.9856 19.4974 15.9856C18.7057 15.9856 18.3603 15.6119 18.3603 15.0656L18.8497 15.08Z" fill="white"></path>
  <path d="M27.1692 13.0961H27.7018L26.7086 14.8068V15.9569H26.2193V14.8068L25.2261 13.0961H25.7587L26.464 14.3612L27.1692 13.0961Z" fill="white"></path>
  <path d="M32.8692 15.08C32.8692 15.4106 33.0131 15.6693 33.4593 15.6693C33.8623 15.6693 34.0638 15.4825 34.0638 15.1806C34.0638 14.4762 32.4086 14.8499 32.4086 13.8293C32.4086 13.3549 32.8548 13.0386 33.4305 13.0386C34.0926 13.0386 34.4813 13.3405 34.4957 13.8724H34.0063C34.0063 13.5993 33.7904 13.3693 33.5313 13.3693C33.5025 13.3693 33.4881 13.3693 33.4593 13.3693C33.1426 13.3693 32.9267 13.5562 32.9267 13.8005C32.9267 14.4762 34.582 14.0737 34.582 15.1518C34.582 15.6981 34.0782 15.9856 33.5025 15.9856C32.7108 15.9856 32.3654 15.6119 32.3654 15.0656L32.8692 15.08Z" fill="white"></path>
  <path d="M41.491 13.0961V13.4699H40.7281V15.9569H40.2244V13.4699H39.4615V13.0961H41.491Z" fill="white"></path>
  <path d="M46.5864 15.9569V13.0961H48.3856V13.4699H47.0902V14.2893H48.3856V14.6487H47.0902V15.5975H48.3856V15.9569H46.5864Z" fill="white"></path>
  <path d="M53.0492 15.9569V13.0961H53.7545L54.5174 15.1806L55.2083 13.0961H55.9279V15.9569H55.453V13.7718H55.4386L54.7045 15.9569H54.3158L53.5386 13.7718H53.5242V15.9569H53.0492Z" fill="white"></path>
  <path d="M60.8938 15.08C60.8938 15.4106 61.0377 15.6693 61.4839 15.6693C61.887 15.6693 62.0885 15.4825 62.0885 15.1806C62.0885 14.4762 60.4332 14.8499 60.4332 13.8293C60.4332 13.3549 60.8794 13.0386 61.4552 13.0386C62.1173 13.0386 62.5059 13.3405 62.5203 13.8724H62.0309C62.0309 13.5993 61.815 13.3693 61.5559 13.3693C61.5271 13.3693 61.5127 13.3693 61.4839 13.3693C61.1673 13.3693 60.9514 13.5562 60.9514 13.8005C60.9514 14.4762 62.6067 14.0737 62.6067 15.1518C62.6067 15.6981 62.1029 15.9856 61.5271 15.9856C60.7355 15.9856 60.39 15.6119 60.39 15.0656L60.8938 15.08Z" fill="white"></path>
  <path d="M70.1202 11.0548L65.4134 3.72334H65.399V11.0548H64.0028V1.56702H65.5142L70.1346 8.78352H70.1634V1.56702H71.5452V11.0548H70.1202Z" fill="white"></path>
  <path d="M76.1943 11.2274C74.0928 11.2417 72.38 9.54543 72.3512 7.46098C72.3512 5.52029 73.9777 3.76648 76.1943 3.76648C78.2814 3.73773 79.9943 5.39091 80.0374 7.47536C80.0374 7.47536 80.0374 7.47536 80.0374 7.48974C80.0087 9.57418 78.2958 11.2417 76.1943 11.2274ZM76.1943 4.9884C74.7981 4.97402 73.661 6.09531 73.6466 7.48974C73.6322 8.88416 74.7549 10.0198 76.1511 10.0342C77.5473 10.0486 78.6844 8.92728 78.6988 7.53286C78.6988 7.51848 78.6988 7.50411 78.6988 7.48974C78.6988 6.09531 77.5761 4.97402 76.1943 4.9884Z" fill="white"></path>
  <path d="M83.4344 11.0548H82.4988L79.6776 3.95331H81.1026L82.9594 9.02786H82.9882L84.8162 3.95331H86.2412L83.4344 11.0548Z" fill="white"></path>
  <path d="M92.0706 11.0548V9.93351H92.0418C91.5237 10.8104 90.5881 11.2129 89.6237 11.2129C87.2199 11.2129 85.8525 9.37287 85.8525 7.50405C85.8525 5.77899 87.076 3.73767 89.6237 3.73767C90.6169 3.73767 91.5237 4.15456 92.0418 4.93084H92.0706V3.93893H93.4093V11.0404H92.0706V11.0548ZM89.6381 4.97396C87.9972 4.97396 87.2055 6.39714 87.2055 7.51843C87.2055 8.79785 88.2131 10.0198 89.6237 10.0198C90.9911 10.0198 92.0994 8.89847 92.0994 7.5328C92.0994 7.5328 92.0994 7.5328 92.0994 7.51843C92.0994 6.009 91.0055 4.97396 89.6381 4.97396Z" fill="white"></path>
  <path d="M19.7277 8.23725C19.7277 8.55351 19.8716 9.94793 21.2534 9.94793C22.117 9.94793 22.7648 9.35853 22.7648 8.36662C22.7648 7.31721 21.9011 7.0872 21.2534 6.82844C19.9868 6.33968 19.6845 6.19592 19.2527 5.77904C18.8209 5.36215 18.6194 4.67212 18.6194 3.99647C18.6338 2.5733 19.7997 1.42326 21.2246 1.43763C21.239 1.43763 21.239 1.43763 21.2534 1.43763C22.8223 1.43763 23.9594 2.47267 23.9594 4.05398H22.5776C22.5776 3.00456 21.8148 2.6883 21.2534 2.6883C20.5481 2.70268 19.9868 3.2777 19.9868 3.9821C19.9868 4.88775 20.836 5.13214 21.2534 5.27589C22.4481 5.72153 24.1466 6.0953 24.1466 8.35225C24.1466 9.99106 22.9807 11.1986 21.2534 11.1986C19.958 11.1986 18.3459 10.3361 18.3459 8.23725H19.7277Z" fill="white"></path>
  <path d="M31.1275 11.0261V9.93357H31.0987C30.5949 10.7961 29.6594 11.213 28.695 11.213C26.3056 11.213 24.9526 9.38729 24.9526 7.53286C24.9526 5.8078 26.1617 3.79523 28.695 3.79523C29.6738 3.79523 30.5806 4.19774 31.0987 4.9884H31.1275V3.99649H32.4517V11.0405H31.1275V11.0261ZM28.7094 5.00277C27.0829 5.00277 26.2912 6.41157 26.2912 7.51848C26.2912 8.7979 27.2988 10.0054 28.695 10.0054C30.0624 10.0054 31.1563 8.89853 31.1563 7.53286V7.51848C31.1563 6.00906 30.0768 5.00277 28.7094 5.00277Z" fill="white"></path>
  <path d="M43.5205 11.0261V7.10156C43.5205 6.51216 43.4486 4.98836 41.8508 4.98836C40.1524 4.98836 40.1812 6.49779 40.1668 7.08719V11.0261H38.8426V7.10156C38.8569 6.51216 38.8282 6.12403 38.5547 5.64964C38.2668 5.21837 37.763 4.95961 37.2449 4.98836C35.5032 4.98836 35.5032 6.56967 35.5032 7.08719V11.0261H34.179V3.98208H35.4025V4.74398H35.4312C35.6903 4.44209 36.1509 3.78082 37.4608 3.78082C38.31 3.78082 39.2888 4.18333 39.6486 4.97399C39.8789 4.6146 40.3971 3.78082 41.9804 3.78082C43.1751 3.78082 44.0099 4.26959 44.4705 5.06024C44.744 5.59213 44.8879 6.18153 44.8735 6.7853V11.0404H43.5205V11.0261Z" fill="white"></path>
  <path d="M46.5432 11.0261V1.59576H47.8674V4.94525H47.8962C48.4576 4.18335 49.3644 3.73771 50.3144 3.76646C52.3439 3.79522 53.9848 5.4484 53.9704 7.48972C54.0136 9.50229 52.4159 11.1555 50.4007 11.1986C50.3863 11.1986 50.3576 11.1986 50.3432 11.1986C49.3788 11.1986 48.472 10.7673 47.8818 10.0054H47.8674V11.0117H46.5432V11.0261ZM50.2424 10.0054C51.5954 9.9623 52.6606 8.85539 52.6462 7.50409C52.6462 6.18155 51.6242 4.98838 50.2424 4.98838C48.7886 4.98838 47.8386 6.22467 47.8386 7.47534C47.7811 8.81226 48.8318 9.94793 50.1848 9.99105C50.1992 10.0054 50.2136 10.0054 50.2424 10.0054Z" fill="white"></path>
  <path d="M61.2824 11.0261V9.93357H61.2536C60.7498 10.7961 59.8142 11.213 58.8499 11.213C56.4605 11.213 55.1075 9.38729 55.1075 7.53286C55.1075 5.8078 56.3166 3.79523 58.8499 3.79523C59.8286 3.79523 60.7354 4.19774 61.2536 4.9884H61.2824V3.99649H62.6066V11.0405H61.2824V11.0261ZM58.8642 5.00277C57.2378 5.00277 56.4461 6.41157 56.4461 7.51848C56.4461 8.7979 57.4537 10.0054 58.8499 10.0054C60.2173 10.0054 61.3112 8.89853 61.3112 7.53286V7.51848C61.3112 6.00906 60.2317 5.00277 58.8642 5.00277Z" fill="white"></path>
  <path d="M95.4388 3.88143C96.0433 3.85268 96.5471 4.32707 96.5759 4.91647C96.6047 5.52024 96.1297 6.02338 95.5395 6.05213C95.5107 6.05213 95.482 6.05213 95.4532 6.05213C94.8486 6.08088 94.3448 5.60649 94.3161 5.01709C94.2873 4.41332 94.7623 3.91018 95.3524 3.88143C95.3668 3.88143 95.41 3.88143 95.4388 3.88143ZM95.4244 4.11144C94.9494 4.14019 94.5751 4.5427 94.6039 5.01709C94.6327 5.46273 94.9926 5.82212 95.4388 5.8365C95.8994 5.8365 96.2736 5.46274 96.2592 5.00272C96.2592 4.98835 96.2592 4.98834 96.2592 4.97397C96.2736 4.51395 95.9138 4.12581 95.4532 4.09706C95.4388 4.11144 95.4388 4.11144 95.4244 4.11144ZM95.2517 5.53461H95.007V4.45645C95.1509 4.44207 95.2804 4.4277 95.4244 4.4277C95.5539 4.41333 95.6835 4.44207 95.7986 4.51395C95.8706 4.57145 95.9138 4.65771 95.9138 4.74396C95.8994 4.87334 95.813 4.97397 95.6835 5.00272V5.01709C95.7842 5.04584 95.8418 5.1321 95.885 5.27585C95.8994 5.36211 95.9282 5.46273 95.9713 5.53461H95.7123C95.6691 5.44836 95.6403 5.36211 95.6259 5.27585C95.6115 5.16085 95.5395 5.11772 95.3956 5.11772H95.2804L95.2517 5.53461ZM95.2517 4.91647H95.3668C95.5107 4.91647 95.6115 4.87334 95.6115 4.75834C95.6115 4.64333 95.5395 4.6002 95.3812 4.6002C95.338 4.6002 95.2948 4.60021 95.2373 4.61458V4.91647H95.2517Z" fill="white"></path>
</svg>
