<svg width="114" height="32" viewBox="0 0 114 32" fill="none" xmlns="http://www.w3.org/2000/svg">
<path d="M26.7414 5.56988L26.9033 6.51776C26.9033 6.57192 27.0652 7.60108 27.0652 9.19889C27.0652 10.7155 26.9303 12.8009 26.3637 15.0758C25.8241 17.2424 24.8527 19.8423 23.0988 22.388C21.3449 24.9338 18.7816 27.4253 15.0849 29.4294L14.6262 29.6731L14.1676 29.4294C10.4439 27.4253 7.90753 24.9066 6.15368 22.388C4.39981 19.8423 3.42844 17.2695 2.88878 15.0758C2.32215 12.8009 2.18723 10.7155 2.18723 9.19889C2.18723 7.60108 2.34913 6.57192 2.34913 6.51776L2.51103 5.56988C2.56499 5.24489 2.34913 4.94698 2.02534 4.89282C1.70155 4.83865 1.40474 5.05531 1.35077 5.3803L1.18888 6.32818C1.16189 6.43651 1 7.51979 1 9.19889C1 10.7968 1.16189 12.9634 1.75551 15.3737C2.26819 17.6757 3.29353 20.411 5.15533 23.0922C7.01713 25.7733 9.71538 28.4274 13.6009 30.5127L14.3295 30.919C14.5183 31.0273 14.7072 31.0273 14.8961 30.919L15.6246 30.5127C19.5101 28.4274 22.2084 25.7733 24.0701 23.0922C25.9319 20.411 26.9573 17.6757 27.524 15.4008C28.1176 12.9905 28.2795 10.8509 28.2795 9.22597C28.2795 7.54687 28.1176 6.46359 28.0906 6.35526L27.9287 5.40738C27.8747 5.08239 27.5779 4.86573 27.2541 4.9199C26.9033 4.94698 26.6875 5.24489 26.7414 5.56988Z" fill="#E1E3FE" stroke="#E1E3FE" stroke-width="0.378135" stroke-miterlimit="10"/>
<path d="M5.75356 4.92017L14.6308 2.21193L23.697 5.00142C24.0208 5.10975 24.3446 4.92017 24.4525 4.59519C24.5605 4.2702 24.3716 3.9452 24.0478 3.83687L14.7927 1.02031C14.6848 0.993228 14.5499 0.993228 14.442 1.02031L5.40279 3.78272C5.07899 3.89104 4.9171 4.21603 4.99805 4.54102C5.10598 4.83893 5.42977 5.0285 5.75356 4.92017Z" fill="#E1E3FE" stroke="#E1E3FE" stroke-width="0.378135" stroke-miterlimit="10"/>
<path d="M1.37866 5.76037L14.0875 30.649C14.1954 30.8386 14.3843 30.974 14.6001 30.974C14.816 30.974 15.0319 30.8657 15.1398 30.649L22.8838 16.1058V16.0787L27.8756 5.73329C28.0105 5.43538 27.9026 5.08331 27.6058 4.9479C27.309 4.81249 26.9582 4.92082 26.8233 5.21872L21.8315 15.5642L14.6271 29.1054L2.43099 5.21872C2.26909 4.92082 1.91832 4.81249 1.6215 4.9479C1.35168 5.11039 1.21677 5.46246 1.37866 5.76037Z" fill="#E1E3FE" stroke="#E1E3FE" stroke-width="0.378135" stroke-miterlimit="10"/>
<path d="M7.45043 16.8361H21.5894C21.9131 16.8361 22.1829 16.5653 22.1829 16.2403C22.1829 15.9153 21.9131 15.6445 21.5894 15.6445H7.45043C7.12664 15.6445 6.85681 15.9153 6.85681 16.2403C6.85681 16.5653 7.12664 16.8361 7.45043 16.8361Z" fill="#E1E3FE" stroke="#E1E3FE" stroke-width="0.378135" stroke-miterlimit="10"/>
<path d="M43.7231 7.47527C43.7231 8.17143 43.5974 8.77301 43.346 9.28002C43.0946 9.7871 42.7496 10.1781 42.3112 10.4531C41.8729 10.7281 41.3722 10.8657 40.8091 10.8657C40.2461 10.8657 39.7454 10.7281 39.307 10.4531C38.8686 10.1781 38.5237 9.7871 38.2722 9.28002C38.0208 8.77301 37.8951 8.17143 37.8951 7.47527C37.8951 6.77919 38.0208 6.1776 38.2722 5.67056C38.5237 5.16351 38.8686 4.77248 39.307 4.49747C39.7454 4.22246 40.2461 4.08496 40.8091 4.08496C41.3722 4.08496 41.8729 4.22246 42.3112 4.49747C42.7496 4.77248 43.0946 5.16351 43.346 5.67056C43.5974 6.1776 43.7231 6.77919 43.7231 7.47527ZM42.9495 7.47527C42.9495 6.9038 42.8539 6.42146 42.6626 6.02828C42.4735 5.63511 42.2167 5.33754 41.8922 5.13558C41.5699 4.93362 41.2088 4.83264 40.8091 4.83264C40.4094 4.83264 40.0473 4.93362 39.7228 5.13558C39.4005 5.33754 39.1436 5.63511 38.9524 6.02828C38.7633 6.42146 38.6688 6.9038 38.6688 7.47527C38.6688 8.04678 38.7633 8.52915 38.9524 8.9223C39.1436 9.31552 39.4005 9.61309 39.7228 9.81502C40.0473 10.017 40.4094 10.118 40.8091 10.118C41.2088 10.118 41.5699 10.017 41.8922 9.81502C42.2167 9.61309 42.4735 9.31552 42.6626 8.9223C42.8539 8.52915 42.9495 8.04678 42.9495 7.47527ZM51.3915 4.1752V10.7754H50.6178L47.0205 5.59321H46.956V10.7754H46.1566V4.1752H46.9302L50.5405 9.3703H50.605V4.1752H51.3915ZM57.7226 10.7754V4.1752H60.0306C60.4905 4.1752 60.8698 4.25469 61.1686 4.41368C61.4672 4.57052 61.6897 4.78215 61.8358 5.04856C61.9819 5.31283 62.055 5.6061 62.055 5.92838C62.055 6.21198 62.0045 6.44617 61.9034 6.63094C61.8046 6.81571 61.6735 6.96181 61.5102 7.06924C61.349 7.17666 61.1739 7.25615 60.9848 7.30772V7.37218C61.1868 7.38506 61.3899 7.45599 61.594 7.58485C61.7982 7.71378 61.969 7.89857 62.1066 8.13921C62.2441 8.37986 62.3128 8.67415 62.3128 9.02223C62.3128 9.35309 62.2377 9.65066 62.0872 9.91495C61.9368 10.1792 61.6993 10.3887 61.3748 10.5434C61.0503 10.698 60.6281 10.7754 60.108 10.7754H57.7226ZM58.5221 10.0664H60.108C60.6302 10.0664 61.0009 9.96546 61.2201 9.76345C61.4415 9.55938 61.5521 9.3123 61.5521 9.02223C61.5521 8.79879 61.4951 8.5925 61.3812 8.40343C61.2674 8.21221 61.1051 8.05971 60.8945 7.94585C60.6839 7.82978 60.4347 7.77178 60.1467 7.77178H58.5221V10.0664ZM58.5221 7.07568H60.0049C60.2456 7.07568 60.4626 7.02842 60.656 6.93388C60.8515 6.83935 61.0063 6.70614 61.1202 6.53426C61.2362 6.36238 61.2942 6.16042 61.2942 5.92838C61.2942 5.63833 61.1932 5.39232 60.9912 5.19036C60.7892 4.98625 60.469 4.8842 60.0306 4.8842H58.5221V7.07568ZM70.2858 7.47527C70.2858 8.17143 70.1601 8.77301 69.9087 9.28002C69.6572 9.7871 69.3123 10.1781 68.8739 10.4531C68.4355 10.7281 67.9348 10.8657 67.3718 10.8657C66.8088 10.8657 66.308 10.7281 65.8696 10.4531C65.4313 10.1781 65.0864 9.7871 64.835 9.28002C64.5835 8.77301 64.4578 8.17143 64.4578 7.47527C64.4578 6.77919 64.5835 6.1776 64.835 5.67056C65.0864 5.16351 65.4313 4.77248 65.8696 4.49747C66.308 4.22246 66.8088 4.08496 67.3718 4.08496C67.9348 4.08496 68.4355 4.22246 68.8739 4.49747C69.3123 4.77248 69.6572 5.16351 69.9087 5.67056C70.1601 6.1776 70.2858 6.77919 70.2858 7.47527ZM69.5122 7.47527C69.5122 6.9038 69.4165 6.42146 69.2253 6.02828C69.0362 5.63511 68.7794 5.33754 68.4549 5.13558C68.1325 4.93362 67.7715 4.83264 67.3718 4.83264C66.9721 4.83264 66.61 4.93362 66.2855 5.13558C65.9632 5.33754 65.7063 5.63511 65.5151 6.02828C65.326 6.42146 65.2314 6.9038 65.2314 7.47527C65.2314 8.04678 65.326 8.52915 65.5151 8.9223C65.7063 9.31552 65.9632 9.61309 66.2855 9.81502C66.61 10.017 66.9721 10.118 67.3718 10.118C67.7715 10.118 68.1325 10.017 68.4549 9.81502C68.7794 9.61309 69.0362 9.31552 69.2253 8.9223C69.4165 8.52915 69.5122 8.04678 69.5122 7.47527ZM72.6799 10.7754H71.8419L74.266 4.1752H75.0912L77.5146 10.7754H76.6766L74.704 5.21937H74.6525L72.6799 10.7754ZM72.9893 8.19721H76.3672V8.90622H72.9893V8.19721ZM79.6323 10.7754V4.1752H81.8635C82.3786 4.1752 82.8023 4.26329 83.1331 4.43946C83.4639 4.61349 83.7089 4.85305 83.8683 5.15814C84.0269 5.46323 84.1069 5.81021 84.1069 6.19909C84.1069 6.58797 84.0269 6.93281 83.8683 7.2336C83.7089 7.53442 83.4653 7.77071 83.1367 7.94264C82.8073 8.11235 82.3872 8.19721 81.8764 8.19721H80.0709V7.47527H81.8499C82.2029 7.47527 82.4865 7.42374 82.7016 7.32061C82.918 7.21748 83.0752 7.07139 83.1717 6.88231C83.271 6.6911 83.3203 6.46336 83.3203 6.19909C83.3203 5.93483 83.271 5.70386 83.1717 5.5062C83.0731 5.30853 82.9152 5.15599 82.698 5.04856C82.4808 4.93899 82.1943 4.8842 81.8371 4.8842H80.4317V10.7754H79.6323ZM82.7401 7.81049L84.3648 10.7754H83.436L81.8371 7.81049H82.7401ZM88.5651 10.7754H86.5282V4.1752H88.6558C89.2959 4.1752 89.8439 4.30733 90.2998 4.5716C90.7549 4.83372 91.1042 5.21078 91.3471 5.70279C91.59 6.19264 91.7115 6.77919 91.7115 7.46242C91.7115 8.14993 91.5886 8.74186 91.3436 9.23816C91.0992 9.73231 90.742 10.1126 90.274 10.379C89.8053 10.6433 89.2359 10.7754 88.5651 10.7754ZM87.3276 10.0664H88.5136C89.0595 10.0664 89.5117 9.9611 89.8711 9.75059C90.2297 9.54002 90.4969 9.2403 90.6734 8.85144C90.8499 8.46257 90.9378 7.99957 90.9378 7.46242C90.9378 6.92959 90.8506 6.47088 90.677 6.08629C90.5027 5.69957 90.2426 5.40307 89.8968 5.19681C89.5503 4.9884 89.1195 4.8842 88.6036 4.8842H87.3276V10.0664Z" fill="#E1E3FE" stroke="#E1E3FE" stroke-width="0.189864" stroke-miterlimit="10"/>
<path d="M99.1283 9.71547C100.312 9.71547 101.271 8.75607 101.271 7.57258C101.271 6.38909 100.312 5.42969 99.1283 5.42969C97.9449 5.42969 96.9855 6.38909 96.9855 7.57258C96.9855 8.75607 97.9449 9.71547 99.1283 9.71547Z" fill="#40B884"/>
<path d="M99.1283 9.71547C100.312 9.71547 101.271 8.75607 101.271 7.57258C101.271 6.38909 100.312 5.42969 99.1283 5.42969C97.9449 5.42969 96.9855 6.38909 96.9855 7.57258C96.9855 8.75607 97.9449 9.71547 99.1283 9.71547Z" fill="#40B884"/>
<path d="M46.5912 17.7842H38.8914C38.7559 17.7842 38.643 17.8296 38.5301 17.9429C38.4398 18.0336 38.372 18.1695 38.372 18.3055V24.4927C38.372 24.6287 38.4172 24.742 38.5301 24.8553C38.6205 24.946 38.7559 25.014 38.8914 25.014H46.5912V26.0565H38.8914C38.4624 26.0565 38.1011 25.8978 37.8076 25.6032C37.514 25.3086 37.356 24.946 37.356 24.5154V18.2829C37.356 17.8522 37.514 17.4896 37.8076 17.195C38.1011 16.9003 38.4624 16.7417 38.8914 16.7417H46.5912V17.7842Z" fill="#E1E3FE" stroke="#E1E3FE" stroke-width="0.189864" stroke-miterlimit="10"/>
<path d="M61.0467 16.7417V17.7842H53.6404V20.8665H59.6016V21.9317H53.6404V25.014H61.0467V26.0565H52.6017V16.7644H61.0467V16.7417Z" fill="#E1E3FE" stroke="#E1E3FE" stroke-width="0.189864" stroke-miterlimit="10"/>
<path d="M76.308 18.2829V21.0025C76.308 21.4331 76.1501 21.7957 75.8565 22.0904C75.5628 22.385 75.202 22.5436 74.7727 22.5436H73.3502L76.263 26.0112H74.8855L71.9727 22.5663H68.5857C68.518 22.5663 68.3373 22.5436 68.089 22.5209V26.0338H67.0503V16.7417H74.7727C75.202 16.7417 75.5628 16.9003 75.8565 17.195C76.1501 17.4896 76.308 17.8522 76.308 18.2829ZM68.5857 21.5011H74.7498C74.8855 21.5011 74.9984 21.4558 75.0892 21.3651C75.1792 21.2745 75.2242 21.1611 75.2242 21.0251V18.3055C75.2242 18.1695 75.1792 18.0562 75.0892 17.9429C74.9984 17.8522 74.8855 17.7842 74.7498 17.7842H68.5857C68.4503 17.7842 68.3373 17.8296 68.2244 17.9429C68.1341 18.0336 68.0664 18.1695 68.0664 18.3055V21.0251C68.0664 21.1611 68.1115 21.2745 68.2244 21.3651C68.3147 21.4558 68.4503 21.5011 68.5857 21.5011Z" fill="#E1E3FE" stroke="#E1E3FE" stroke-width="0.189864" stroke-miterlimit="10"/>
<path d="M81.8389 16.7417H91.0967V17.7842H86.9865V26.0338H85.9484V17.7842H81.8389V16.7417Z" fill="#E1E3FE" stroke="#E1E3FE" stroke-width="0.189864" stroke-miterlimit="10"/>
<path d="M96.6978 26.0338V16.7417H97.7356V26.0338H96.6978Z" fill="#E1E3FE" stroke="#E1E3FE" stroke-width="0.189864" stroke-miterlimit="10"/>
<path d="M111.645 16.7417H112.978L109.116 21.3878L113 26.0338H111.645L108.19 21.9091H105.21V26.0338H104.149V16.7417H105.21V20.8665H108.19L111.645 16.7417Z" fill="#E1E3FE" stroke="#E1E3FE" stroke-width="0.189864" stroke-miterlimit="10"/>
</svg>
