<svg width="40" height="40" viewBox="0 0 40 40" fill="none" xmlns="http://www.w3.org/2000/svg">
<g filter="url(#filter0_d_419_18079)">
<path fill-rule="evenodd" clip-rule="evenodd" d="M20.1962 24.8014L21.3837 27.9172H23.4743C23.5937 27.4055 24.0649 27.0234 24.6245 27.0234C25.2752 27.0234 25.8047 27.5378 25.8047 28.174C25.8047 28.811 25.277 29.3245 24.6245 29.3245C24.0622 29.3245 23.5928 28.9425 23.4743 28.4307H21.2042C21.0948 28.4307 20.9964 28.3623 20.959 28.2646L19.6385 24.8049H20.1962L20.1962 24.8014ZM24.6244 10.4402C25.2751 10.4402 25.8046 10.9546 25.8046 11.5907C25.8046 12.2278 25.2769 12.7413 24.6244 12.7413C24.0621 12.7413 23.5927 12.3593 23.4743 11.8475H21.3836L20.1962 14.9633H19.6384L20.959 11.5036C20.9963 11.4032 21.0938 11.3375 21.2041 11.3375H23.4743C23.5937 10.8257 24.0648 10.4437 24.6244 10.4437L24.6244 10.4402ZM29.2833 13.4129C28.7209 13.4129 28.2516 13.795 28.1331 14.3067H26.4954C26.4089 14.3067 26.3278 14.3502 26.2785 14.4204L24.5752 16.8948H23.5281V17.4066H24.7128C24.8113 17.4066 24.8969 17.3542 24.9416 17.2751L26.633 14.8184H28.1313C28.2507 15.3302 28.7218 15.7122 29.2814 15.7122C29.9321 15.7122 30.4616 15.1978 30.4616 14.5617C30.4616 13.9246 29.934 13.4111 29.2814 13.4111L29.2833 13.4129ZM29.2833 24.0488C28.7301 24.0488 28.2662 24.4193 28.1377 24.9221L26.6166 24.8884L24.9115 22.4097C24.8623 22.3395 24.7812 22.2933 24.6873 22.2959L23.5281 22.3235V22.8326L24.5542 22.8077L26.2548 25.2803C26.3059 25.3531 26.3879 25.394 26.4745 25.394L28.1258 25.4331C28.2352 25.9582 28.7118 26.3518 29.2832 26.3518C29.9339 26.3518 30.4634 25.8374 30.4634 25.2012C30.4634 24.5642 29.9358 24.0506 29.2832 24.0506L29.2833 24.0488ZM29.2833 18.8496C29.934 18.8496 30.4635 19.364 30.4635 20.0001C30.4635 20.6372 29.9358 21.1507 29.2833 21.1507C28.679 21.1507 28.1823 20.7074 28.1122 20.1388H23.5298V19.627H28.1677C28.3263 19.1748 28.7674 18.8514 29.2832 18.8514L29.2833 18.8496ZM15.5812 27.2242C15.6305 27.3557 15.5575 27.5041 15.4227 27.552C15.2878 27.6 15.1356 27.5289 15.0864 27.3974C14.9205 26.9452 14.6316 26.572 14.2789 26.3126C13.9244 26.0514 13.5043 25.9057 13.0823 25.9102C12.9374 25.9102 12.8208 25.7991 12.819 25.6578C12.819 25.5166 12.9329 25.4028 13.0778 25.4011C13.3229 25.3984 13.5653 25.4348 13.7986 25.5059C13.8807 25.0643 14.0666 24.653 14.3327 24.3162C14.6617 23.8951 15.1147 23.5859 15.646 23.4544C15.7863 23.4207 15.9285 23.5042 15.9631 23.641C15.9977 23.7778 15.9121 23.9164 15.7717 23.9502C15.3607 24.0524 15.0062 24.2958 14.7474 24.6281C14.5068 24.9328 14.3482 25.3104 14.2926 25.7174C14.3956 25.7742 14.4959 25.8382 14.5934 25.9084C15.0254 26.2264 15.3771 26.6796 15.5776 27.2278L15.5812 27.2242ZM11.9468 23.7893C12.0917 23.8053 12.1938 23.9323 12.1756 24.0736C12.1592 24.2148 12.0288 24.3144 11.8839 24.2966C11.0045 24.1944 10.2371 23.7306 9.73498 23.0545C9.50623 23.5272 9.47797 24.0691 9.63655 24.556C9.76231 24.947 10.0029 25.2952 10.3365 25.5387C10.4905 25.6497 10.6655 25.7386 10.8587 25.7999C10.9799 25.8292 11.0665 25.9411 11.0573 26.0664C11.0154 26.6102 11.1922 27.1468 11.5358 27.5448C11.9532 28.029 12.5857 28.2636 13.2245 28.1383C13.3321 28.1179 13.4342 28.0886 13.5326 28.0495C13.7258 27.9651 13.9108 28.1037 13.9108 28.2796C13.9108 29.6052 14.8577 30.4635 16.16 30.4635C17.4614 30.4635 18.4438 29.272 18.4438 27.9643C18.4438 26.6565 17.4687 25.4651 16.16 25.4651C16.0151 25.4651 15.8984 25.3513 15.8984 25.2101C15.8984 25.0688 16.0151 24.9551 16.16 24.9551C17.1023 24.9551 17.938 25.4642 18.4438 26.222L18.4347 15.643C18.2433 15.3631 18.0128 15.1108 17.753 14.9012C17.4823 14.6826 17.1789 14.5102 16.8599 14.3965C16.725 14.3485 16.6549 14.2028 16.7032 14.0687C16.7524 13.9372 16.9018 13.8687 17.0394 13.9158C17.5717 14.1042 18.0474 14.4205 18.4365 14.823V11.7888C18.4365 10.895 17.9399 10.1309 17.1087 9.75069C16.9246 9.66629 16.7332 9.60498 16.5346 9.56855C15.8183 9.4415 14.9315 9.70538 14.3482 10.1505C14.0238 10.3984 13.7531 10.7236 13.5782 11.1376C13.919 11.2104 14.227 11.3881 14.4667 11.6378C14.7839 11.9656 14.9889 12.4205 15.0172 12.9252C15.0245 13.0664 14.9142 13.1846 14.7702 13.1935C14.6253 13.2006 14.5041 13.0931 14.495 12.9527C14.474 12.5724 14.32 12.2313 14.084 11.9887C13.5845 11.4743 12.8145 11.4885 12.3314 12.018C11.9304 12.4596 11.8366 13.1349 12.0845 13.6848C13.9345 13.412 15.5887 14.8016 15.6634 16.6257C15.6679 16.767 15.5558 16.8851 15.4118 16.8896C15.2669 16.894 15.1457 16.7847 15.1412 16.6444C15.0856 15.277 13.9582 14.1602 12.5466 14.1602C11.1349 14.1602 9.95012 15.3365 9.95012 16.7554C9.95012 17.4786 10.2582 18.1947 10.7968 18.6727C10.9207 18.782 10.9161 18.9747 10.7731 19.0734C10.0686 19.5576 9.64846 20.3519 9.64846 21.211C9.64846 22.5162 10.6282 23.6356 11.9441 23.7875L11.9468 23.7893ZM12.1446 21.9875C12.0024 21.967 11.9021 21.8373 11.9231 21.6987C11.9441 21.5601 12.0771 21.4624 12.2193 21.4828C12.6349 21.5423 13.0386 21.4464 13.3785 21.2376C13.6583 21.0644 13.9007 20.8165 14.0739 20.5117C13.446 20.3074 12.9539 19.8525 12.6577 19.2723C12.2895 18.5562 12.2403 17.6873 12.5547 16.9135C12.6085 16.7838 12.7597 16.718 12.8928 16.7704C13.0259 16.8229 13.0933 16.9703 13.0395 17.1C12.7825 17.7326 12.8226 18.4576 13.1234 19.0422C13.6556 20.0746 14.8804 20.4505 15.8201 19.7726C15.9368 19.6881 16.0999 19.713 16.1865 19.825C16.2731 19.9387 16.2476 20.0977 16.1327 20.1821C15.6917 20.5002 15.1549 20.6601 14.6071 20.6166C14.3875 21.0599 14.0539 21.4242 13.6575 21.665C13.2118 21.9378 12.6869 22.0604 12.1456 21.9831L12.1446 21.9875ZM21.9133 15.4716C22.5148 15.4716 23.0051 15.9496 23.0051 16.5359V23.2252C23.0051 23.8115 22.5148 24.2895 21.9133 24.2895H18.9669V23.1319H20.9008C21.4075 23.1319 21.8176 22.7294 21.8176 22.2381V17.5231C21.8176 17.0291 21.4048 16.6293 20.9008 16.6293H18.9596V15.4716L21.9133 15.4716ZM18.9597 17.141L18.9642 22.6229H20.8981C21.115 22.6229 21.2927 22.4497 21.2927 22.2382V17.5232C21.2927 17.3118 21.115 17.1385 20.8981 17.1385H18.9569L18.9597 17.141Z" fill="#EBEBEB"/>
</g>
</svg>
