<svg width="29" height="32" viewBox="0 0 29 32" fill="none" xmlns="http://www.w3.org/2000/svg">
<g filter="url(#filter0_d_316_7862)">
<path d="M14.9079 6.91923C15.0178 6.77491 15.0947 6.60357 15.0947 6.40862C15.0947 5.93532 14.7097 5.54999 14.2361 5.54999C13.7624 5.54999 13.3774 5.93532 13.3774 6.40862C13.3774 6.60362 13.4544 6.77504 13.5643 6.91936C13.894 7.33979 14.5797 7.33966 14.9079 6.91923Z" fill="#EBEBEB"/>
<path d="M21.5569 10.943C21.5256 11.0319 21.5001 11.124 21.5001 11.2234C21.5001 11.6967 21.8851 12.082 22.3588 12.082C22.8324 12.082 23.2174 11.6967 23.2174 11.2234C23.2174 10.7501 22.8324 10.3647 22.3588 10.3647C22.0264 10.3647 21.7459 10.5601 21.6032 10.8369C21.585 10.8718 21.57 10.9072 21.5569 10.943Z" fill="#EBEBEB"/>
<path d="M21.5001 20.7767C21.5001 20.8761 21.5256 20.9682 21.5569 21.0571C21.57 21.0928 21.585 21.1283 21.6032 21.1632C21.7459 21.4399 22.0264 21.6353 22.3588 21.6353C22.8324 21.6353 23.2174 21.25 23.2174 20.7767C23.2174 20.3034 22.8324 19.918 22.3588 19.918C21.8851 19.918 21.5001 20.3034 21.5001 20.7767Z" fill="#EBEBEB"/>
<path d="M21.0197 19.3746C21.0966 19.3012 21.1799 19.2346 21.268 19.1744C21.2854 19.1625 21.3048 19.154 21.3227 19.1427C21.4019 19.0923 21.4841 19.0467 21.5707 19.008C21.6072 18.9916 21.6451 18.9794 21.6827 18.9653C21.728 18.9483 21.7714 18.9273 21.8182 18.9137V13.0862C21.7714 13.0727 21.728 13.0517 21.6827 13.0347C21.6451 13.0206 21.6072 13.0083 21.5707 12.992C21.4841 12.9533 21.4019 12.9077 21.3227 12.8572C21.3048 12.8459 21.2854 12.8374 21.268 12.8255C21.1799 12.7654 21.0966 12.6988 21.0197 12.6253L16.8934 15.0864C16.9929 15.3745 17.0584 15.6785 17.0584 16C17.0584 16.3215 16.9929 16.6255 16.8934 16.9136L21.0197 19.3746Z" fill="#EBEBEB"/>
<path d="M11.4139 15.9999C11.4139 15.6793 11.4792 15.3761 11.5781 15.0887L7.39915 12.6236C7.32182 12.6976 7.23816 12.7649 7.14944 12.8255C7.13202 12.8373 7.11258 12.8458 7.09476 12.8571C7.0155 12.9076 6.93328 12.9532 6.84676 12.9919C6.81025 13.0082 6.77229 13.0205 6.73468 13.0346C6.68937 13.0516 6.64605 13.0726 6.59924 13.0862V18.9136C6.64605 18.9272 6.68937 18.9482 6.73468 18.9652C6.77229 18.9793 6.81025 18.9916 6.84676 19.0079C6.93328 19.0466 7.0155 19.0922 7.09476 19.1427C7.11258 19.154 7.13202 19.1625 7.14944 19.1743C7.23816 19.2349 7.32182 19.3022 7.39915 19.3762L11.5781 16.9111C11.4792 16.6237 11.4139 16.3205 11.4139 15.9999Z" fill="#EBEBEB"/>
<path d="M14.2363 17.7412C15.198 17.7412 15.9775 16.9616 15.9775 16C15.9775 15.0383 15.198 14.2588 14.2363 14.2588C13.2747 14.2588 12.4951 15.0383 12.4951 16C12.4951 16.9616 13.2747 17.7412 14.2363 17.7412Z" fill="#EBEBEB"/>
<path d="M6.91734 11.2234C6.91734 11.124 6.89183 11.0319 6.8606 10.943C6.84745 10.9072 6.83245 10.8718 6.81424 10.8369C6.67158 10.5601 6.39108 10.3647 6.05871 10.3647C5.58505 10.3647 5.20007 10.7501 5.20007 11.2234C5.20007 11.6967 5.58505 12.082 6.05871 12.082C6.53236 12.082 6.91734 11.6967 6.91734 11.2234Z" fill="#EBEBEB"/>
<path d="M13.5643 25.0807C13.4544 25.225 13.3774 25.3964 13.3774 25.5914C13.3774 26.0647 13.7624 26.4501 14.2361 26.4501C14.7097 26.4501 15.0947 26.0647 15.0947 25.5914C15.0947 25.3965 15.0178 25.2252 14.9079 25.0808C14.5797 24.6604 13.894 24.6603 13.5643 25.0807Z" fill="#EBEBEB"/>
<path d="M14.2362 23.6515C14.7535 23.6515 15.2215 23.8581 15.5696 24.1893L20.4831 21.2614C20.4808 21.2526 20.4817 21.2433 20.4795 21.2345C20.4435 21.0869 20.419 20.935 20.419 20.7765C20.419 20.6529 20.4333 20.5329 20.4555 20.4156C20.4622 20.3801 20.473 20.3465 20.4816 20.3118L16.3514 17.8484C15.8337 18.4401 15.0822 18.8221 14.2362 18.8221C13.3893 18.8221 12.6373 18.4393 12.1195 17.8467L7.93655 20.3141C7.94496 20.3481 7.95538 20.3809 7.96193 20.4156C7.98415 20.5329 7.9984 20.6529 7.9984 20.7765C7.9984 20.9341 7.9743 21.0852 7.93867 21.232C7.93642 21.2411 7.93743 21.2506 7.93506 21.2597L12.9006 24.1911C13.2489 23.8587 13.7178 23.6515 14.2362 23.6515Z" fill="#EBEBEB"/>
<path d="M7.9984 11.2235C7.9984 11.3471 7.98415 11.4671 7.96193 11.5844C7.95538 11.619 7.94496 11.6519 7.93655 11.6859L12.1195 14.1533C12.6373 13.5606 13.3893 13.1779 14.2362 13.1779C15.0822 13.1779 15.8337 13.5599 16.3514 14.1516L20.4816 11.6882C20.473 11.6534 20.4622 11.6198 20.4555 11.5844C20.4333 11.4671 20.419 11.3471 20.419 11.2235C20.419 11.0649 20.4435 10.913 20.4795 10.7655C20.4817 10.7566 20.4808 10.7473 20.4831 10.7385L15.5696 7.81066C15.2215 8.14184 14.7535 8.34845 14.2362 8.34845C13.7178 8.34845 13.2489 8.14122 12.9006 7.8089L7.93506 10.7403C7.93743 10.7494 7.93642 10.7589 7.93867 10.7679C7.9743 10.9148 7.9984 11.0659 7.9984 11.2235Z" fill="#EBEBEB"/>
<path d="M6.8606 21.0571C6.89183 20.9682 6.91734 20.8761 6.91734 20.7767C6.91734 20.3034 6.53236 19.918 6.05871 19.918C5.58505 19.918 5.20007 20.3034 5.20007 20.7767C5.20007 21.25 5.58505 21.6353 6.05871 21.6353C6.39108 21.6353 6.67158 21.4399 6.81424 21.1632C6.83245 21.1283 6.84745 21.0928 6.8606 21.0571Z" fill="#EBEBEB"/>
</g>
<defs>
<filter id="filter0_d_316_7862" x="0.360073" y="0.709988" width="27.6973" height="30.5801" filterUnits="userSpaceOnUse" color-interpolation-filters="sRGB">
<feFlood flood-opacity="0" result="BackgroundImageFix"/>
<feColorMatrix in="SourceAlpha" type="matrix" values="0 0 0 0 0 0 0 0 0 0 0 0 0 0 0 0 0 0 127 0" result="hardAlpha"/>
<feOffset/>
<feGaussianBlur stdDeviation="2.42"/>
<feComposite in2="hardAlpha" operator="out"/>
<feColorMatrix type="matrix" values="0 0 0 0 1 0 0 0 0 1 0 0 0 0 1 0 0 0 0.25 0"/>
<feBlend mode="normal" in2="BackgroundImageFix" result="effect1_dropShadow_316_7862"/>
<feBlend mode="normal" in="SourceGraphic" in2="effect1_dropShadow_316_7862" result="shape"/>
</filter>
</defs>
</svg>
