<svg width="52" height="52" viewBox="0 0 52 52" fill="none" xmlns="http://www.w3.org/2000/svg">
<g filter="url(#filter0_d_419_18085)">
<path d="M32.8291 24.9616H31.3214C31.0027 24.9616 30.7439 25.2223 30.7439 25.5433V27.4548H29.5064V25.1382L30.3314 23.8064C30.3995 23.8148 30.4685 23.82 30.5376 23.821C31.2822 23.8231 31.9298 23.3088 32.1021 22.5796C32.2743 21.8503 31.9267 21.0972 31.2626 20.7606C30.5975 20.4241 29.79 20.5913 29.3125 21.1658C28.834 21.7392 28.8103 22.5702 29.2548 23.1707L28.2689 24.785V27.4547H26.6189V19.7487C27.3222 19.4516 27.7192 18.6964 27.5697 17.9443C27.4192 17.1911 26.7622 16.6499 26.0002 16.6499C25.2381 16.6499 24.5812 17.1911 24.4306 17.9443C24.2811 18.6964 24.6781 19.4516 25.3814 19.7487V27.4547H23.7314V24.785L22.7455 23.1707C23.1879 22.5713 23.1632 21.7434 22.6868 21.172C22.2093 20.5996 21.4039 20.4324 20.7418 20.769C20.0787 21.1045 19.7322 21.8545 19.9044 22.5817C20.0756 23.3089 20.7212 23.8221 21.4626 23.821C21.5317 23.82 21.6008 23.8148 21.6689 23.8065L22.4939 25.1382V27.4548H21.2564V25.5434C21.2564 25.2224 20.9975 24.9616 20.6789 24.9616H19.1712C17.4748 24.9616 16.1001 26.3464 16.1001 28.0553V32.2563C16.1001 33.9651 17.4747 35.3499 19.1712 35.3499H32.829C34.5254 35.3499 35.9001 33.9652 35.9001 32.2563V28.0553C35.9001 26.3464 34.5255 24.9616 32.8291 24.9616ZM28.0625 32.4411C27.5624 32.4411 27.1107 32.1377 26.9189 31.6713C26.7281 31.2059 26.8333 30.6699 27.187 30.3125C27.5418 29.9562 28.0739 29.8503 28.5359 30.0424C28.9989 30.2357 29.3 30.6907 29.3 31.1945C29.3 31.8832 28.7463 32.4411 28.0625 32.4411ZM31.7749 32.4411C31.2748 32.4411 30.8231 32.1377 30.6313 31.6713C30.4405 31.2059 30.5457 30.6699 30.8994 30.3125C31.2542 29.9562 31.7863 29.8503 32.2483 30.0424C32.7113 30.2357 33.0124 30.6907 33.0124 31.1945C33.0124 31.8832 32.4586 32.4411 31.7749 32.4411Z" fill="#EBEBEB"/>
</g>
</svg>
