<svg width="52" height="54" viewBox="0 0 52 54" fill="none" xmlns="http://www.w3.org/2000/svg">
<g filter="url(#filter0_d_459_44880)">
<path fill-rule="evenodd" clip-rule="evenodd" d="M33.7479 25.5779V21.5882L26.0001 18.1522L18.2523 21.5882V25.5779C18.2523 30.2823 21.4474 34.381 26.0001 35.5344C30.5528 34.381 33.7479 30.2823 33.7479 25.5779ZM17.3798 19.6208C16.6017 19.9658 16.1001 20.737 16.1001 21.5882V25.5779C16.1001 31.3052 20.0154 36.2902 25.5795 37.6474C25.8559 37.7149 26.1443 37.7149 26.4207 37.6474C31.9848 36.2902 35.9001 31.3052 35.9001 25.5779V21.5882C35.9001 20.737 35.3984 19.9658 34.6204 19.6208L26.8726 16.1848C26.317 15.9384 25.6832 15.9384 25.1276 16.1848L17.3798 19.6208Z" fill="#EBEBEB"/>
<path d="M27.0759 26.9163C27.7192 26.5442 28.152 25.8487 28.152 25.0521C28.152 23.8635 27.1884 22.8999 25.9998 22.8999C24.8112 22.8999 23.8477 23.8635 23.8477 25.0521C23.8477 25.8487 24.2805 26.5442 24.9237 26.9163V29.3564C24.9237 29.9507 25.4055 30.4325 25.9998 30.4325C26.5941 30.4325 27.0759 29.9507 27.0759 29.3564V26.9163Z" fill="#EBEBEB"/>
</g>
</svg>
