<svg width="52" height="52" viewBox="0 0 52 52" fill="none" xmlns="http://www.w3.org/2000/svg">
<g filter="url(#filter0_d_419_18082)">
<path d="M32.0261 16.6499H19.9741C18.9468 16.6499 17.9615 17.0576 17.235 17.784C16.5078 18.5112 16.1001 19.4964 16.1001 20.5237V27.841C16.1001 28.8683 16.5078 29.8536 17.235 30.58C17.9614 31.3064 18.9466 31.715 19.9741 31.715H27.4158C27.4805 31.715 27.541 31.7444 27.5822 31.7948L30.4978 35.3586C30.6617 35.5587 30.9063 35.6747 31.1653 35.6747C31.2628 35.6764 31.3603 35.6621 31.4536 35.6318C31.8017 35.5124 32.0328 35.1821 32.0261 34.8138V31.7151C33.0534 31.7151 34.0387 31.3066 34.7652 30.5802C35.4924 29.8539 35.9001 28.8686 35.9001 27.8412V20.5239C35.9001 19.4966 35.4924 18.5113 34.7652 17.7842C34.0388 17.0578 33.0535 16.6499 32.0261 16.6499ZM32.887 25.4737H32.0261V22.8911H32.887V25.4737ZM30.7348 20.739V27.6259H29.874V20.739H30.7348ZM28.5827 21.8151V26.5498H27.7218V21.8151H28.5827ZM26.4305 23.3216V25.0433H25.5697V23.3216H26.4305ZM24.2784 21.8151V26.5498H23.4175V21.8151H24.2784ZM22.1262 20.739V27.6259H21.2654V20.739H22.1262ZM19.9741 22.8911V25.4737H19.1132V22.8911H19.9741Z" fill="#EBEBEB"/>
</g>
</svg>
