<svg width="125" height="44" viewBox="0 0 125 44" fill="none" xmlns="http://www.w3.org/2000/svg">
<path d="M0 14C0 6.26801 6.26801 0 14 0H111C118.732 0 125 6.26801 125 14V30C125 37.732 118.732 44 111 44H14C6.26801 44 0 37.732 0 30V14Z" fill="url(#paint0_radial_1_21)"/>
<path d="M14 0.5H111C118.456 0.5 124.5 6.54416 124.5 14V30C124.5 37.4558 118.456 43.5 111 43.5H14C6.54416 43.5 0.5 37.4558 0.5 30V14C0.5 6.54416 6.54416 0.5 14 0.5Z" stroke="#756897" stroke-opacity="0.2"/>
<path d="M14 0.5H111C118.456 0.5 124.5 6.54416 124.5 14V30C124.5 37.4558 118.456 43.5 111 43.5H14C6.54416 43.5 0.5 37.4558 0.5 30V14C0.5 6.54416 6.54416 0.5 14 0.5Z" stroke="url(#paint1_radial_1_21)" stroke-opacity="0.5"/>
<circle cx="20" cy="22" r="12" fill="#5817CA"/>
<path d="M12.8626 22.1588C14.5901 18.7964 19.5972 18.5686 18.3875 12.7523C22.7244 13.7655 25.3857 19.4105 22.354 23.8021C23.374 23.6604 25.1088 22 25.6633 19.3661C33.8424 28.9591 17.0274 36.5518 15.6146 24.9916C14.5341 26.097 14.4774 28.8453 14.7891 29.8653C13.2308 29.072 11.135 25.5212 12.8626 22.1588Z" fill="white"/>
<path d="M43.5 21V12.8721L41.1006 13.8291V12.25L44.5801 10.9238H45.3457V21H43.5ZM48.4902 21V19.8311L51.9355 15.9961C52.3548 15.5404 52.6761 15.1348 52.8994 14.7793C53.1227 14.4193 53.2344 14.0387 53.2344 13.6377C53.2344 13.2549 53.1159 12.9313 52.8789 12.667C52.6419 12.4027 52.2979 12.2705 51.8467 12.2705C51.3955 12.2705 51.0264 12.4209 50.7393 12.7217C50.4567 13.0225 50.3154 13.46 50.3154 14.0342V14.1846H48.4629V14.0068C48.4629 13.0726 48.7751 12.3115 49.3994 11.7236C50.0238 11.1357 50.8372 10.8418 51.8398 10.8418C52.888 10.8418 53.6924 11.1038 54.2529 11.6279C54.818 12.1475 55.1029 12.7923 55.1074 13.5625C55.1074 14.2233 54.9297 14.8112 54.5742 15.3262C54.2188 15.8411 53.7904 16.3721 53.2891 16.9189L50.8555 19.5234H55.333V21H48.4902ZM56.7822 20.0635C56.7822 19.7581 56.8802 19.5007 57.0762 19.291C57.2767 19.0768 57.5615 18.9697 57.9307 18.9697C58.3044 18.9697 58.5892 19.0768 58.7852 19.291C58.9857 19.5007 59.0859 19.7581 59.0859 20.0635C59.0859 20.3643 58.9857 20.6217 58.7852 20.8359C58.5892 21.0456 58.3044 21.1504 57.9307 21.1504C57.5615 21.1504 57.2767 21.0456 57.0762 20.8359C56.8802 20.6217 56.7822 20.3643 56.7822 20.0635ZM63.6113 21V12.8721L61.2119 13.8291V12.25L64.6914 10.9238H65.457V21H63.6113ZM69.1074 21V11.0469H71.459L74.0293 17.8418C74.084 17.9876 74.1318 18.1312 74.1729 18.2725C74.2184 18.4137 74.2572 18.5618 74.2891 18.7168H74.3369C74.3688 18.5618 74.4053 18.4137 74.4463 18.2725C74.4919 18.1312 74.542 17.9876 74.5967 17.8418L77.1738 11.0469H79.5527V21H77.7412V14.3691C77.7412 14.2233 77.7435 14.0615 77.748 13.8838C77.7572 13.7015 77.7708 13.5374 77.7891 13.3916H77.7344C77.707 13.5374 77.6683 13.7015 77.6182 13.8838C77.5726 14.0615 77.5225 14.2233 77.4678 14.3691L74.9658 21H73.4414L70.9463 14.3691C70.8916 14.2233 70.8392 14.0615 70.7891 13.8838C70.7435 13.7015 70.707 13.5374 70.6797 13.3916H70.625C70.6432 13.5374 70.6546 13.7015 70.6592 13.8838C70.6637 14.0615 70.666 14.2233 70.666 14.3691V21H69.1074Z" fill="white"/>
<path d="M40 33L43.0347 25.126H44.0229L47.0576 33H45.9404L43.7598 27.1294C43.7132 27.0041 43.672 26.8841 43.6362 26.7695C43.6004 26.6514 43.5682 26.5314 43.5396 26.4097H43.4858C43.4572 26.5314 43.425 26.6514 43.3892 26.7695C43.3534 26.8841 43.3122 27.0041 43.2656 27.1294L41.0635 33H40ZM41.3052 30.9805L41.6328 30.0942L45.4087 30.0996L45.7363 30.9858L41.3052 30.9805ZM47.9976 33V25.1797H49.0664V33H47.9976ZM50.0547 26.0605V25.1797H56.2905V26.0605H53.707V33H52.6436V26.0605H50.0547ZM57.3379 33V25.1797H62.4028V26.0605H58.4067V28.5205H61.8979V29.4067H58.4067V32.1138H62.4565V33H57.3379ZM63.4448 29.3208V28.8535C63.4448 27.6468 63.7635 26.7069 64.4009 26.0337C65.0382 25.3569 65.8368 25.0186 66.7964 25.0186C67.756 25.0186 68.499 25.2764 69.0254 25.792C69.5518 26.304 69.8328 26.9217 69.8687 27.645L69.874 27.6987H68.8052V27.645C68.7837 27.1867 68.61 26.7874 68.2842 26.4473C67.9619 26.1071 67.466 25.937 66.7964 25.937C66.134 25.937 65.5897 26.1859 65.1636 26.6836C64.7375 27.1813 64.5244 27.9046 64.5244 28.8535V29.3208C64.5244 30.2303 64.7375 30.9447 65.1636 31.4639C65.5897 31.9831 66.134 32.2427 66.7964 32.2427C67.4445 32.2427 67.9279 32.0708 68.2466 31.7271C68.5688 31.3833 68.7533 30.9858 68.7998 30.5347L68.8052 30.481H69.874L69.8687 30.5347C69.797 31.2544 69.507 31.8721 68.9985 32.3877C68.4901 32.9033 67.756 33.1611 66.7964 33.1611C65.8368 33.1611 65.0382 32.8228 64.4009 32.146C63.7635 31.4692 63.4448 30.5275 63.4448 29.3208ZM71.249 33V25.1797H72.3179V28.5205H76.3784V25.1797H77.4419V33H76.3784V29.4067H72.3179V33H71.249ZM81.8408 33V24.75H82.8721V27.9297C83.0475 27.6898 83.2803 27.4982 83.5703 27.355C83.8639 27.2118 84.2166 27.1401 84.6284 27.1401C85.3732 27.1401 85.9694 27.4141 86.417 27.9619C86.8646 28.5062 87.0884 29.1973 87.0884 30.0352V30.207C87.0884 31.0449 86.8646 31.7378 86.417 32.2856C85.9694 32.8335 85.3732 33.1074 84.6284 33.1074C84.2166 33.1074 83.855 33.0233 83.5435 32.855C83.2319 32.6867 83.001 32.4844 82.8506 32.248H82.8237L82.7754 33H81.8408ZM82.8721 31.2705C82.9902 31.5247 83.18 31.7521 83.4414 31.9526C83.7064 32.1532 84.0269 32.2534 84.4028 32.2534C84.965 32.2534 85.3768 32.0565 85.6382 31.6626C85.8996 31.2687 86.0303 30.7835 86.0303 30.207V30.0352C86.0303 29.4622 85.8996 28.9788 85.6382 28.585C85.3768 28.1911 84.965 27.9941 84.4028 27.9941C84.0269 27.9941 83.7064 28.0944 83.4414 28.2949C83.18 28.4954 82.9902 28.7228 82.8721 28.9771V31.2705ZM88.2861 30.916V27.2476H89.3174V30.9268C89.3174 31.3923 89.423 31.7271 89.6343 31.9312C89.8491 32.1317 90.1535 32.2319 90.5474 32.2319C90.8804 32.2319 91.174 32.1442 91.4282 31.9688C91.6825 31.7897 91.883 31.5605 92.0298 31.2812V27.2476H93.061V33H92.1265L92.0835 32.248H92.0513C91.8364 32.5166 91.5732 32.7279 91.2617 32.8818C90.9538 33.0322 90.6118 33.1074 90.2358 33.1074C89.6414 33.1074 89.167 32.9391 88.8125 32.6025C88.4616 32.266 88.2861 31.7038 88.2861 30.916ZM94.6562 33V27.2476H95.5908L95.6392 27.9888H95.666C95.8164 27.7489 96.0133 27.5394 96.2568 27.3604C96.5039 27.1777 96.7957 27.0864 97.1323 27.0864C97.2147 27.0864 97.2988 27.0954 97.3848 27.1133C97.4743 27.1312 97.5369 27.1473 97.5728 27.1616V28.1338C97.5011 28.1195 97.4242 28.1087 97.3418 28.1016C97.263 28.0944 97.1753 28.0908 97.0786 28.0908C96.7384 28.0908 96.4502 28.1768 96.2139 28.3486C95.9775 28.5205 95.8021 28.7336 95.6875 28.9878V33H94.6562ZM98.5342 33V27.2476H99.4688L99.5171 27.9995H99.5439C99.7624 27.7274 100.026 27.5161 100.333 27.3657C100.641 27.2153 100.983 27.1401 101.359 27.1401C101.954 27.1401 102.426 27.3084 102.777 27.645C103.132 27.9816 103.309 28.5438 103.309 29.3315V33H102.278V29.3208C102.278 28.8553 102.17 28.5223 101.956 28.3218C101.744 28.1177 101.442 28.0156 101.048 28.0156C100.715 28.0156 100.421 28.1051 100.167 28.2842C99.9128 28.4596 99.7122 28.687 99.5654 28.9663V33H98.5342ZM104.512 30.207V30.0352C104.512 29.1686 104.756 28.4614 105.243 27.9136C105.73 27.3621 106.374 27.0864 107.176 27.0864C107.978 27.0864 108.596 27.3442 109.029 27.8599C109.463 28.3719 109.679 29.0648 109.679 29.9385V30.3682H105.151V29.5464H108.637V29.4873C108.637 29.0505 108.521 28.6834 108.288 28.3862C108.055 28.0854 107.692 27.9351 107.198 27.9351C106.657 27.9351 106.249 28.1392 105.973 28.5474C105.701 28.952 105.565 29.4479 105.565 30.0352V30.207C105.565 30.7979 105.708 31.2974 105.995 31.7056C106.285 32.1102 106.734 32.3125 107.343 32.3125C107.715 32.3125 108.036 32.2337 108.304 32.0762C108.576 31.9186 108.795 31.7306 108.959 31.5122L109.625 32.0601C109.443 32.3286 109.156 32.5793 108.766 32.812C108.376 33.0448 107.901 33.1611 107.343 33.1611C106.43 33.1611 105.73 32.8872 105.243 32.3394C104.756 31.7879 104.512 31.0771 104.512 30.207ZM110.56 30.207V30.0352C110.56 29.1973 110.784 28.5062 111.231 27.9619C111.679 27.4141 112.275 27.1401 113.02 27.1401C113.432 27.1401 113.783 27.2118 114.073 27.355C114.366 27.4982 114.601 27.6898 114.776 27.9297V24.75H115.808V33H114.873L114.825 32.248H114.798C114.647 32.4844 114.417 32.6867 114.105 32.855C113.793 33.0233 113.432 33.1074 113.02 33.1074C112.275 33.1074 111.679 32.8335 111.231 32.2856C110.784 31.7378 110.56 31.0449 110.56 30.207ZM111.618 30.207C111.618 30.7835 111.749 31.2687 112.01 31.6626C112.272 32.0565 112.683 32.2534 113.246 32.2534C113.622 32.2534 113.94 32.1532 114.202 31.9526C114.467 31.7521 114.658 31.5247 114.776 31.2705V28.9771C114.658 28.7228 114.467 28.4954 114.202 28.2949C113.94 28.0944 113.622 27.9941 113.246 27.9941C112.683 27.9941 112.272 28.1911 112.01 28.585C111.749 28.9788 111.618 29.4622 111.618 30.0352V30.207Z" fill="white" fill-opacity="0.6"/>
<defs>
<radialGradient id="paint0_radial_1_21" cx="0" cy="0" r="1" gradientUnits="userSpaceOnUse" gradientTransform="translate(10.9375 36.2591) rotate(-24.6023) scale(70.4588 59.7424)">
<stop stop-color="#190B30"/>
<stop offset="1" stop-color="#01020A"/>
</radialGradient>
<radialGradient id="paint1_radial_1_21" cx="0" cy="0" r="1" gradientUnits="userSpaceOnUse" gradientTransform="translate(3.90625 44.8147) rotate(-21.3065) scale(99.7893 72.1407)">
<stop stop-color="#AB8FF6"/>
<stop offset="1" stop-color="#1F1254"/>
</radialGradient>
</defs>
</svg>
