<svg width="113" height="187" viewBox="0 0 113 187" fill="none" xmlns="http://www.w3.org/2000/svg">
<path d="M108 1H0V174.625C0 167.299 3.45753 160.273 8.62275 155.093L72.5 91.25C80.25 84 83 77.3072 83 69.9812V24.25C83 12.25 91 2.5 108 1Z" fill="black"/>
<path d="M88.0505 9.74365L88.435 10.0633L89.1165 9.24365H88.0505V9.74365ZM82.5134 25.0776L82.0134 25.0776V25.0776H82.5134ZM82.5134 71.2974L83.0134 71.2974V71.2974H82.5134ZM75.4841 88.2671L75.8377 88.6206L75.8377 88.6206L75.4841 88.2671ZM10.1521 153.599H9.6521V154.806L10.5057 153.953L10.1521 153.599ZM34.1521 9.74365V9.24365V9.74365ZM88.0505 9.74365L87.6661 9.42398C84.1366 13.6689 82.0134 19.1258 82.0134 25.0776L82.5134 25.0776L83.0134 25.0776C83.0134 19.3679 85.0493 14.1353 88.435 10.0633L88.0505 9.74365ZM82.5134 25.0776H82.0134V71.2974H82.5134H83.0134V25.0776H82.5134ZM82.5134 71.2974L82.0134 71.2974C82.0133 77.5296 79.5373 83.5066 75.1306 87.9135L75.4841 88.2671L75.8377 88.6206C80.4319 84.0262 83.0133 77.7948 83.0134 71.2974L82.5134 71.2974ZM75.4841 88.2671L75.1306 87.9135L9.79855 153.246L10.1521 153.599L10.5057 153.953L75.8377 88.6206L75.4841 88.2671ZM10.1521 153.599H10.6521V33.7437H10.1521H9.6521V153.599H10.1521ZM10.1521 33.7437H10.6521C10.6521 20.765 21.1734 10.2437 34.1521 10.2437V9.74365V9.24365C20.6211 9.24365 9.6521 20.2127 9.6521 33.7437H10.1521ZM34.1521 9.74365V10.2437H88.0505V9.74365V9.24365H34.1521V9.74365Z" fill="white" fill-opacity="0.3"/>
<path d="M88.0505 9.74365L88.435 10.0633L89.1165 9.24365H88.0505V9.74365ZM82.5134 25.0776L82.0134 25.0776V25.0776H82.5134ZM82.5134 71.2974L83.0134 71.2974V71.2974H82.5134ZM75.4841 88.2671L75.8377 88.6206L75.8377 88.6206L75.4841 88.2671ZM10.1521 153.599H9.6521V154.806L10.5057 153.953L10.1521 153.599ZM34.1521 9.74365V9.24365V9.74365ZM88.0505 9.74365L87.6661 9.42398C84.1366 13.6689 82.0134 19.1258 82.0134 25.0776L82.5134 25.0776L83.0134 25.0776C83.0134 19.3679 85.0493 14.1353 88.435 10.0633L88.0505 9.74365ZM82.5134 25.0776H82.0134V71.2974H82.5134H83.0134V25.0776H82.5134ZM82.5134 71.2974L82.0134 71.2974C82.0133 77.5296 79.5373 83.5066 75.1306 87.9135L75.4841 88.2671L75.8377 88.6206C80.4319 84.0262 83.0133 77.7948 83.0134 71.2974L82.5134 71.2974ZM75.4841 88.2671L75.1306 87.9135L9.79855 153.246L10.1521 153.599L10.5057 153.953L75.8377 88.6206L75.4841 88.2671ZM10.1521 153.599H10.6521V33.7437H10.1521H9.6521V153.599H10.1521ZM10.1521 33.7437H10.6521C10.6521 20.765 21.1734 10.2437 34.1521 10.2437V9.74365V9.24365C20.6211 9.24365 9.6521 20.2127 9.6521 33.7437H10.1521ZM34.1521 9.74365V10.2437H88.0505V9.74365V9.24365H34.1521V9.74365Z" fill="url(#paint0_linear_3583_605)"/>
<g filter="url(#filter0_d_3583_605)">
<path d="M56.9564 37H35.0436C33.1757 37 31.3843 37.7413 30.0635 39.062C28.7413 40.3841 28 42.1755 28 44.0432V57.3474C28 59.2153 28.7413 61.0067 30.0635 62.3275C31.3841 63.6482 33.1755 64.391 35.0436 64.391H48.574C48.6917 64.391 48.8017 64.4445 48.8766 64.5362L54.1776 71.0158C54.4756 71.3796 54.9204 71.5905 55.3912 71.5905C55.5685 71.5936 55.7458 71.5676 55.9155 71.5126C56.5483 71.2955 56.9686 70.6948 56.9564 70.0253V64.3914C58.8243 64.3914 60.6157 63.6485 61.9365 62.3279C63.2587 61.0072 64 59.2158 64 57.3478V44.0436C64 42.1757 63.2587 40.3843 61.9365 39.0623C60.6159 37.7417 58.8244 37 56.9564 37ZM58.5216 53.0433H56.9564V48.3477H58.5216V53.0433ZM54.6086 44.4347V56.9563H53.0434V44.4347H54.6086ZM50.6956 46.3912V54.9998H49.1304V46.3912H50.6956ZM46.7826 49.1303V52.2607H45.2174V49.1303H46.7826ZM42.8696 46.3912V54.9998H41.3044V46.3912H42.8696ZM38.9566 44.4347V56.9563H37.3914V44.4347H38.9566ZM35.0436 48.3477V53.0433H33.4784V48.3477H35.0436Z" fill="#BABABA"/>
</g>
<path d="M0.507568 186.379V173.07C0.507568 166.705 3.03613 160.6 7.53701 156.099L75.7518 87.8844C80.2527 83.3835 82.7812 77.279 82.7812 70.9138V25.48C82.7812 12.2251 93.5264 1.47998 106.781 1.47998H112.406" stroke="#444444"/>
<defs>
<filter id="filter0_d_3583_605" x="12" y="21" width="68" height="66.5908" filterUnits="userSpaceOnUse" color-interpolation-filters="sRGB">
<feFlood flood-opacity="0" result="BackgroundImageFix"/>
<feColorMatrix in="SourceAlpha" type="matrix" values="0 0 0 0 0 0 0 0 0 0 0 0 0 0 0 0 0 0 127 0" result="hardAlpha"/>
<feOffset/>
<feGaussianBlur stdDeviation="8"/>
<feComposite in2="hardAlpha" operator="out"/>
<feColorMatrix type="matrix" values="0 0 0 0 1 0 0 0 0 1 0 0 0 0 1 0 0 0 0.25 0"/>
<feBlend mode="normal" in2="BackgroundImageFix" result="effect1_dropShadow_3583_605"/>
<feBlend mode="normal" in="SourceGraphic" in2="effect1_dropShadow_3583_605" result="shape"/>
</filter>
<linearGradient id="paint0_linear_3583_605" x1="14.9366" y1="20.4317" x2="73.5282" y2="88.2557" gradientUnits="userSpaceOnUse">
<stop stop-color="#444444"/>
<stop offset="1" stop-color="#222222"/>
</linearGradient>
</defs>
</svg>
