<svg width="113" height="187" viewBox="0 0 113 187" fill="none" xmlns="http://www.w3.org/2000/svg">
<path d="M108 1H0V174.625C0 167.299 3.45753 160.273 8.62275 155.093L72.5 91.25C80.25 84 83 77.3072 83 69.9812V24.25C83 12.25 91 2.5 108 1Z" fill="black"/>
<path d="M88.0497 9.74365L88.4341 10.0633L89.1156 9.24365H88.0497V9.74365ZM75.4837 88.2674L75.1301 87.9139L75.4837 88.2674ZM10.1521 153.599H9.6521V154.806L10.5057 153.953L10.1521 153.599ZM88.0497 9.74365L87.6652 9.42399C84.1359 13.6688 82.0131 19.126 82.0131 25.0777H82.5131H83.0131C83.0131 19.3681 85.0486 14.1352 88.4341 10.0633L88.0497 9.74365ZM82.5131 25.0777H82.0131V71.2969H82.5131H83.0131V25.0777H82.5131ZM82.5131 71.2969H82.0131C82.0131 77.5295 79.5372 83.5068 75.1301 87.9139L75.4837 88.2674L75.8372 88.621C80.4318 84.0264 83.0131 77.7947 83.0131 71.2969H82.5131ZM75.4837 88.2674L75.1301 87.9139L9.79855 153.245L10.1521 153.599L10.5057 153.953L75.8372 88.621L75.4837 88.2674ZM10.1521 153.599H10.6521V33.7436H10.1521H9.6521V153.599H10.1521ZM10.1521 33.7436H10.6521C10.6521 20.7649 21.1734 10.2437 34.1521 10.2437V9.74365V9.24365C20.6211 9.24365 9.6521 20.2127 9.6521 33.7436H10.1521ZM34.1521 9.74365V10.2437H88.0497V9.74365V9.24365H34.1521V9.74365Z" fill="white" fill-opacity="0.3"/>
<path d="M88.0497 9.74365L88.4341 10.0633L89.1156 9.24365H88.0497V9.74365ZM75.4837 88.2674L75.1301 87.9139L75.4837 88.2674ZM10.1521 153.599H9.6521V154.806L10.5057 153.953L10.1521 153.599ZM88.0497 9.74365L87.6652 9.42399C84.1359 13.6688 82.0131 19.126 82.0131 25.0777H82.5131H83.0131C83.0131 19.3681 85.0486 14.1352 88.4341 10.0633L88.0497 9.74365ZM82.5131 25.0777H82.0131V71.2969H82.5131H83.0131V25.0777H82.5131ZM82.5131 71.2969H82.0131C82.0131 77.5295 79.5372 83.5068 75.1301 87.9139L75.4837 88.2674L75.8372 88.621C80.4318 84.0264 83.0131 77.7947 83.0131 71.2969H82.5131ZM75.4837 88.2674L75.1301 87.9139L9.79855 153.245L10.1521 153.599L10.5057 153.953L75.8372 88.621L75.4837 88.2674ZM10.1521 153.599H10.6521V33.7436H10.1521H9.6521V153.599H10.1521ZM10.1521 33.7436H10.6521C10.6521 20.7649 21.1734 10.2437 34.1521 10.2437V9.74365V9.24365C20.6211 9.24365 9.6521 20.2127 9.6521 33.7436H10.1521ZM34.1521 9.74365V10.2437H88.0497V9.74365V9.24365H34.1521V9.74365Z" fill="url(#paint0_linear_707_11212)"/>
<path d="M66.5744 37.0925L58.8706 68.169C58.508 69.6327 56.8313 70.3867 55.4567 69.6918L45.7135 64.7686L41.1063 72.146C39.8526 74.1566 36.6804 73.2844 36.6804 70.9337V62.7136C36.6804 62.0779 36.9523 61.4718 37.4205 61.0282L56.4083 43.2871C56.3932 43.0654 56.1515 42.8732 55.9098 43.0358L33.2514 58.4706L25.6381 54.6267C23.8557 53.7248 23.9312 51.1967 25.7741 50.4131L63.3116 34.4018C65.1092 33.633 67.0427 35.2149 66.5744 37.0925Z" fill="white"/>
<path d="M0.507568 186.379V173.07C0.507568 166.705 3.03613 160.6 7.53701 156.099L75.7518 87.8844C80.2527 83.3835 82.7812 77.279 82.7812 70.9138V25.48C82.7812 12.2251 93.5264 1.47998 106.781 1.47998H112.406" stroke="#444444"/>
<defs>
<linearGradient id="paint0_linear_707_11212" x1="14.9365" y1="20.4317" x2="73.5282" y2="88.255" gradientUnits="userSpaceOnUse">
<stop stop-color="#444444"/>
<stop offset="1" stop-color="#222222"/>
</linearGradient>
</defs>
</svg>
