<svg width="113" height="187" viewBox="0 0 113 187" fill="none" xmlns="http://www.w3.org/2000/svg">
<path d="M108 1H0V174.625C0 167.299 3.45753 160.273 8.62275 155.093L72.5 91.25C80.25 84 83 77.3072 83 69.9812V24.25C83 12.25 91 2.5 108 1Z" fill="black"/>
<path d="M88.0505 9.74365L88.435 10.0633L89.1165 9.24365H88.0505V9.74365ZM82.5134 25.0776L82.0134 25.0776V25.0776H82.5134ZM82.5134 71.2974L83.0134 71.2974V71.2974H82.5134ZM75.4841 88.2671L75.8377 88.6206L75.8377 88.6206L75.4841 88.2671ZM10.1521 153.599H9.6521V154.806L10.5057 153.953L10.1521 153.599ZM34.1521 9.74365V9.24365V9.74365ZM88.0505 9.74365L87.6661 9.42398C84.1366 13.6689 82.0134 19.1258 82.0134 25.0776L82.5134 25.0776L83.0134 25.0776C83.0134 19.3679 85.0493 14.1353 88.435 10.0633L88.0505 9.74365ZM82.5134 25.0776H82.0134V71.2974H82.5134H83.0134V25.0776H82.5134ZM82.5134 71.2974L82.0134 71.2974C82.0133 77.5296 79.5373 83.5066 75.1306 87.9135L75.4841 88.2671L75.8377 88.6206C80.4319 84.0262 83.0133 77.7948 83.0134 71.2974L82.5134 71.2974ZM75.4841 88.2671L75.1306 87.9135L9.79855 153.246L10.1521 153.599L10.5057 153.953L75.8377 88.6206L75.4841 88.2671ZM10.1521 153.599H10.6521V33.7437H10.1521H9.6521V153.599H10.1521ZM10.1521 33.7437H10.6521C10.6521 20.765 21.1734 10.2437 34.1521 10.2437V9.74365V9.24365C20.6211 9.24365 9.6521 20.2127 9.6521 33.7437H10.1521ZM34.1521 9.74365V10.2437H88.0505V9.74365V9.24365H34.1521V9.74365Z" fill="white" fill-opacity="0.3"/>
<path d="M88.0505 9.74365L88.435 10.0633L89.1165 9.24365H88.0505V9.74365ZM82.5134 25.0776L82.0134 25.0776V25.0776H82.5134ZM82.5134 71.2974L83.0134 71.2974V71.2974H82.5134ZM75.4841 88.2671L75.8377 88.6206L75.8377 88.6206L75.4841 88.2671ZM10.1521 153.599H9.6521V154.806L10.5057 153.953L10.1521 153.599ZM34.1521 9.74365V9.24365V9.74365ZM88.0505 9.74365L87.6661 9.42398C84.1366 13.6689 82.0134 19.1258 82.0134 25.0776L82.5134 25.0776L83.0134 25.0776C83.0134 19.3679 85.0493 14.1353 88.435 10.0633L88.0505 9.74365ZM82.5134 25.0776H82.0134V71.2974H82.5134H83.0134V25.0776H82.5134ZM82.5134 71.2974L82.0134 71.2974C82.0133 77.5296 79.5373 83.5066 75.1306 87.9135L75.4841 88.2671L75.8377 88.6206C80.4319 84.0262 83.0133 77.7948 83.0134 71.2974L82.5134 71.2974ZM75.4841 88.2671L75.1306 87.9135L9.79855 153.246L10.1521 153.599L10.5057 153.953L75.8377 88.6206L75.4841 88.2671ZM10.1521 153.599H10.6521V33.7437H10.1521H9.6521V153.599H10.1521ZM10.1521 33.7437H10.6521C10.6521 20.765 21.1734 10.2437 34.1521 10.2437V9.74365V9.24365C20.6211 9.24365 9.6521 20.2127 9.6521 33.7437H10.1521ZM34.1521 9.74365V10.2437H88.0505V9.74365V9.24365H34.1521V9.74365Z" fill="url(#paint0_linear_3583_633)"/>
<g filter="url(#filter0_d_3583_633)">
<path d="M66.0705 50.0271C65.8502 50.0217 65.6281 50.0181 65.4077 50.0181H28.2027H24.3821C24.3674 50.151 24.3546 50.2337 24.3546 50.3128C24.3546 55.1699 24.3399 60.0284 24.3637 64.8855C24.3693 66.0409 24.9696 66.9052 26.0234 67.4478C26.6439 67.7695 27.3159 67.7749 27.9934 67.7695C36.8904 67.7695 45.787 67.7641 54.6841 67.7605C57.673 67.7605 60.662 67.7749 63.6564 67.7515C65.0149 67.7425 66.1899 66.8405 66.4855 65.5575C66.6269 64.9358 66.6269 64.2836 66.6269 63.6385C66.6361 59.2828 66.6269 54.9307 66.6269 50.5754C66.6269 49.8998 66.6177 50.0364 66.0761 50.0238L66.0705 50.0271ZM45.2035 54.9776C40.1327 54.9686 35.0619 54.9686 29.9949 54.9632C29.422 54.9632 29.4258 54.9542 29.4404 54.3972C29.4496 53.9605 29.4404 53.5185 29.4404 53.0531H45.4772C45.4772 53.6101 45.4625 54.1474 45.4864 54.6811C45.4956 54.9057 45.435 54.9704 45.2092 54.9704L45.2035 54.9776Z" fill="#BABABA"/>
</g>
<g filter="url(#filter1_d_3583_633)">
<path d="M66.6489 43.5173C66.6966 41.627 65.3142 40.1877 63.4709 40.2003C60.3737 40.2182 57.2711 40.2416 54.1739 40.247C49.4682 40.256 44.7645 40.2524 40.0593 40.247C35.8569 40.247 31.6562 40.229 27.454 40.22C25.9504 40.22 24.7037 41.149 24.4357 42.5937C24.309 43.2783 24.3788 43.9971 24.3604 44.6996C24.3512 45.0303 24.511 45.1974 24.8396 45.2009H24.9846H45.4958H57.5503C60.4309 45.2009 63.3078 45.2009 66.1884 45.2153C66.5464 45.2153 66.6529 45.1237 66.6309 44.7733C66.6034 44.36 66.6309 43.936 66.6456 43.5173L66.6489 43.5173Z" fill="#BABABA"/>
</g>
<path d="M0.507568 186.379V173.07C0.507568 166.705 3.03613 160.6 7.53701 156.099L75.7518 87.8844C80.2527 83.3835 82.7812 77.279 82.7812 70.9138V25.48C82.7812 12.2251 93.5264 1.47998 106.781 1.47998H112.406" stroke="#444444"/>
<defs>
<filter id="filter0_d_3583_633" x="8.3501" y="34.0181" width="74.2808" height="49.7524" filterUnits="userSpaceOnUse" color-interpolation-filters="sRGB">
<feFlood flood-opacity="0" result="BackgroundImageFix"/>
<feColorMatrix in="SourceAlpha" type="matrix" values="0 0 0 0 0 0 0 0 0 0 0 0 0 0 0 0 0 0 127 0" result="hardAlpha"/>
<feOffset/>
<feGaussianBlur stdDeviation="8"/>
<feComposite in2="hardAlpha" operator="out"/>
<feColorMatrix type="matrix" values="0 0 0 0 1 0 0 0 0 1 0 0 0 0 1 0 0 0 0.25 0"/>
<feBlend mode="normal" in2="BackgroundImageFix" result="effect1_dropShadow_3583_633"/>
<feBlend mode="normal" in="SourceGraphic" in2="effect1_dropShadow_3583_633" result="shape"/>
</filter>
<filter id="filter1_d_3583_633" x="8.35742" y="24.2002" width="74.2927" height="37.0151" filterUnits="userSpaceOnUse" color-interpolation-filters="sRGB">
<feFlood flood-opacity="0" result="BackgroundImageFix"/>
<feColorMatrix in="SourceAlpha" type="matrix" values="0 0 0 0 0 0 0 0 0 0 0 0 0 0 0 0 0 0 127 0" result="hardAlpha"/>
<feOffset/>
<feGaussianBlur stdDeviation="8"/>
<feComposite in2="hardAlpha" operator="out"/>
<feColorMatrix type="matrix" values="0 0 0 0 1 0 0 0 0 1 0 0 0 0 1 0 0 0 0.25 0"/>
<feBlend mode="normal" in2="BackgroundImageFix" result="effect1_dropShadow_3583_633"/>
<feBlend mode="normal" in="SourceGraphic" in2="effect1_dropShadow_3583_633" result="shape"/>
</filter>
<linearGradient id="paint0_linear_3583_633" x1="14.9366" y1="20.4317" x2="73.5282" y2="88.2557" gradientUnits="userSpaceOnUse">
<stop stop-color="#444444"/>
<stop offset="1" stop-color="#222222"/>
</linearGradient>
</defs>
</svg>
