<svg width="113" height="187" viewBox="0 0 113 187" fill="none" xmlns="http://www.w3.org/2000/svg">
<path d="M108 1H0V174.625C0 167.299 3.45753 160.273 8.62275 155.093L72.5 91.25C80.25 84 83 77.3072 83 69.9812V24.25C83 12.25 91 2.5 108 1Z" fill="black"/>
<path d="M88.0505 9.74365L88.435 10.0633L89.1165 9.24365H88.0505V9.74365ZM82.5134 25.0776L82.0134 25.0776V25.0776H82.5134ZM82.5134 71.2974L83.0134 71.2974V71.2974H82.5134ZM75.4841 88.2671L75.8377 88.6206L75.8377 88.6206L75.4841 88.2671ZM10.1521 153.599H9.6521V154.806L10.5057 153.953L10.1521 153.599ZM34.1521 9.74365V9.24365V9.74365ZM88.0505 9.74365L87.6661 9.42398C84.1366 13.6689 82.0134 19.1258 82.0134 25.0776L82.5134 25.0776L83.0134 25.0776C83.0134 19.3679 85.0493 14.1353 88.435 10.0633L88.0505 9.74365ZM82.5134 25.0776H82.0134V71.2974H82.5134H83.0134V25.0776H82.5134ZM82.5134 71.2974L82.0134 71.2974C82.0133 77.5296 79.5373 83.5066 75.1306 87.9135L75.4841 88.2671L75.8377 88.6206C80.4319 84.0262 83.0133 77.7948 83.0134 71.2974L82.5134 71.2974ZM75.4841 88.2671L75.1306 87.9135L9.79855 153.246L10.1521 153.599L10.5057 153.953L75.8377 88.6206L75.4841 88.2671ZM10.1521 153.599H10.6521V33.7437H10.1521H9.6521V153.599H10.1521ZM10.1521 33.7437H10.6521C10.6521 20.765 21.1734 10.2437 34.1521 10.2437V9.74365V9.24365C20.6211 9.24365 9.6521 20.2127 9.6521 33.7437H10.1521ZM34.1521 9.74365V10.2437H88.0505V9.74365V9.24365H34.1521V9.74365Z" fill="white" fill-opacity="0.3"/>
<path d="M88.0505 9.74365L88.435 10.0633L89.1165 9.24365H88.0505V9.74365ZM82.5134 25.0776L82.0134 25.0776V25.0776H82.5134ZM82.5134 71.2974L83.0134 71.2974V71.2974H82.5134ZM75.4841 88.2671L75.8377 88.6206L75.8377 88.6206L75.4841 88.2671ZM10.1521 153.599H9.6521V154.806L10.5057 153.953L10.1521 153.599ZM34.1521 9.74365V9.24365V9.74365ZM88.0505 9.74365L87.6661 9.42398C84.1366 13.6689 82.0134 19.1258 82.0134 25.0776L82.5134 25.0776L83.0134 25.0776C83.0134 19.3679 85.0493 14.1353 88.435 10.0633L88.0505 9.74365ZM82.5134 25.0776H82.0134V71.2974H82.5134H83.0134V25.0776H82.5134ZM82.5134 71.2974L82.0134 71.2974C82.0133 77.5296 79.5373 83.5066 75.1306 87.9135L75.4841 88.2671L75.8377 88.6206C80.4319 84.0262 83.0133 77.7948 83.0134 71.2974L82.5134 71.2974ZM75.4841 88.2671L75.1306 87.9135L9.79855 153.246L10.1521 153.599L10.5057 153.953L75.8377 88.6206L75.4841 88.2671ZM10.1521 153.599H10.6521V33.7437H10.1521H9.6521V153.599H10.1521ZM10.1521 33.7437H10.6521C10.6521 20.765 21.1734 10.2437 34.1521 10.2437V9.74365V9.24365C20.6211 9.24365 9.6521 20.2127 9.6521 33.7437H10.1521ZM34.1521 9.74365V10.2437H88.0505V9.74365V9.24365H34.1521V9.74365Z" fill="url(#paint0_linear_3583_438)"/>
<g filter="url(#filter0_d_3583_438)">
<path fill-rule="evenodd" clip-rule="evenodd" d="M62.0523 51.0266V42.6843L45.5001 35.5L28.9479 42.6843V51.0266C28.9479 60.8629 35.7739 69.4329 45.5001 71.8446C55.2263 69.4329 62.0523 60.8629 62.0523 51.0266ZM27.084 38.5707C25.4217 39.2922 24.3501 40.9047 24.3501 42.6843V51.0266C24.3501 63.0018 32.7146 73.425 44.6016 76.2627C45.192 76.404 45.8082 76.404 46.3986 76.2627C58.2856 73.425 66.6501 63.0018 66.6501 51.0266V42.6843C66.6501 40.9047 65.5783 39.2922 63.9162 38.5707L47.3641 31.3864C46.1772 30.8712 44.823 30.8712 43.6361 31.3864L27.084 38.5707Z" fill="#BABABA"/>
<path d="M47.7991 53.8252C49.1734 53.0471 50.098 51.5929 50.098 49.9272C50.098 47.442 48.0395 45.4272 45.5002 45.4272C42.9609 45.4272 40.9023 47.442 40.9023 49.9272C40.9023 51.5929 41.827 53.0471 43.2013 53.8252V58.9272C43.2013 60.1699 44.2305 61.1772 45.5002 61.1772C46.7698 61.1772 47.7991 60.1699 47.7991 58.9272V53.8252Z" fill="#BABABA"/>
</g>
<path d="M0.507568 186.379V173.07C0.507568 166.705 3.03613 160.6 7.53701 156.099L75.7518 87.8844C80.2527 83.3835 82.7812 77.279 82.7812 70.9138V25.48C82.7812 12.2251 93.5264 1.47998 106.781 1.47998H112.406" stroke="#444444"/>
<defs>
<filter id="filter0_d_3583_438" x="8.3501" y="15" width="74.3" height="77.3687" filterUnits="userSpaceOnUse" color-interpolation-filters="sRGB">
<feFlood flood-opacity="0" result="BackgroundImageFix"/>
<feColorMatrix in="SourceAlpha" type="matrix" values="0 0 0 0 0 0 0 0 0 0 0 0 0 0 0 0 0 0 127 0" result="hardAlpha"/>
<feOffset/>
<feGaussianBlur stdDeviation="8"/>
<feComposite in2="hardAlpha" operator="out"/>
<feColorMatrix type="matrix" values="0 0 0 0 1 0 0 0 0 1 0 0 0 0 1 0 0 0 0.25 0"/>
<feBlend mode="normal" in2="BackgroundImageFix" result="effect1_dropShadow_3583_438"/>
<feBlend mode="normal" in="SourceGraphic" in2="effect1_dropShadow_3583_438" result="shape"/>
</filter>
<linearGradient id="paint0_linear_3583_438" x1="14.9366" y1="20.4317" x2="73.5282" y2="88.2557" gradientUnits="userSpaceOnUse">
<stop stop-color="#444444"/>
<stop offset="1" stop-color="#222222"/>
</linearGradient>
</defs>
</svg>
