<svg width="40" height="40" viewBox="0 0 40 40" fill="none" xmlns="http://www.w3.org/2000/svg">
<path d="M9.53931 1.99219H11.2472V5.83488H9.53931V1.99219Z" fill="#BABABA"/>
<path d="M13.3821 1.99219H15.0899V5.83488H13.3821V1.99219Z" fill="#BABABA"/>
<path d="M17.2246 1.99219H18.9325V5.83488H17.2246V1.99219Z" fill="#BABABA"/>
<path d="M21.0674 1.99219H22.7752V5.83488H21.0674V1.99219Z" fill="#BABABA"/>
<path d="M24.9102 1.99219H26.618V5.83488H24.9102V1.99219Z" fill="#BABABA"/>
<path d="M28.7529 1.99219H30.4608V5.83488H28.7529V1.99219Z" fill="#BABABA"/>
<path fill-rule="evenodd" clip-rule="evenodd" d="M11.1055 0.748013C11.1055 1.7437 9.61108 1.7437 9.61108 0.748013C9.61108 -0.249338 11.1055 -0.249338 11.1055 0.748013Z" fill="#BABABA"/>
<path fill-rule="evenodd" clip-rule="evenodd" d="M14.9482 0.748013C14.9482 1.7437 13.4539 1.7437 13.4539 0.748013C13.4539 -0.249338 14.9482 -0.249338 14.9482 0.748013Z" fill="#BABABA"/>
<path fill-rule="evenodd" clip-rule="evenodd" d="M18.7908 0.748013C18.7908 1.7437 17.2964 1.7437 17.2964 0.748013C17.2964 -0.249338 18.7908 -0.249338 18.7908 0.748013Z" fill="#BABABA"/>
<path fill-rule="evenodd" clip-rule="evenodd" d="M22.6335 0.748013C22.6335 1.7437 21.1392 1.7437 21.1392 0.748013C21.1392 -0.249338 22.6335 -0.249338 22.6335 0.748013Z" fill="#BABABA"/>
<path fill-rule="evenodd" clip-rule="evenodd" d="M26.4763 0.748013C26.4763 1.7437 24.9819 1.7437 24.9819 0.748013C24.9819 -0.249338 26.4763 -0.249338 26.4763 0.748013Z" fill="#BABABA"/>
<path fill-rule="evenodd" clip-rule="evenodd" d="M30.3188 0.748013C30.3188 1.7437 28.8245 1.7437 28.8245 0.748013C28.8245 -0.249338 30.3188 -0.249338 30.3188 0.748013Z" fill="#BABABA"/>
<path d="M9.53931 34.0146H11.2472V37.8573H9.53931V34.0146Z" fill="#BABABA"/>
<path d="M13.3821 34.0146H15.0899V37.8573H13.3821V34.0146Z" fill="#BABABA"/>
<path d="M17.2246 34.0146H18.9325V37.8573H17.2246V34.0146Z" fill="#BABABA"/>
<path d="M21.0674 34.0146H22.7752V37.8573H21.0674V34.0146Z" fill="#BABABA"/>
<path d="M24.9102 34.0146H26.618V37.8573H24.9102V34.0146Z" fill="#BABABA"/>
<path d="M28.7529 34.0146H30.4608V37.8573H28.7529V34.0146Z" fill="#BABABA"/>
<path fill-rule="evenodd" clip-rule="evenodd" d="M11.1055 39.2448C11.1055 40.2405 9.61108 40.2405 9.61108 39.2448C9.61108 38.2491 11.1055 38.2491 11.1055 39.2448Z" fill="#BABABA"/>
<path fill-rule="evenodd" clip-rule="evenodd" d="M14.9482 39.2448C14.9482 40.2405 13.4539 40.2405 13.4539 39.2448C13.4539 38.2491 14.9482 38.2491 14.9482 39.2448Z" fill="#BABABA"/>
<path fill-rule="evenodd" clip-rule="evenodd" d="M18.7908 39.2448C18.7908 40.2405 17.2964 40.2405 17.2964 39.2448C17.2964 38.2491 18.7908 38.2491 18.7908 39.2448Z" fill="#BABABA"/>
<path fill-rule="evenodd" clip-rule="evenodd" d="M22.6335 39.2448C22.6335 40.2405 21.1392 40.2405 21.1392 39.2448C21.1392 38.2491 22.6335 38.2491 22.6335 39.2448Z" fill="#BABABA"/>
<path fill-rule="evenodd" clip-rule="evenodd" d="M26.4763 39.2448C26.4763 40.2405 24.9819 40.2405 24.9819 39.2448C24.9819 38.2491 26.4763 38.2491 26.4763 39.2448Z" fill="#BABABA"/>
<path fill-rule="evenodd" clip-rule="evenodd" d="M30.3188 39.2448C30.3188 40.2405 28.8245 40.2405 28.8245 39.2448C28.8245 38.2491 30.3188 38.2491 30.3188 39.2448Z" fill="#BABABA"/>
<path d="M38.146 30.5985C38.618 30.5985 38.9999 30.2166 38.9999 29.7446C38.9999 29.2726 38.618 28.8906 38.146 28.8906H34.7302V30.5985H38.146Z" fill="#BABABA"/>
<path d="M38.146 26.7567C38.618 26.7567 38.9999 26.3748 38.9999 25.9028C38.9999 25.4308 38.618 25.0488 38.146 25.0488H34.7302V26.7567H38.146Z" fill="#BABABA"/>
<path d="M38.146 22.9139C38.618 22.9139 38.9999 22.532 38.9999 22.06C38.9999 21.588 38.618 21.2061 38.146 21.2061H34.7302V22.9139H38.146Z" fill="#BABABA"/>
<path d="M38.146 19.0711C38.618 19.0711 38.9999 18.6892 38.9999 18.2172C38.9999 17.7452 38.618 17.3633 38.146 17.3633H34.7302V19.0711H38.146Z" fill="#BABABA"/>
<path d="M38.146 15.2284C38.618 15.2284 38.9999 14.8464 38.9999 14.3744C38.9999 13.9024 38.618 13.5205 38.146 13.5205H34.7302V15.2284H38.146Z" fill="#BABABA"/>
<path d="M38.146 11.3856C38.618 11.3856 38.9999 11.0037 38.9999 10.5317C38.9999 10.0597 38.618 9.67773 38.146 9.67773H34.7302V11.3856H38.146Z" fill="#BABABA"/>
<path d="M1.85393 28.8906C1.38192 28.8906 1 29.2726 1 29.7446C1 30.2166 1.38193 30.5985 1.85393 30.5985H5.26966V28.8906H1.85393Z" fill="#BABABA"/>
<path d="M1.85393 25.0488C1.38192 25.0488 1 25.4308 1 25.9028C1 26.3748 1.38193 26.7567 1.85393 26.7567H5.26966V25.0488H1.85393Z" fill="#BABABA"/>
<path d="M1.85393 21.2061C1.38192 21.2061 1 21.588 1 22.06C1 22.532 1.38193 22.9139 1.85393 22.9139H5.26966V21.2061H1.85393Z" fill="#BABABA"/>
<path d="M1.85393 17.3633C1.38192 17.3633 1 17.7452 1 18.2172C1 18.6892 1.38193 19.0711 1.85393 19.0711H5.26966V17.3633H1.85393Z" fill="#BABABA"/>
<path d="M1.85393 13.5205C1.38192 13.5205 1 13.9024 1 14.3744C1 14.8464 1.38193 15.2284 1.85393 15.2284H5.26966V13.5205H1.85393Z" fill="#BABABA"/>
<path d="M1.85393 9.67773C1.38192 9.67773 1 10.0597 1 10.5317C1 11.0037 1.38193 11.3856 1.85393 11.3856H5.26966V9.67773H1.85393Z" fill="#BABABA"/>
<path d="M33.3185 10.6481C33.3151 8.24806 32.106 6.99884 29.7109 7.00051C26.5254 7.00384 23.2014 7.00218 20.2127 7.00218V6.99384C16.7969 6.99384 13.4512 6.98383 10.0987 6.99717C8.14565 7.00551 6.75634 8.34143 6.75301 10.2628C6.74467 16.4653 6.73133 22.6666 6.74467 28.8691C6.74968 31.134 8.13231 32.5384 10.3589 32.5417C16.7616 32.5517 23.161 32.5534 29.5638 32.5484C32.0522 32.5467 33.3331 31.2508 33.3331 28.7491C33.3348 22.7165 33.3264 16.6821 33.3181 10.6478L33.3185 10.6481ZM26.642 27.4667C24.4621 27.4684 22.3471 27.4667 20.2123 27.4667V27.4751C17.6505 27.4751 15.7527 27.4817 13.5743 27.4717C12.3 27.465 11.9047 27.1298 11.9031 25.8656C11.8997 21.6777 11.8764 17.4898 11.8914 13.3017C11.8964 12.0508 12.27 11.6672 13.4992 11.6639C17.8871 11.6555 22.2704 11.6505 26.66 11.6572C27.8091 11.6589 28.2161 12.0842 28.2177 13.2533C28.2261 17.4413 28.2778 21.6291 28.2694 25.8173C28.2661 27.1432 27.9779 27.465 26.642 27.4667Z" fill="#BABABA"/>
<path d="M25.7641 12.666H14.236C13.5288 12.666 12.9551 13.2398 12.9551 13.9469V25.475C12.9551 26.1821 13.5288 26.7559 14.236 26.7559H25.7641C26.4712 26.7559 27.045 26.1821 27.045 25.475V13.9469C27.045 13.2398 26.4712 12.666 25.7641 12.666ZM18.986 13.5199C19.1261 13.5199 19.2395 13.6334 19.2395 13.7735C19.2395 13.9136 19.1261 14.027 18.986 14.027C18.8459 14.027 18.7325 13.9136 18.7325 13.7735C18.7325 13.6334 18.8459 13.5199 18.986 13.5199ZM18.132 13.5199C18.2721 13.5199 18.3856 13.6334 18.3856 13.7735C18.3856 13.9136 18.2721 14.027 18.132 14.027C17.9919 14.027 17.8785 13.9136 17.8785 13.7735C17.8785 13.6334 17.9919 13.5199 18.132 13.5199ZM17.2781 13.5199C17.4182 13.5199 17.5316 13.6334 17.5316 13.7735C17.5316 13.9136 17.4182 14.027 17.2781 14.027C17.138 14.027 17.0246 13.9136 17.0246 13.7735C17.0246 13.6334 17.138 13.5199 17.2781 13.5199ZM14.236 16.5087C14.236 16.6271 14.1409 16.7222 14.0225 16.7222C13.9041 16.7222 13.809 16.6271 13.809 16.5087V13.7334C13.809 13.615 13.9041 13.5199 14.0225 13.5199H16.3708C16.4892 13.5199 16.5843 13.615 16.5843 13.7334C16.5843 13.8518 16.4892 13.9469 16.3708 13.9469H14.236V16.5087ZM15.5169 15.2278H24.4832V24.1941H15.5169V15.2278ZM21.1076 25.902C20.9675 25.902 20.8541 25.7886 20.8541 25.6485C20.8541 25.5084 20.9675 25.3949 21.1076 25.3949C21.2477 25.3949 21.3611 25.5084 21.3611 25.6485C21.3611 25.7886 21.2477 25.902 21.1076 25.902ZM21.9615 25.902C21.8214 25.902 21.708 25.7886 21.708 25.6485C21.708 25.5084 21.8214 25.3949 21.9615 25.3949C22.1016 25.3949 22.215 25.5084 22.215 25.6485C22.215 25.7886 22.1016 25.902 21.9615 25.902ZM22.8154 25.902C22.6753 25.902 22.5619 25.7886 22.5619 25.6485C22.5619 25.5084 22.6753 25.3949 22.8154 25.3949C22.9555 25.3949 23.0689 25.5084 23.0689 25.6485C23.0689 25.7886 22.9555 25.902 22.8154 25.902ZM26.1911 25.6885C26.1911 25.8069 26.096 25.902 25.9776 25.902H23.6293C23.5109 25.902 23.4158 25.8069 23.4158 25.6885C23.4158 25.5701 23.5109 25.475 23.6293 25.475H25.7642V22.9132C25.7642 22.7948 25.8592 22.6997 25.9776 22.6997C26.096 22.6997 26.1911 22.7948 26.1911 22.9132V25.6885Z" fill="#BABABA"/>
<path d="M16.7979 22.9133H23.2023V16.5088H16.7979V22.9133ZM19.3596 17.7897H20.6405C21.5845 17.7897 22.3484 18.5536 22.3484 19.4976C22.3484 20.4415 21.5845 21.2054 20.6405 21.2054H19.3596C18.4157 21.2054 17.6518 20.4415 17.6518 19.4976C17.6518 18.5536 18.4157 17.7897 19.3596 17.7897Z" fill="#BABABA"/>
<path d="M18.5056 19.9252H21.4943C21.7312 19.9252 21.9213 19.7334 21.9213 19.4983C21.9213 19.2631 21.7312 19.0713 21.4943 19.0713H18.5056C18.2704 19.0713 18.0786 19.2631 18.0786 19.4983C18.0786 19.7334 18.2704 19.9252 18.5056 19.9252Z" fill="#BABABA"/>
</svg>
