<svg width="20" height="18" viewBox="0 0 20 18" fill="none" xmlns="http://www.w3.org/2000/svg">
<path d="M9.90533 17.6217C10.4108 17.1174 10.4108 16.2762 9.90533 15.7711L4.4892 10.3669L18.6935 10.3669C19.4097 10.3669 20 9.77794 20 9.0633C20 8.34866 19.4097 7.75969 18.6935 7.75969L4.4677 7.75969L10.0107 2.22895C10.5162 1.7246 10.5162 0.883455 10.0107 0.378263C9.50524 -0.126088 8.66223 -0.126088 8.15592 0.378263L0.632259 7.88527C0.590273 7.92717 0.548287 7.96906 0.526883 8.01178C0.210754 8.24343 1.22987e-06 8.62127 1.17192e-06 9.06321C1.11677e-06 9.48378 0.18935 9.8411 0.50547 10.0933L8.05062 17.6217C8.55691 18.1261 9.39984 18.1261 9.90533 17.6217Z" fill="#7A7A7A"/>
</svg>
