<svg width="32" height="32" viewBox="0 0 32 32" fill="none" xmlns="http://www.w3.org/2000/svg">
<path d="M22.8779 5H9.12211C8.03368 5 6.96842 5.44 6.20421 6.20421C5.44 6.96842 5 8.03368 5 9.12211V22.8779C5 23.9663 5.44 25.0316 6.20421 25.7958C6.96842 26.56 8.03368 27 9.12211 27H22.8779C23.9663 27 25.0316 26.56 25.7958 25.7958C26.56 25.0316 27 23.9663 27 22.8779V9.12211C27 8.03368 26.56 6.96842 25.7958 6.20421C25.0316 5.44 23.9663 5 22.8779 5ZM22.6232 11.2989L15.7453 20.9326C15.5137 21.2568 15.1432 21.4653 14.7495 21.5116C14.7032 21.5116 14.68 21.5116 14.6337 21.5116C14.2632 21.5116 13.9158 21.3726 13.6611 21.1179L9.53895 16.9726C9.19158 16.6253 9.07579 16.1158 9.19158 15.6526C9.33053 15.1895 9.67789 14.8189 10.1642 14.68C10.6274 14.5411 11.1368 14.68 11.4842 15.0274L14.4716 18.0147L20.4 9.70105C20.6779 9.30737 21.1642 9.07579 21.6505 9.12211C22.1368 9.16842 22.5768 9.46947 22.7621 9.90947C22.9474 10.3726 22.9011 10.9053 22.6232 11.2989Z" fill="#BABABA"/>
</svg>
