<svg width="41" height="40" viewBox="0 0 41 40" fill="none" xmlns="http://www.w3.org/2000/svg">
<path d="M15.2023 29H10.8476V14.9797H15.2023V29ZM13.0226 13.0672C11.6304 13.0672 10.5007 11.9141 10.5007 10.5219C10.5007 9.85303 10.7664 9.21158 11.2394 8.73864C11.7123 8.2657 12.3538 8 13.0226 8C13.6915 8 14.3329 8.2657 14.8058 8.73864C15.2788 9.21158 15.5445 9.85303 15.5445 10.5219C15.5445 11.9141 14.4148 13.0672 13.0226 13.0672ZM31.496 29H27.1507V22.175C27.1507 20.5484 27.1179 18.4625 24.8867 18.4625C22.6226 18.4625 22.2757 20.2297 22.2757 22.0578V29H17.9257V14.9797H22.1023V16.8922H22.1632C22.7445 15.7906 24.1648 14.6281 26.2835 14.6281C30.6898 14.6281 31.5007 17.5297 31.5007 21.2984V29H31.496Z" fill="#BABABA"/>
</svg>
