<svg width="52" height="46" viewBox="0 0 52 46" fill="none" xmlns="http://www.w3.org/2000/svg">
<g filter="url(#filter0_d_419_18088)">
<path d="M35.6288 21.1C35.5257 21.0974 35.4217 21.0957 35.3186 21.0957H17.9034H16.1151C16.1082 21.1593 16.1022 21.1988 16.1022 21.2366C16.1022 23.5596 16.0953 25.8832 16.1065 28.2062C16.1091 28.7588 16.3901 29.1721 16.8833 29.4317C17.1738 29.5855 17.4883 29.5881 17.8055 29.5855C21.97 29.5855 26.1344 29.5829 30.299 29.5812C31.6981 29.5812 33.0972 29.5881 34.4988 29.5769C35.1347 29.5726 35.6847 29.1412 35.8231 28.5276C35.8892 28.2303 35.8892 27.9183 35.8892 27.6098C35.8935 25.5267 35.8892 23.4452 35.8892 21.3623C35.8892 21.0391 35.8849 21.1045 35.6314 21.0984L35.6288 21.1ZM25.8613 23.4676C23.4877 23.4633 21.1141 23.4633 18.7423 23.4608C18.4742 23.4608 18.4759 23.4565 18.4828 23.19C18.4871 22.9812 18.4828 22.7698 18.4828 22.5472H25.9894C25.9894 22.8136 25.9825 23.0706 25.9937 23.3258C25.998 23.4333 25.9696 23.4642 25.8639 23.4642L25.8613 23.4676Z" fill="#EBEBEB"/>
</g>
<g filter="url(#filter1_d_419_18088)">
<path d="M35.8995 17.9863C35.9219 17.0823 35.2748 16.3939 34.4119 16.3999C32.9622 16.4085 31.5099 16.4197 30.0601 16.4223C27.8575 16.4266 25.6558 16.4249 23.4533 16.4223C21.4862 16.4223 19.52 16.4137 17.553 16.4094C16.8492 16.4094 16.2656 16.8537 16.1402 17.5446C16.0809 17.8721 16.1135 18.2158 16.1049 18.5518C16.1006 18.7099 16.1754 18.7899 16.3292 18.7916H16.3971H25.9981H31.6406C32.989 18.7916 34.3356 18.7916 35.684 18.7984C35.8516 18.7984 35.9014 18.7546 35.8911 18.587C35.8782 18.3894 35.8911 18.1866 35.898 17.9863L35.8995 17.9863Z" fill="#EBEBEB"/>
</g>
</svg>
