<svg width="16" height="16" viewBox="0 0 16 16" fill="none" xmlns="http://www.w3.org/2000/svg">
<path d="M14.8976 8.07574C14.4941 7.67136 13.8212 7.67136 13.417 8.07574L9.09372 12.4086L9.09372 1.0452C9.09372 0.472222 8.62255 2.89089e-07 8.05084 2.39108e-07C7.47913 1.89128e-07 7.00795 0.472221 7.00795 1.0452L7.00795 12.4258L2.58335 7.99143C2.17987 7.58706 1.50696 7.58706 1.1028 7.99143C0.699324 8.39581 0.699324 9.07022 1.1028 9.47527L7.10842 15.4942C7.14193 15.5278 7.17544 15.5614 7.20962 15.5785C7.39494 15.8314 7.69721 16 8.05076 16C8.38722 16 8.67307 15.8485 8.87481 15.5956L14.8976 9.5595C15.3011 9.15447 15.3011 8.48013 14.8976 8.07574Z" fill="#7E759D"/>
</svg>
