<svg width="32" height="32" viewBox="0 0 32 32" fill="none" xmlns="http://www.w3.org/2000/svg">
<g filter="url(#filter0_d_316_7857)">
<path d="M23.7352 5.54999H8.26463C6.76577 5.54999 5.54993 6.76583 5.54993 8.26469V23.7352C5.54993 25.2341 6.76577 26.4499 8.26463 26.4499H23.7352C25.234 26.4499 26.4499 25.2341 26.4499 23.7352V8.26469C26.4499 6.76583 25.234 5.54999 23.7352 5.54999ZM25.1921 23.7353C25.1921 24.5424 24.5423 25.1922 23.7352 25.1922H8.26463C7.45758 25.1922 6.80769 24.5424 6.80769 23.7353V8.26475C6.80769 7.4577 7.45754 6.80782 8.26463 6.80782H23.7352C24.5422 6.80782 25.1921 7.45767 25.1921 8.26475V23.7353Z" fill="#EBEBEB"/>
<path d="M20.1086 13.4843H23.8085V9.43865C23.8085 8.74688 23.253 8.19135 22.5612 8.19135H9.43847C8.74669 8.19135 8.19116 8.74684 8.19116 9.43865V22.5614C8.19116 23.2531 8.74666 23.8087 9.43847 23.8087H22.5612C23.253 23.8087 23.8085 23.2532 23.8085 22.5614V18.5157H20.1086C19.7628 18.5157 19.4797 18.2327 19.4797 17.8868C19.4797 17.5409 19.7627 17.2579 20.1086 17.2579H23.8085V14.7424H20.1086C19.7628 14.7424 19.4797 14.4594 19.4797 14.1135C19.4797 13.7676 19.7627 13.4843 20.1086 13.4843ZM13.3586 18.8927C11.7654 18.8927 10.4657 17.593 10.4657 15.9998C10.4657 14.4067 11.7654 13.107 13.3586 13.107C14.9518 13.107 16.2515 14.4067 16.2515 15.9998C16.2515 17.593 14.9518 18.8927 13.3586 18.8927ZM13.3586 14.3647C12.4572 14.3647 11.7235 15.0984 11.7235 15.9998C11.7235 16.9012 12.4572 17.6349 13.3586 17.6349C14.26 17.6349 14.9937 16.9012 14.9937 15.9998C14.9937 15.0984 14.26 14.3647 13.3586 14.3647Z" fill="#EBEBEB"/>
</g>
<defs>
<filter id="filter0_d_316_7857" x="0.709927" y="0.709988" width="30.5799" height="30.58" filterUnits="userSpaceOnUse" color-interpolation-filters="sRGB">
<feFlood flood-opacity="0" result="BackgroundImageFix"/>
<feColorMatrix in="SourceAlpha" type="matrix" values="0 0 0 0 0 0 0 0 0 0 0 0 0 0 0 0 0 0 127 0" result="hardAlpha"/>
<feOffset/>
<feGaussianBlur stdDeviation="2.42"/>
<feComposite in2="hardAlpha" operator="out"/>
<feColorMatrix type="matrix" values="0 0 0 0 1 0 0 0 0 1 0 0 0 0 1 0 0 0 0.25 0"/>
<feBlend mode="normal" in2="BackgroundImageFix" result="effect1_dropShadow_316_7857"/>
<feBlend mode="normal" in="SourceGraphic" in2="effect1_dropShadow_316_7857" result="shape"/>
</filter>
</defs>
</svg>
