<svg width="41" height="40" viewBox="0 0 41 40" fill="none" xmlns="http://www.w3.org/2000/svg">
<path d="M14.5007 19.1436C14.4969 19.1436 14.4932 19.1436 14.4887 19.1436C14.0154 19.1436 13.6313 19.5268 13.6313 20.0009C13.6313 20.475 14.0146 20.8583 14.4887 20.8583C14.4932 20.8583 14.4969 20.8583 14.5015 20.8583H26.5014C26.5051 20.8583 26.5089 20.8583 26.5134 20.8583C26.9867 20.8583 27.3707 20.475 27.3707 20.0009C27.3707 19.5268 26.9874 19.1436 26.5134 19.1436C26.5089 19.1436 26.5051 19.1436 26.5006 19.1436H14.5007Z" fill="#BABABA"/>
<path d="M21.3561 13.9992C21.3561 13.9955 21.3561 13.9917 21.3561 13.9872C21.3561 13.5139 20.9728 13.1299 20.4987 13.1299C20.0247 13.1299 19.6414 13.5132 19.6414 13.9872C19.6414 13.9917 19.6414 13.9955 19.6414 14V13.9992V25.9999C19.6414 26.0036 19.6414 26.0074 19.6414 26.0119C19.6414 26.4852 20.0247 26.8693 20.4987 26.8693C20.9728 26.8693 21.3561 26.486 21.3561 26.0119C21.3561 26.0074 21.3561 26.0036 21.3561 25.9991V25.9999V13.9992Z" fill="#BABABA"/>
<path d="M20.5002 7.99902C13.8821 7.99902 8.49951 13.3824 8.49951 19.9997C8.49951 26.617 13.8829 32.0003 20.5002 32.0003C27.1182 32.0003 32.5008 26.617 32.5008 19.9997C32.5008 13.3824 27.1175 7.99902 20.5002 7.99902ZM20.5002 9.71373C26.1918 9.71373 30.7869 14.3095 30.7869 20.0004C30.7869 25.6914 26.1918 30.2871 20.5002 30.2871C14.8085 30.2871 10.2135 25.6921 10.2135 20.0004C10.2135 14.3088 14.8085 9.71373 20.5002 9.71373Z" fill="#BABABA"/>
</svg>
