<svg width="227" height="72" viewBox="0 0 227 72" fill="none" xmlns="http://www.w3.org/2000/svg">
<path d="M0.333333 3C0.333333 4.47276 1.52724 5.66667 3 5.66667C4.47276 5.66667 5.66667 4.47276 5.66667 3C5.66667 1.52724 4.47276 0.333333 3 0.333333C1.52724 0.333333 0.333333 1.52724 0.333333 3ZM3 3.5H48.3752V2.5H3V3.5ZM65.7725 11.2017L113.237 63.4705L113.977 62.7983L66.5128 10.5295L65.7725 11.2017ZM131.375 71.5H226.5V70.5H131.375V71.5ZM113.237 63.4705C117.881 68.5842 124.467 71.5 131.375 71.5V70.5C124.749 70.5 118.432 67.7032 113.977 62.7983L113.237 63.4705ZM48.3752 3.5C55.0007 3.5 61.3184 6.29682 65.7725 11.2017L66.5128 10.5295C61.8692 5.41583 55.2827 2.5 48.3752 2.5V3.5Z" fill="#759D98"/>
<path d="M0.333333 3C0.333333 4.47276 1.52724 5.66667 3 5.66667C4.47276 5.66667 5.66667 4.47276 5.66667 3C5.66667 1.52724 4.47276 0.333333 3 0.333333C1.52724 0.333333 0.333333 1.52724 0.333333 3ZM3 3.5H48.3752V2.5H3V3.5ZM65.7725 11.2017L113.237 63.4705L113.977 62.7983L66.5128 10.5295L65.7725 11.2017ZM131.375 71.5H226.5V70.5H131.375V71.5ZM113.237 63.4705C117.881 68.5842 124.467 71.5 131.375 71.5V70.5C124.749 70.5 118.432 67.7032 113.977 62.7983L113.237 63.4705ZM48.3752 3.5C55.0007 3.5 61.3184 6.29682 65.7725 11.2017L66.5128 10.5295C61.8692 5.41583 55.2827 2.5 48.3752 2.5V3.5Z" fill="url(#paint0_linear_105_2145)"/>
<defs>
<linearGradient id="paint0_linear_105_2145" x1="2.99999" y1="3" x2="161.5" y2="127.5" gradientUnits="userSpaceOnUse">
<stop stop-color="#0FF47F"/>
<stop offset="0.338798" stop-color="#008080"/>
<stop offset="1" stop-color="#008080" stop-opacity="0"/>
</linearGradient>
</defs>
</svg>
