<svg width="227" height="72" viewBox="0 0 227 72" fill="none" xmlns="http://www.w3.org/2000/svg">
<path d="M0.333333 69C0.333333 67.5272 1.52724 66.3333 3 66.3333C4.47276 66.3333 5.66667 67.5272 5.66667 69C5.66667 70.4728 4.47276 71.6667 3 71.6667C1.52724 71.6667 0.333333 70.4728 0.333333 69ZM3 68.5H48.3752V69.5H3V68.5ZM65.7725 60.7983L113.237 8.52947L113.977 9.20174L66.5128 61.4705L65.7725 60.7983ZM131.375 0.5H226.5V1.5H131.375V0.5ZM113.237 8.52947C117.881 3.41582 124.467 0.5 131.375 0.5V1.5C124.749 1.5 118.432 4.29681 113.977 9.20174L113.237 8.52947ZM48.3752 68.5C55.0007 68.5 61.3184 65.7032 65.7725 60.7983L66.5128 61.4705C61.8692 66.5842 55.2827 69.5 48.3752 69.5V68.5Z" fill="#759D98"/>
<path d="M0.333333 69C0.333333 67.5272 1.52724 66.3333 3 66.3333C4.47276 66.3333 5.66667 67.5272 5.66667 69C5.66667 70.4728 4.47276 71.6667 3 71.6667C1.52724 71.6667 0.333333 70.4728 0.333333 69ZM3 68.5H48.3752V69.5H3V68.5ZM65.7725 60.7983L113.237 8.52947L113.977 9.20174L66.5128 61.4705L65.7725 60.7983ZM131.375 0.5H226.5V1.5H131.375V0.5ZM113.237 8.52947C117.881 3.41582 124.467 0.5 131.375 0.5V1.5C124.749 1.5 118.432 4.29681 113.977 9.20174L113.237 8.52947ZM48.3752 68.5C55.0007 68.5 61.3184 65.7032 65.7725 60.7983L66.5128 61.4705C61.8692 66.5842 55.2827 69.5 48.3752 69.5V68.5Z" fill="url(#paint0_linear_105_2151)"/>
<defs>
<linearGradient id="paint0_linear_105_2151" x1="2.99999" y1="69" x2="161.5" y2="-55.4999" gradientUnits="userSpaceOnUse">
<stop stop-color="#0FF47F"/>
<stop offset="0.338798" stop-color="#008080"/>
<stop offset="1" stop-color="#008080" stop-opacity="0"/>
</linearGradient>
</defs>
</svg>
