<svg width="40" height="42" viewBox="0 0 40 42" fill="none" xmlns="http://www.w3.org/2000/svg">
<path fill-rule="evenodd" clip-rule="evenodd" d="M1 17.6151C4.01567 12.8391 9.70227 10.0199 15.8713 9.1578C14.7816 9.6561 13.7971 10.3424 12.9626 11.1786C11.1608 12.9804 10.0469 15.4685 10.0469 18.2168C10.0469 20.965 11.1607 23.4531 12.9626 25.255C13.7988 26.0912 14.7834 26.7792 15.8713 27.2757C9.70183 26.4136 4.01567 23.5945 1 18.8184H4.66228C4.83988 18.8184 4.99851 18.7426 5.10885 18.6202L6.24339 17.5356C6.41236 17.6012 6.59341 17.6356 6.78481 17.6356C7.61589 17.6356 8.29009 16.9615 8.29009 16.1304C8.29009 15.2993 7.61593 14.6251 6.78481 14.6251C5.95374 14.6251 5.27954 15.2992 5.27954 16.1304C5.27954 16.3286 5.31747 16.5183 5.38816 16.6907L4.42432 17.6132L1 17.6151ZM24.1287 9.1578C30.2982 10.0216 35.9843 12.839 39 17.6151H35.3377C35.1601 17.6151 35.0015 17.691 34.8911 17.8134L33.7566 18.8979C33.5876 18.8324 33.4066 18.7979 33.2152 18.7979C32.3841 18.7979 31.7099 19.4721 31.7099 20.3032C31.7099 21.1343 32.3841 21.8085 33.2152 21.8085C34.0463 21.8085 34.7205 21.1343 34.7205 20.3032C34.7205 20.1049 34.6825 19.9152 34.6118 19.7428L35.5757 18.8204H39C35.9843 23.5964 30.2977 26.4138 24.1287 27.2777C25.2184 26.7794 26.2029 26.0931 27.0374 25.2569C28.8392 23.4551 29.9531 20.967 29.9531 18.2187C29.9531 15.4703 28.8393 12.9823 27.0374 11.1805C26.2029 10.3443 25.2184 9.6561 24.1287 9.1578ZM25.9839 16.6356H25.9822C25.9701 16.5908 25.9529 16.5442 25.9288 16.5011C25.7701 16.2097 25.4063 16.1028 25.1149 16.2615C24.9701 16.3408 24.8114 16.4028 24.639 16.4477C24.4769 16.4891 24.3062 16.5115 24.1304 16.5115C23.5631 16.5115 23.0493 16.2822 22.6768 15.9097C22.3044 15.5373 22.0751 15.0235 22.0751 14.4562C22.0751 14.2406 22.1061 14.0389 22.1613 13.8544C22.2199 13.663 22.3096 13.4785 22.4234 13.3095C22.4492 13.2699 22.4717 13.2268 22.4889 13.1802C22.6027 12.8681 22.4441 12.5233 22.132 12.4095C21.794 12.2853 21.444 12.1905 21.0836 12.1267C20.7302 12.0612 20.3698 12.0284 20.0008 12.0284C18.2921 12.0284 16.7438 12.7216 15.6247 13.8406C14.504 14.9614 13.8125 16.508 13.8125 18.2167C13.8125 19.9254 14.5057 21.4738 15.6247 22.5928C16.7455 23.7136 18.2921 24.405 20.0008 24.405C21.7096 24.405 23.2579 23.7119 24.377 22.5928C25.4977 21.4721 26.1891 19.9254 26.1891 18.2167C26.1891 17.9581 26.1702 17.6908 26.1357 17.4184C26.1012 17.1477 26.0512 16.8856 25.9839 16.6356ZM24.9856 18.2184C24.9856 18.0029 24.9735 17.7995 24.9511 17.6098L24.9356 17.6132C24.677 17.6788 24.4063 17.7133 24.1304 17.7133C23.2303 17.7133 22.4148 17.3477 21.8251 16.758C21.2354 16.1683 20.8698 15.3528 20.8698 14.4527C20.8698 14.1268 20.9198 13.8078 21.0129 13.5027C21.0285 13.4492 21.0457 13.3975 21.0647 13.344C21.0009 13.3302 20.9388 13.3182 20.875 13.3061C20.594 13.2595 20.3008 13.232 20.0008 13.232C18.6249 13.232 17.3783 13.7906 16.4747 14.6924C15.573 15.5942 15.0143 16.8408 15.0143 18.2184C15.0143 19.5944 15.573 20.841 16.4747 21.7445C17.3765 22.6463 18.6231 23.2049 20.0008 23.2049C21.3768 23.2049 22.6234 22.6463 23.5269 21.7445C24.4287 20.841 24.9856 19.5944 24.9856 18.2184ZM26.1874 12.0317C24.6046 10.4489 22.4165 9.46952 20.0007 9.46952C17.5849 9.46952 15.3969 10.4489 13.814 12.0317C12.2312 13.6146 11.2518 15.8026 11.2518 18.2184C11.2518 20.6343 12.2312 22.8223 13.814 24.4052C15.3968 25.988 17.5849 26.9674 20.0007 26.9674C22.4165 26.9674 24.6045 25.988 26.1874 24.4052C27.7702 22.8223 28.7496 20.6343 28.7496 18.2184C28.7496 15.8011 27.7702 13.6146 26.1874 12.0317ZM28.8048 31.0518C28.8048 30.719 29.0755 30.4501 29.4066 30.4501C29.7394 30.4501 30.0083 30.719 30.0083 31.0518V33.3589L32.7551 36.0314C32.7792 36.0538 32.7999 36.078 32.8189 36.1038C33.0758 35.9711 33.3654 35.8969 33.6741 35.8969C34.7052 35.8969 35.5397 36.7332 35.5397 37.7626C35.5397 38.7936 34.7035 39.6282 33.6741 39.6282C32.643 39.6282 31.8084 38.792 31.8084 37.7626C31.8084 37.4729 31.874 37.1988 31.9929 36.9539C31.9671 36.935 31.9412 36.916 31.9188 36.8918L29.0204 34.071C28.8893 33.9607 28.8048 33.7951 28.8048 33.6089L28.8048 31.0518ZM21.8664 39.1745C21.8664 40.2056 21.0301 41.0402 20.0007 41.0402C18.9697 41.0402 18.1351 40.2039 18.1351 39.1745C18.1351 38.3521 18.6679 37.6538 19.4059 37.4055C19.4007 37.3744 19.3972 37.3417 19.3972 37.3089V33.0845C19.3972 32.7518 19.6662 32.4828 19.999 32.4828C20.3318 32.4828 20.6008 32.7518 20.6008 33.0845V37.3089C20.6008 37.3417 20.5973 37.3744 20.5922 37.4055C21.3336 37.6538 21.8664 38.3521 21.8664 39.1745ZM4.46184 37.6917C4.46184 38.7227 5.29636 39.5573 6.32748 39.5573C7.35855 39.5573 8.19311 38.7211 8.19311 37.6917C8.19311 37.402 8.12759 37.1279 8.00862 36.883C8.03448 36.8658 8.06035 36.8451 8.08276 36.821L10.9812 34.0001C11.1122 33.8898 11.1967 33.7242 11.1967 33.538V31.05C11.1967 30.7172 10.926 30.4482 10.595 30.4482C10.2622 30.4482 9.99319 30.7189 9.99319 31.05V33.2863L7.24647 35.9588C7.22233 35.9813 7.20164 36.0054 7.18267 36.0313C6.92576 35.8985 6.63608 35.8244 6.32745 35.8244C5.29638 35.8261 4.46184 36.6623 4.46184 37.6917ZM9.37246 9.97462C15.9158 7.35723 24.0853 7.35723 30.6269 9.97462C29.7096 8.90386 28.6182 7.97453 27.3923 7.22618L30.6045 4.01395C30.839 3.77945 30.839 3.39669 30.6045 3.16217C30.3683 2.92768 29.9872 2.92768 29.7527 3.16217L26.2939 6.62097C24.5766 5.77435 22.6472 5.26228 20.6007 5.1778L20.6024 0.601766C20.6024 0.268987 20.3317 0 20.0007 0C19.6679 0 19.3989 0.270704 19.3989 0.601766V5.1778C17.3522 5.26229 15.4228 5.77268 13.7057 6.62097L10.2469 3.16217C10.0107 2.92768 9.62962 2.92768 9.3951 3.16217C9.16058 3.39667 9.16061 3.77943 9.3951 4.01395L12.6073 7.22618C11.3814 7.97449 10.2897 8.90386 9.37246 9.97462ZM30.6287 26.4602C24.0853 29.0776 15.9158 29.0776 9.37422 26.4602C11.8864 29.3948 15.7141 31.2693 20.0006 31.2693C24.287 31.2693 28.1149 29.395 30.6287 26.4602Z" fill="#BABABA"/>
</svg>
