<svg width="56" height="56" viewBox="0 0 56 56" fill="none" xmlns="http://www.w3.org/2000/svg">
<path d="M14.4836 36.2189C9.8711 35.2827 6.39941 31.2047 6.39941 26.3158C6.39941 20.7348 10.9237 16.2106 16.5047 16.2106C17.0401 16.2106 17.5658 16.2522 18.0788 16.3324C19.8892 11.9131 24.2334 8.80005 29.3047 8.80005C35.3138 8.80005 40.302 13.1709 41.2636 18.9069C41.3193 18.9058 41.3751 18.9053 41.431 18.9053C46.2678 18.9053 50.1889 22.8263 50.1889 27.6632C50.1889 32.0419 46.9755 35.67 42.7783 36.3181" stroke="#0FF47F" stroke-width="2.8" stroke-linecap="round"/>
<rect x="17.7715" y="26.3159" width="21.7196" height="8.35368" rx="2.8" stroke="#0FF47F" stroke-width="2.8"/>
<rect x="17.7715" y="38.8464" width="21.7196" height="8.35368" rx="2.8" stroke="#0FF47F" stroke-width="2.8"/>
<path d="M20.2773 34.6697V38.8465" stroke="#0FF47F" stroke-width="2.8"/>
<path d="M36.9844 34.6697V38.8465" stroke="#0FF47F" stroke-width="2.8"/>
<path d="M22.7832 30.4929L21.9478 30.4929" stroke="#0FF47F" stroke-width="2.8" stroke-linecap="round"/>
<path d="M22.7832 43.0232L21.9478 43.0232" stroke="#0FF47F" stroke-width="2.8" stroke-linecap="round"/>
<path d="M26.96 43.0232L26.1246 43.0232" stroke="#0FF47F" stroke-width="2.8" stroke-linecap="round"/>
</svg>
