<svg width="56" height="56" viewBox="0 0 56 56" fill="none" xmlns="http://www.w3.org/2000/svg">
<path d="M27.9998 45.2164V28.7593C27.9998 27.4608 29.0524 26.4083 30.3508 26.4083H44.8488C46.1472 26.4083 47.1998 27.4608 47.1998 28.7593V45.2164C47.1998 46.5149 46.1472 47.5674 44.8488 47.5674H30.3508C29.0524 47.5674 27.9998 46.5149 27.9998 45.2164ZM27.9998 45.2164V35.4205C27.9998 34.1221 26.9472 33.0695 25.6488 33.0695H11.1508C9.85239 33.0695 8.7998 34.1221 8.7998 35.4205V45.2164C8.7998 46.5149 9.85239 47.5674 11.1508 47.5674H25.6488C26.9472 47.5674 27.9998 46.5149 27.9998 45.2164ZM8.7998 40.1225H47.1998M27.9998 33.4613H47.1998M12.7182 24.8409L21.7608 15.7924C22.526 15.0267 23.7672 15.0267 24.5324 15.7924L29.0154 20.2783C29.7806 21.044 31.0218 21.044 31.787 20.2783L44.457 7.6001M44.457 7.6001H37.9916M44.457 7.6001V13.6736" stroke="#0FF47F" stroke-width="2.8" stroke-linecap="round" stroke-linejoin="round"/>
</svg>
