<svg width="56" height="56" viewBox="0 0 56 56" fill="none" xmlns="http://www.w3.org/2000/svg">
<path d="M8.79999 29H47.2V27H8.79999V29ZM28 46.2001C17.9484 46.2001 9.79999 38.0516 9.79999 28H7.79999C7.79999 39.1562 16.8438 48.2001 28 48.2001V46.2001ZM9.79999 28C9.79999 17.9485 17.9484 9.80005 28 9.80005V7.80005C16.8438 7.80005 7.79999 16.8439 7.79999 28H9.79999ZM28 9.80005C38.0516 9.80005 46.2 17.9485 46.2 28H48.2C48.2 16.8439 39.1561 7.80005 28 7.80005V9.80005ZM46.2 28C46.2 38.0516 38.0516 46.2001 28 46.2001V48.2001C39.1561 48.2001 48.2 39.1562 48.2 28H46.2ZM28 46.2001C27.1472 46.2001 26.2594 45.8153 25.3678 44.9668C24.4711 44.1134 23.618 42.8312 22.8798 41.1704C21.4046 37.8511 20.4667 33.1956 20.4667 28H18.4667C18.4667 33.4084 19.439 38.3528 21.0522 41.9826C21.8583 43.7963 22.844 45.3259 23.989 46.4156C25.1393 47.5103 26.4964 48.2001 28 48.2001V46.2001ZM20.4667 28C20.4667 22.8045 21.4046 18.149 22.8798 14.8297C23.618 13.1689 24.4711 11.8867 25.3678 11.0333C26.2594 10.1848 27.1472 9.80005 28 9.80005V7.80005C26.4964 7.80005 25.1393 8.48985 23.989 9.58448C22.844 10.6742 21.8583 12.2038 21.0522 14.0175C19.439 17.6473 18.4667 22.5917 18.4667 28H20.4667ZM28 9.80005C28.8528 9.80005 29.7406 10.1848 30.6322 11.0333C31.5289 11.8867 32.382 13.1689 33.1202 14.8297C34.5954 18.149 35.5333 22.8045 35.5333 28H37.5333C37.5333 22.5917 36.561 17.6473 34.9478 14.0175C34.1417 12.2038 33.156 10.6742 32.0109 9.58448C30.8607 8.48985 29.5036 7.80005 28 7.80005V9.80005ZM35.5333 28C35.5333 33.1956 34.5954 37.8511 33.1202 41.1704C32.382 42.8312 31.5289 44.1134 30.6322 44.9668C29.7406 45.8153 28.8528 46.2001 28 46.2001V48.2001C29.5036 48.2001 30.8607 47.5103 32.0109 46.4156C33.156 45.3259 34.1417 43.7963 34.9478 41.9826C36.561 38.3528 37.5333 33.4084 37.5333 28H35.5333Z" fill="#0FF47F"/>
</svg>
