<svg width="40" height="40" viewBox="0 0 40 40" fill="none" xmlns="http://www.w3.org/2000/svg">
<g clip-path="url(#clip0_624_27714)">
<rect width="40" height="40" rx="4" fill="#000405"/>
<g filter="url(#filter0_d_624_27714)">
<path d="M29.7537 22.9804V13.3582C29.7537 12.7327 29.5052 12.1329 29.063 11.6907C28.6207 11.2484 28.0209 11 27.3955 11H13.3582C12.7327 11 12.1329 11.2484 11.6907 11.6907C11.2484 12.1329 11 12.7327 11 13.3582V22.9804C11 23.6058 11.2484 24.2056 11.6907 24.6479C12.1329 25.0901 12.7327 25.3386 13.3582 25.3386H15.5528V28.3312C15.5527 28.4634 15.5918 28.5927 15.6652 28.7027C15.7387 28.8127 15.8431 28.8985 15.9653 28.9491C16.0875 28.9997 16.2219 29.013 16.3516 28.9871C16.4813 28.9613 16.6005 28.8976 16.6939 28.804L20.1594 25.3326H27.3955C28.0199 25.3326 28.6188 25.085 29.0609 24.644C29.5029 24.2031 29.7521 23.6048 29.7537 22.9804ZM21.3145 13.6913C21.3145 13.6072 21.3479 13.5265 21.4074 13.467C21.4669 13.4076 21.5476 13.3741 21.6317 13.3741H22.9365C23.0206 13.3741 23.1013 13.4076 23.1608 13.467C23.2203 13.5265 23.2537 13.6072 23.2537 13.6913V14.9762C23.2537 15.0603 23.2203 15.141 23.1608 15.2005C23.1013 15.26 23.0206 15.2934 22.9365 15.2934H21.6317C21.5476 15.2934 21.4669 15.26 21.4074 15.2005C21.3479 15.141 21.3145 15.0603 21.3145 14.9762V13.6913ZM19.7185 17.1747H21.0232C21.0649 17.1747 21.1061 17.1829 21.1446 17.1989C21.1831 17.2148 21.2181 17.2382 21.2475 17.2677C21.277 17.2971 21.3004 17.3321 21.3163 17.3706C21.3322 17.4091 21.3404 17.4503 21.3404 17.492V18.7768C21.3404 18.8184 21.3322 18.8597 21.3163 18.8982C21.3004 18.9367 21.277 18.9716 21.2475 19.0011C21.2181 19.0305 21.1831 19.0539 21.1446 19.0699C21.1061 19.0858 21.0649 19.094 21.0232 19.094H19.7224C19.6383 19.094 19.5576 19.0606 19.4981 19.0011C19.4387 18.9416 19.4052 18.8609 19.4052 18.7768V17.494C19.405 17.4521 19.413 17.4107 19.4288 17.3719C19.4446 17.3332 19.468 17.298 19.4974 17.2684C19.5269 17.2387 19.562 17.2151 19.6006 17.1991C19.6392 17.183 19.6806 17.1747 19.7224 17.1747H19.7185ZM17.5239 13.6913C17.5239 13.6072 17.5573 13.5265 17.6168 13.467C17.6763 13.4076 17.757 13.3741 17.8411 13.3741H19.1399C19.224 13.3741 19.3047 13.4076 19.3642 13.467C19.4237 13.5265 19.4571 13.6072 19.4571 13.6913V14.9762C19.4571 15.0603 19.4237 15.141 19.3642 15.2005C19.3047 15.26 19.224 15.2934 19.1399 15.2934H17.8351C17.751 15.2934 17.6703 15.26 17.6108 15.2005C17.5513 15.141 17.5179 15.0603 17.5179 14.9762L17.5239 13.6913ZM13.7133 13.6913C13.7133 13.6072 13.7467 13.5265 13.8062 13.467C13.8657 13.4076 13.9464 13.3741 14.0305 13.3741H15.3293C15.4134 13.3741 15.4941 13.4076 15.5536 13.467C15.6131 13.5265 15.6465 13.6072 15.6465 13.6913V14.9762C15.6465 15.0603 15.6131 15.141 15.5536 15.2005C15.4941 15.26 15.4134 15.2934 15.3293 15.2934H14.0245C13.9404 15.2934 13.8597 15.26 13.8002 15.2005C13.7407 15.141 13.7073 15.0603 13.7073 14.9762L13.7133 13.6913ZM15.6525 22.6153C15.6525 22.6994 15.6191 22.7801 15.5596 22.8396C15.5001 22.8991 15.4194 22.9325 15.3353 22.9325H14.0245C13.9404 22.9325 13.8597 22.8991 13.8002 22.8396C13.7407 22.7801 13.7073 22.6994 13.7073 22.6153V21.3305C13.7073 21.2888 13.7155 21.2476 13.7315 21.2091C13.7474 21.1706 13.7708 21.1356 13.8002 21.1062C13.8297 21.0767 13.8646 21.0533 13.9031 21.0374C13.9416 21.0215 13.9829 21.0133 14.0245 21.0133H15.3293C15.371 21.0133 15.4122 21.0215 15.4507 21.0374C15.4892 21.0533 15.5242 21.0767 15.5536 21.1062C15.5831 21.1356 15.6064 21.1706 15.6224 21.2091C15.6383 21.2476 15.6465 21.2888 15.6465 21.3305L15.6525 22.6153ZM17.2226 19.096H15.9119C15.8695 19.0968 15.8275 19.0891 15.7882 19.0734C15.7489 19.0577 15.7131 19.0343 15.683 19.0045C15.6528 18.9748 15.629 18.9393 15.6128 18.9002C15.5966 18.8611 15.5884 18.8191 15.5887 18.7768V17.494C15.5887 17.4098 15.6221 17.3291 15.6816 17.2696C15.7411 17.2102 15.8217 17.1767 15.9059 17.1767H17.2107C17.2948 17.1767 17.3755 17.2102 17.435 17.2696C17.4944 17.3291 17.5279 17.4098 17.5279 17.494V18.7788C17.5274 18.8615 17.4945 18.9408 17.4364 18.9997C17.3782 19.0586 17.2994 19.0924 17.2166 19.094L17.2226 19.096ZM23.2358 22.6153C23.2358 22.657 23.2276 22.6982 23.2116 22.7367C23.1957 22.7752 23.1723 22.8101 23.1429 22.8396C23.1134 22.8691 23.0784 22.8924 23.0399 22.9084C23.0015 22.9243 22.9602 22.9325 22.9186 22.9325H17.8351C17.7935 22.9325 17.7522 22.9243 17.7137 22.9084C17.6752 22.8924 17.6403 22.8691 17.6108 22.8396C17.5813 22.8101 17.558 22.7752 17.542 22.7367C17.5261 22.6982 17.5179 22.657 17.5179 22.6153V21.3305C17.5179 21.2888 17.5261 21.2476 17.542 21.2091C17.558 21.1706 17.5813 21.1356 17.6108 21.1062C17.6403 21.0767 17.6752 21.0533 17.7137 21.0374C17.7522 21.0215 17.7935 21.0133 17.8351 21.0133H22.9186C22.9602 21.0133 23.0015 21.0215 23.0399 21.0374C23.0784 21.0533 23.1134 21.0767 23.1429 21.1062C23.1723 21.1356 23.1957 21.1706 23.2116 21.2091C23.2276 21.2476 23.2358 21.2888 23.2358 21.3305V22.6153ZM24.8318 19.096H23.5191C23.4774 19.096 23.4362 19.0878 23.3977 19.0718C23.3592 19.0559 23.3242 19.0325 23.2948 19.0031C23.2653 18.9736 23.2419 18.9387 23.226 18.9002C23.2101 18.8617 23.2019 18.8204 23.2019 18.7788V17.494C23.2019 17.4098 23.2353 17.3291 23.2948 17.2696C23.3542 17.2102 23.4349 17.1767 23.5191 17.1767H24.8238C24.908 17.1767 24.9887 17.2102 25.0481 17.2696C25.1076 17.3291 25.1411 17.4098 25.1411 17.494V18.7788C25.1405 18.8626 25.1069 18.9427 25.0474 19.0018C24.988 19.0609 24.9076 19.094 24.8238 19.094L24.8318 19.096ZM27.0464 22.6153C27.0464 22.657 27.0381 22.6982 27.0222 22.7367C27.0063 22.7752 26.9829 22.8101 26.9534 22.8396C26.924 22.8691 26.889 22.8924 26.8505 22.9084C26.812 22.9243 26.7708 22.9325 26.7291 22.9325H25.4244C25.3827 22.9325 25.3415 22.9243 25.303 22.9084C25.2645 22.8924 25.2295 22.8691 25.2001 22.8396C25.1706 22.8101 25.1472 22.7752 25.1313 22.7367C25.1153 22.6982 25.1071 22.657 25.1071 22.6153V21.3305C25.1071 21.2888 25.1153 21.2476 25.1313 21.2091C25.1472 21.1706 25.1706 21.1356 25.2001 21.1062C25.2295 21.0767 25.2645 21.0533 25.303 21.0374C25.3415 21.0215 25.3827 21.0133 25.4244 21.0133H26.7291C26.7708 21.0133 26.812 21.0215 26.8505 21.0374C26.889 21.0533 26.924 21.0767 26.9534 21.1062C26.9829 21.1356 27.0063 21.1706 27.0222 21.2091C27.0381 21.2476 27.0464 21.2888 27.0464 21.3305V22.6153ZM27.0464 14.9762C27.0464 15.0178 27.0381 15.0591 27.0222 15.0976C27.0063 15.1361 26.9829 15.171 26.9534 15.2005C26.924 15.2299 26.889 15.2533 26.8505 15.2692C26.812 15.2852 26.7708 15.2934 26.7291 15.2934H25.4244C25.3402 15.2934 25.2595 15.26 25.2001 15.2005C25.1406 15.141 25.1071 15.0603 25.1071 14.9762V13.6913C25.1071 13.6072 25.1406 13.5265 25.2001 13.467C25.2595 13.4076 25.3402 13.3741 25.4244 13.3741H26.7291C26.7708 13.3741 26.812 13.3823 26.8505 13.3983C26.889 13.4142 26.924 13.4376 26.9534 13.467C26.9829 13.4965 27.0063 13.5315 27.0222 13.57C27.0381 13.6084 27.0464 13.6497 27.0464 13.6913V14.9762Z" fill="#0FF47F"/>
</g>
</g>
<rect x="0.5" y="0.5" width="39" height="39" rx="3.5" stroke="#122220" stroke-opacity="0.4"/>
<rect x="0.5" y="0.5" width="39" height="39" rx="3.5" stroke="url(#paint0_linear_624_27714)" stroke-opacity="0.3"/>
<defs>
<filter id="filter0_d_624_27714" x="-4" y="-4" width="48" height="48" filterUnits="userSpaceOnUse" color-interpolation-filters="sRGB">
<feFlood flood-opacity="0" result="BackgroundImageFix"/>
<feColorMatrix in="SourceAlpha" type="matrix" values="0 0 0 0 0 0 0 0 0 0 0 0 0 0 0 0 0 0 127 0" result="hardAlpha"/>
<feOffset/>
<feGaussianBlur stdDeviation="6"/>
<feColorMatrix type="matrix" values="0 0 0 0 0.0588235 0 0 0 0 0.956863 0 0 0 0 0.498039 0 0 0 0.5 0"/>
<feBlend mode="normal" in2="BackgroundImageFix" result="effect1_dropShadow_624_27714"/>
<feBlend mode="normal" in="SourceGraphic" in2="effect1_dropShadow_624_27714" result="shape"/>
</filter>
<linearGradient id="paint0_linear_624_27714" x1="14.0505" y1="30.1786" x2="-3.15432" y2="13.0241" gradientUnits="userSpaceOnUse">
<stop stop-color="#008080" stop-opacity="0"/>
<stop offset="0.715" stop-color="#008080"/>
<stop offset="1" stop-color="#0FF47F"/>
</linearGradient>
<clipPath id="clip0_624_27714">
<rect width="40" height="40" rx="4" fill="white"/>
</clipPath>
</defs>
</svg>
