<svg width="40" height="40" viewBox="0 0 40 40" fill="none" xmlns="http://www.w3.org/2000/svg">
<g clip-path="url(#clip0_677_60879)">
<rect width="40" height="40" rx="4" fill="#000405"/>
<g filter="url(#filter0_d_677_60879)">
<path d="M21.5301 27.5215H18.4846C18.0526 27.5215 17.6836 27.8629 17.6836 28.292V28.2999C17.6866 29.1078 18.0654 29.7925 18.4541 30.3982C18.5754 30.2088 18.6987 30.0164 18.8102 29.8151C18.8536 29.7323 18.9394 29.6711 19.0401 29.6711C19.1713 29.6711 19.2778 29.7668 19.2975 29.8911C19.4189 30.4643 19.7089 30.9743 20.0049 31.432C20.0078 31.4271 20.0128 31.4192 20.0147 31.4143C20.3107 30.9497 20.6155 30.4672 20.7349 29.8941C20.7546 29.7875 20.8434 29.7076 20.9499 29.6899C21.0585 29.6771 21.165 29.7303 21.2173 29.824C21.3238 30.0263 21.4393 30.2127 21.5586 30.3972C21.5636 30.3893 21.5665 30.3824 21.5715 30.3745C21.9503 29.7806 22.3419 29.165 22.339 28.3541V28.2861C22.3261 27.8569 21.9651 27.5186 21.5359 27.5186L21.5301 27.5215Z" fill="#0FF47F"/>
<path d="M22.5922 26.7491V26.2361C22.5922 26.0901 22.4738 25.9707 22.3268 25.9707H17.6853C17.5393 25.9707 17.4199 26.0891 17.4199 26.2361V26.7491C17.4199 26.8852 17.5334 27.0016 17.6725 27.0065H22.3317C22.4728 27.0065 22.5892 26.8931 22.5892 26.7491H22.5922Z" fill="#0FF47F"/>
<path d="M26.4444 15.1241C26.1662 12.0759 23.5775 9.63627 20.4237 9.44484C18.573 9.33337 16.828 9.95782 15.5041 11.2028C14.2443 12.3925 13.5469 13.9858 13.5469 15.6933C13.5469 17.2895 14.1684 18.8097 15.295 19.9717C16.3101 21.0194 16.9138 22.3156 17.0223 23.6563C17.0322 23.7954 17.1457 23.904 17.2848 23.904H19.4847C19.6307 23.904 19.75 23.7856 19.75 23.6386V20.9899C19.7126 20.9701 19.677 20.9445 19.6435 20.9169L16.5498 17.9644C16.4462 17.8657 16.388 17.7315 16.388 17.5905C16.388 17.5678 16.391 17.5421 16.3979 17.5194L16.6583 16.598C16.6958 16.4619 16.8379 16.3781 16.9769 16.4185C17.1131 16.459 17.194 16.6 17.1565 16.7391L16.9168 17.5974L20.0006 20.5421L23.1021 17.5974L22.8624 16.7391C22.8249 16.603 22.9058 16.4589 23.042 16.4185C23.1781 16.381 23.3221 16.4619 23.3606 16.598L23.621 17.5194C23.6289 17.5421 23.6309 17.5678 23.6309 17.5905C23.6309 17.7296 23.5727 17.8657 23.4691 17.9644L20.3754 20.9169C20.3428 20.9475 20.3073 20.9702 20.2689 20.9899V23.6386C20.2689 23.7846 20.3872 23.904 20.5342 23.904H22.7341C22.8732 23.904 22.9867 23.7954 22.9966 23.6544C23.1001 22.288 23.6782 21.0175 24.6559 20.0427C25.9591 18.7346 26.6101 16.9412 26.4493 15.1231L26.4444 15.1241ZM16.6661 12.2001C15.7338 13.0742 15.1784 14.3093 15.1103 15.6224C15.1054 15.7131 15.0975 15.8019 15.0975 15.8946C15.0975 16.0387 14.9811 16.1521 14.84 16.1521C14.699 16.1521 14.5826 16.0357 14.5826 15.8946C14.5826 14.336 15.2139 12.8542 16.3149 11.8233C17.3379 10.8664 18.6588 10.386 20.0271 10.4797C20.1681 10.4896 20.2766 10.6109 20.2668 10.755C20.2569 10.896 20.1326 11.0045 19.9916 10.9947C19.9107 10.9897 19.8327 10.9917 19.7538 10.9917C18.6144 10.9769 17.5263 11.3982 16.6679 12.2012L16.6661 12.2001ZM22.2723 16.0593C22.222 16.1195 22.149 16.153 22.0731 16.153C22.0149 16.153 21.9567 16.1333 21.9063 16.0928L21.5532 15.7969C21.4545 15.716 21.3135 15.716 21.2148 15.7969L20.9879 15.9863C20.8183 16.1273 20.5716 16.1273 20.4019 15.9863L20.175 15.7969C20.0764 15.716 19.9353 15.716 19.8367 15.7969L19.6098 15.9863C19.4401 16.1273 19.1935 16.1273 19.0238 15.9863L18.7969 15.7969C18.6983 15.716 18.5572 15.716 18.4585 15.7969L18.1054 16.0928C17.9969 16.1836 17.8331 16.1688 17.7414 16.0603C17.6506 15.9517 17.6654 15.788 17.7739 15.6962L18.3343 15.2286C18.504 15.0876 18.7506 15.0876 18.9203 15.2286L19.1472 15.418C19.2458 15.4989 19.3869 15.4989 19.4855 15.418L19.7124 15.2286C19.8821 15.0876 20.1287 15.0876 20.2984 15.2286L20.5253 15.418C20.6239 15.4989 20.765 15.4989 20.8637 15.418L21.0905 15.2286C21.2602 15.0876 21.5068 15.0876 21.6765 15.2286L22.2369 15.6982C22.3454 15.789 22.3602 15.9537 22.2694 16.0622L22.2723 16.0593Z" fill="#0FF47F"/>
<path d="M23.1085 25.1963V24.6784C23.1085 24.5343 22.9921 24.4209 22.8511 24.4209H17.1637C17.0246 24.4209 16.9062 24.5343 16.9062 24.6784V25.1963C16.9062 25.3403 17.0227 25.4567 17.1637 25.4567H22.8511C22.9902 25.4567 23.1085 25.3403 23.1085 25.1963Z" fill="#0FF47F"/>
</g>
</g>
<rect x="0.5" y="0.5" width="39" height="39" rx="3.5" stroke="#122220" stroke-opacity="0.4"/>
<rect x="0.5" y="0.5" width="39" height="39" rx="3.5" stroke="url(#paint0_linear_677_60879)" stroke-opacity="0.3"/>
<defs>
<filter id="filter0_d_677_60879" x="-4" y="-4" width="48" height="48" filterUnits="userSpaceOnUse" color-interpolation-filters="sRGB">
<feFlood flood-opacity="0" result="BackgroundImageFix"/>
<feColorMatrix in="SourceAlpha" type="matrix" values="0 0 0 0 0 0 0 0 0 0 0 0 0 0 0 0 0 0 127 0" result="hardAlpha"/>
<feOffset/>
<feGaussianBlur stdDeviation="6"/>
<feColorMatrix type="matrix" values="0 0 0 0 0.0588235 0 0 0 0 0.956863 0 0 0 0 0.498039 0 0 0 0.5 0"/>
<feBlend mode="normal" in2="BackgroundImageFix" result="effect1_dropShadow_677_60879"/>
<feBlend mode="normal" in="SourceGraphic" in2="effect1_dropShadow_677_60879" result="shape"/>
</filter>
<linearGradient id="paint0_linear_677_60879" x1="14.0505" y1="30.1786" x2="-3.15432" y2="13.0241" gradientUnits="userSpaceOnUse">
<stop stop-color="#008080" stop-opacity="0"/>
<stop offset="0.715" stop-color="#008080"/>
<stop offset="1" stop-color="#0FF47F"/>
</linearGradient>
<clipPath id="clip0_677_60879">
<rect width="40" height="40" rx="4" fill="white"/>
</clipPath>
</defs>
</svg>
