<svg width="48" height="48" viewBox="0 0 48 48" fill="none" xmlns="http://www.w3.org/2000/svg">
<path d="M32.348 16.3538C35.0585 20.3637 36.3971 24.8867 35.8967 30.0937C35.8946 30.1157 35.8832 30.1359 35.8652 30.1492C33.8126 31.6657 31.8239 32.5861 29.8631 33.1964C29.8478 33.2011 29.8315 33.2009 29.8164 33.1957C29.8012 33.1906 29.7881 33.1808 29.7788 33.1678C29.3258 32.5336 28.9142 31.865 28.5536 31.1628C28.5329 31.1215 28.5518 31.0717 28.5944 31.0554C29.2481 30.8076 29.8697 30.5105 30.4676 30.1589C30.5147 30.1311 30.5177 30.0632 30.4742 30.0306C30.3473 29.9358 30.2216 29.8362 30.1013 29.7366C30.0788 29.7182 30.0485 29.7145 30.023 29.7269C26.1413 31.5305 21.8891 31.5305 17.9615 29.7269C17.936 29.7154 17.9057 29.7194 17.8838 29.7375C17.7638 29.8371 17.6378 29.9358 17.5121 30.0306C17.4686 30.0632 17.4722 30.1311 17.5196 30.1589C18.1175 30.5039 18.7391 30.8076 19.3919 31.0566C19.4342 31.0729 19.4543 31.1215 19.4333 31.1628C19.0805 31.8659 18.6689 32.5345 18.2075 33.1687C18.1874 33.1943 18.1544 33.2061 18.1232 33.1964C16.1717 32.5861 14.183 31.6657 12.1304 30.1492C12.1133 30.1359 12.101 30.1148 12.0992 30.0928C11.681 25.5888 12.5333 21.0284 15.6446 16.3529C15.6521 16.3405 15.6635 16.3309 15.6767 16.3251C17.2076 15.6182 18.8477 15.0981 20.5619 14.8011C20.5931 14.7962 20.6243 14.8107 20.6405 14.8385C20.8523 15.2158 21.0944 15.6997 21.2582 16.0951C23.0651 15.8174 24.9002 15.8174 26.7449 16.0951C26.9087 15.7082 27.1424 15.2158 27.3533 14.8385C27.3608 14.8247 27.3724 14.8137 27.3866 14.807C27.4007 14.8002 27.4165 14.7982 27.4319 14.8011C29.147 15.099 30.7871 15.6191 32.3168 16.3251C32.3303 16.3309 32.3414 16.3405 32.348 16.3538ZM22.1768 24.9175C22.1957 23.586 21.2309 22.4842 20.0198 22.4842C18.8186 22.4842 17.8631 23.5763 17.8631 24.9175C17.8631 26.2583 18.8375 27.3504 20.0198 27.3504C21.2213 27.3504 22.1768 26.2583 22.1768 24.9175ZM30.1514 24.9175C30.1703 23.586 29.2055 22.4842 27.9947 22.4842C26.7932 22.4842 25.8377 23.5763 25.8377 24.9175C25.8377 26.2583 26.8121 27.3504 27.9947 27.3504C29.2055 27.3504 30.1514 26.2583 30.1514 24.9175Z" fill="#7A7A7A"/>
</svg>
