<svg width="40" height="40" viewBox="0 0 40 40" fill="none" xmlns="http://www.w3.org/2000/svg">
<g clip-path="url(#clip0_1688_20514)">
<rect width="40" height="40" rx="4" fill="url(#paint0_radial_1688_20514)" fill-opacity="0.2"/>
<g filter="url(#filter0_d_1688_20514)">
<path d="M20.8855 14.1958L21.5546 14.1969V14.1958C21.8668 14.1958 22.1465 14.0078 22.2651 13.7202C22.3849 13.4327 22.3177 13.1015 22.0984 12.881C21.878 12.6617 21.5468 12.5957 21.2592 12.7154C20.9716 12.834 20.7848 13.1149 20.7848 13.426V14.0962C20.7848 14.123 20.7949 14.1477 20.8139 14.1667C20.8329 14.1857 20.8586 14.1958 20.8855 14.1958ZM27.7894 14.621C29.1523 14.621 30.3808 15.4423 30.9034 16.7011C31.4248 17.9599 31.1372 19.41 30.1727 20.3745C29.2093 21.3379 27.7592 21.6265 26.5005 21.1051C25.2406 20.5826 24.4193 19.354 24.4204 17.9912C24.4204 17.0971 24.7751 16.24 25.4073 15.6079C26.0394 14.9757 26.8966 14.621 27.7906 14.621L27.7894 14.621ZM25.7138 30.7559L31.8555 30.757C32.4261 30.7548 32.8882 30.2927 32.8894 29.722V27.9832C32.8905 26.5588 32.2952 25.1982 31.2468 24.2325C30.1995 23.2668 28.7952 22.7835 27.3752 22.901C25.9553 23.0173 24.6495 23.7223 23.7734 24.8457C23.741 24.8882 23.7466 24.9475 23.7846 24.9833C24.9494 26.0429 25.614 27.5445 25.614 29.1199V30.655C25.6129 30.6819 25.6241 30.7076 25.642 30.7266C25.661 30.7457 25.6868 30.7569 25.7136 30.7569L25.7138 30.7559ZM14.3846 30.6552V29.12C14.3846 27.5446 15.0481 26.043 16.2129 24.9835C16.2521 24.9477 16.2577 24.8883 16.2252 24.8458C15.3469 23.7269 14.0411 23.0242 12.6235 22.909C11.2047 22.7937 9.80262 23.276 8.75644 24.2405C7.70913 25.2039 7.11161 26.5612 7.10938 27.9832V29.722C7.11049 30.2926 7.57373 30.7548 8.14439 30.757H14.2852C14.3412 30.757 14.3859 30.7111 14.3859 30.6552L14.3846 30.6552ZM23.6047 25.5204C22.6491 24.5648 21.3523 24.0288 20.0018 24.0288C18.6501 24.0288 17.3544 24.5648 16.3977 25.5193C15.4422 26.4737 14.9028 27.7683 14.9006 29.1199V30.8587V30.8576C14.9017 31.4282 15.3649 31.8915 15.9356 31.8926H24.0669C24.6376 31.8915 25.1008 31.4282 25.1019 30.8576V29.1199C25.1019 27.7682 24.5637 26.4725 23.6059 25.5204L23.6047 25.5204ZM12.2107 14.6208C13.5736 14.6208 14.8033 15.4421 15.3247 16.7009C15.8461 17.9608 15.5574 19.4098 14.594 20.3743C13.6306 21.3377 12.1805 21.6264 10.9218 21.105C9.6619 20.5824 8.8406 19.3538 8.84172 17.991C8.8406 17.097 9.19643 16.2399 9.82861 15.6077C10.4597 14.9755 11.3167 14.6208 12.2107 14.6208ZM22.1447 20.6093L17.7987 20.6104C17.7741 20.6104 17.754 20.6305 17.754 20.6551V21.6297C17.7551 21.6409 17.7596 21.6521 17.7674 21.661C17.7752 21.6689 17.7875 21.6745 17.7987 21.6734H22.2005C22.2252 21.6734 22.2453 21.6543 22.2464 21.6297V20.7111C22.2464 20.6551 22.2005 20.6104 22.1446 20.6104L22.1447 20.6093ZM22.1984 20.0968L22.1995 20.0979C22.2241 20.0979 22.2454 20.0766 22.2465 20.052V19.0775C22.2454 19.0528 22.2252 19.0338 22.2006 19.0338H17.7988C17.7742 19.0338 17.7552 19.054 17.7541 19.0775V20.052C17.7541 20.0766 17.7742 20.0968 17.7988 20.0979L22.1984 20.0968ZM21.4566 22.1881H18.5428C18.5037 22.1892 18.4679 22.2116 18.4511 22.2474C18.4343 22.2821 18.4399 22.3246 18.4656 22.3537C19.0721 23.0754 20.9295 23.0754 21.5337 22.3537C21.5595 22.3246 21.5651 22.2821 21.5483 22.2462C21.5315 22.2116 21.4957 22.1881 21.4566 22.1881ZM18.4454 14.1911H19.1145C19.1414 14.1911 19.1671 14.181 19.1862 14.162C19.2052 14.1441 19.2164 14.1184 19.2164 14.0915V13.4235H19.2152C19.2152 12.5541 18.2821 12.4859 17.8871 12.8808H17.886C17.6745 13.1069 17.6174 13.4347 17.7383 13.7189C17.8591 14.002 18.1366 14.1877 18.4454 14.1911ZM18.4645 14.7036H18.4454C17.7371 14.7036 17.162 14.1296 17.162 13.4201C17.162 12.1781 18.6737 11.7641 19.3764 12.4959C19.608 12.7477 19.7333 13.08 19.7289 13.4224V14.0937V14.0926C19.7289 14.1486 19.7747 14.1933 19.8296 14.1922H20.1731C20.1999 14.1922 20.2257 14.1821 20.2447 14.1631C20.2637 14.1441 20.2738 14.1184 20.2738 14.0915V13.4258C20.2738 12.9077 20.5859 12.44 21.0648 12.2408C21.5449 12.0416 22.0965 12.1513 22.4635 12.5183C22.8305 12.8853 22.9413 13.4369 22.7421 13.917C22.5441 14.3959 22.0764 14.7092 21.5583 14.7092H20.8881C20.8623 14.7092 20.8366 14.7192 20.8176 14.7382C20.7986 14.7573 20.7874 14.783 20.7874 14.8099V18.4196C20.7885 18.4745 20.8332 18.5192 20.8881 18.5192H22.1256C22.158 18.5192 22.1871 18.5047 22.2062 18.479C23.4661 16.8173 24.9543 15.1367 24.9543 12.8059H24.9531C24.9397 11.0458 23.9931 9.42556 22.4669 8.54961C20.9407 7.67365 19.0642 7.67348 17.538 8.54961C16.0118 9.42573 15.0663 11.0459 15.0529 12.8059C15.0529 15.0169 16.6943 16.768 17.9005 18.4778L17.8994 18.4767C17.9173 18.5047 17.9487 18.5214 17.9811 18.5203H19.1179C19.1728 18.5203 19.2175 18.4756 19.2186 18.4207V14.8044C19.2186 14.7775 19.2075 14.7518 19.1884 14.7328C19.1694 14.7148 19.1437 14.7037 19.1179 14.7037L18.4645 14.7036ZM20.2715 18.4185L20.2704 14.8067C20.2704 14.7519 20.2257 14.7071 20.1708 14.7071H19.8273C19.8005 14.706 19.7747 14.7172 19.7557 14.7351C19.7367 14.7541 19.7266 14.7798 19.7266 14.8067V18.4196C19.7277 18.4744 19.7725 18.5192 19.8273 18.5192H20.1719C20.2268 18.5192 20.2715 18.4744 20.2715 18.4196L20.2715 18.4185Z" fill="#BABABA"/>
</g>
</g>
<rect x="0.5" y="0.5" width="39" height="39" rx="3.5" stroke="white" stroke-opacity="0.2"/>
<defs>
<filter id="filter0_d_1688_20514" x="-8.89062" y="-8.10742" width="57.7803" height="56" filterUnits="userSpaceOnUse" color-interpolation-filters="sRGB">
<feFlood flood-opacity="0" result="BackgroundImageFix"/>
<feColorMatrix in="SourceAlpha" type="matrix" values="0 0 0 0 0 0 0 0 0 0 0 0 0 0 0 0 0 0 127 0" result="hardAlpha"/>
<feOffset/>
<feGaussianBlur stdDeviation="8"/>
<feComposite in2="hardAlpha" operator="out"/>
<feColorMatrix type="matrix" values="0 0 0 0 0.572549 0 0 0 0 0.435294 0 0 0 0 0.952941 0 0 0 1 0"/>
<feBlend mode="normal" in2="BackgroundImageFix" result="effect1_dropShadow_1688_20514"/>
<feBlend mode="normal" in="SourceGraphic" in2="effect1_dropShadow_1688_20514" result="shape"/>
</filter>
<radialGradient id="paint0_radial_1688_20514" cx="0" cy="0" r="1" gradientUnits="userSpaceOnUse" gradientTransform="translate(5 31) rotate(-47.5638) scale(47.4236 35.3488)">
<stop stop-color="#190B30"/>
<stop offset="1" stop-color="#01020A"/>
</radialGradient>
<clipPath id="clip0_1688_20514">
<rect width="40" height="40" rx="4" fill="white"/>
</clipPath>
</defs>
</svg>
