<svg width="40" height="40" viewBox="0 0 40 40" fill="none" xmlns="http://www.w3.org/2000/svg">
<g clip-path="url(#clip0_1688_20522)">
<rect width="40" height="40" rx="4" fill="url(#paint0_radial_1688_20522)" fill-opacity="0.2"/>
<g filter="url(#filter0_d_1688_20522)">
<path d="M31.3836 28.1751C31.3838 28.4854 31.3155 28.792 31.1835 29.0728C31.0515 29.3537 30.8592 29.602 30.6202 29.7999C30.3812 29.9978 30.1014 30.1406 29.8009 30.2179C29.5004 30.2952 29.1865 30.3052 28.8816 30.2472C28.5768 30.1892 28.2885 30.0645 28.0374 29.8822C27.7862 29.6999 27.5785 29.4644 27.4289 29.1925C27.2793 28.9206 27.1916 28.6191 27.172 28.3094C27.1525 27.9997 27.2015 27.6895 27.3157 27.4009L21.5539 23.6007C21.1324 24.11 20.5881 24.5035 19.9723 24.7441C19.3565 24.9847 18.6896 25.0645 18.0344 24.9759L17.4097 27.4951C17.876 27.7207 18.2428 28.11 18.4403 28.5889C18.6378 29.0677 18.652 29.6025 18.4803 30.0912C18.3085 30.5799 17.9629 30.9882 17.5092 31.2382C17.0556 31.4882 16.5258 31.5624 16.0209 31.4467C15.5161 31.331 15.0715 31.0334 14.7721 30.6107C14.4727 30.188 14.3394 29.6699 14.3977 29.1552C14.456 28.6406 14.7017 28.1654 15.0881 27.8204C15.4744 27.4753 15.9743 27.2847 16.4923 27.2848C16.5181 27.2848 16.5439 27.2848 16.5676 27.2866L17.1924 24.7679C16.4796 24.5032 15.8592 24.0368 15.4068 23.4256C14.9544 22.8145 14.6895 22.0849 14.6445 21.3258L11.9847 21.1844C11.8502 21.6879 11.534 22.1236 11.0971 22.4076C10.6602 22.6916 10.1336 22.8035 9.61893 22.7219C9.10427 22.6403 8.63811 22.3709 8.31046 21.9658C7.98281 21.5606 7.81692 21.0484 7.84482 20.528C7.87272 20.0077 8.09243 19.5162 8.46153 19.1483C8.83063 18.7805 9.32293 18.5625 9.84335 18.5364C10.3638 18.5103 10.8754 18.678 11.2795 19.007C11.6835 19.3361 11.9513 19.8032 12.0311 20.3181L14.6905 20.4595C14.8117 19.7361 15.1333 19.0611 15.6189 18.5113C16.1044 17.9615 16.7344 17.5588 17.4373 17.3491L16.4285 11.7143C15.9075 11.6985 15.4109 11.4902 15.0345 11.1297C14.658 10.7692 14.4285 10.282 14.3903 9.76216C14.3521 9.24234 14.5079 8.7268 14.8275 8.31509C15.1472 7.90339 15.608 7.62474 16.1211 7.53295C16.6342 7.44115 17.1631 7.54274 17.6056 7.81807C18.0482 8.09341 18.373 8.52297 18.5174 9.0238C18.6618 9.52462 18.6155 10.0612 18.3874 10.5299C18.1593 10.9985 17.7657 11.3661 17.2824 11.5615L18.2912 17.1966C18.3766 17.1909 18.4626 17.187 18.5493 17.187C19.3037 17.1865 20.042 17.4053 20.6742 17.8169L22.812 15.2046C22.4851 14.7981 22.3204 14.2849 22.3497 13.7641C22.3791 13.2433 22.6004 12.7518 22.9709 12.3846C23.3414 12.0174 23.8348 11.8006 24.3559 11.7759C24.8769 11.7513 25.3886 11.9206 25.7921 12.2512C26.1957 12.5817 26.4624 13.0501 26.5407 13.5658C26.6191 14.0815 26.5036 14.608 26.2165 15.0435C25.9294 15.4791 25.4911 15.7927 24.9862 15.924C24.4814 16.0553 23.9458 15.9948 23.4829 15.7542L21.3451 18.3666C21.8925 18.9253 22.2594 19.6356 22.3983 20.4053L25.3965 20.2033C25.4692 19.6871 25.7306 19.2163 26.1302 18.8816C26.5298 18.5469 27.0392 18.3722 27.5601 18.3912C28.081 18.4101 28.5763 18.6214 28.9506 18.9842C29.3248 19.347 29.5513 19.8356 29.5863 20.3557C29.6214 20.8757 29.4625 21.3903 29.1403 21.8C28.8181 22.2098 28.3556 22.4856 27.842 22.5743C27.3283 22.6629 26.8001 22.5581 26.3592 22.2801C25.9183 22.002 25.5961 21.5705 25.4548 21.0688L22.4569 21.2706C22.4328 21.8305 22.2879 22.3785 22.0321 22.8771L27.7939 26.6778C28.0893 26.385 28.4647 26.1862 28.8729 26.1064C29.2811 26.0266 29.7038 26.0695 30.0877 26.2295C30.4716 26.3896 30.7995 26.6597 31.0301 27.0059C31.2607 27.352 31.3837 27.7587 31.3836 28.1746V28.1751Z" fill="#BABABA"/>
</g>
</g>
<rect x="0.5" y="0.5" width="39" height="39" rx="3.5" stroke="white" stroke-opacity="0.2"/>
<defs>
<filter id="filter0_d_1688_20522" x="-8.1582" y="-8.5" width="55.542" height="56" filterUnits="userSpaceOnUse" color-interpolation-filters="sRGB">
<feFlood flood-opacity="0" result="BackgroundImageFix"/>
<feColorMatrix in="SourceAlpha" type="matrix" values="0 0 0 0 0 0 0 0 0 0 0 0 0 0 0 0 0 0 127 0" result="hardAlpha"/>
<feOffset/>
<feGaussianBlur stdDeviation="8"/>
<feComposite in2="hardAlpha" operator="out"/>
<feColorMatrix type="matrix" values="0 0 0 0 0.572549 0 0 0 0 0.435294 0 0 0 0 0.952941 0 0 0 1 0"/>
<feBlend mode="normal" in2="BackgroundImageFix" result="effect1_dropShadow_1688_20522"/>
<feBlend mode="normal" in="SourceGraphic" in2="effect1_dropShadow_1688_20522" result="shape"/>
</filter>
<radialGradient id="paint0_radial_1688_20522" cx="0" cy="0" r="1" gradientUnits="userSpaceOnUse" gradientTransform="translate(5 31) rotate(-47.5638) scale(47.4236 35.3488)">
<stop stop-color="#190B30"/>
<stop offset="1" stop-color="#01020A"/>
</radialGradient>
<clipPath id="clip0_1688_20522">
<rect width="40" height="40" rx="4" fill="white"/>
</clipPath>
</defs>
</svg>
