<svg width="40" height="40" viewBox="0 0 40 40" fill="none" xmlns="http://www.w3.org/2000/svg">
<g clip-path="url(#clip0_1688_20530)">
<rect width="40" height="40" rx="4" fill="url(#paint0_radial_1688_20530)" fill-opacity="0.2"/>
<g filter="url(#filter0_d_1688_20530)">
<path d="M21.5682 10.8769C21.7934 10.8769 21.9762 10.6946 21.9762 10.4693V8.40839C21.9762 8.18232 21.7934 8 21.5682 8C21.3425 8 21.1602 8.18232 21.1602 8.40839V10.4693C21.1602 10.6946 21.3425 10.8769 21.5682 10.8769Z" fill="#BABABA"/>
<path d="M16.0469 11.8364C16.1267 11.9452 16.2502 12.0037 16.376 12.0037C16.4596 12.0037 16.5443 11.9773 16.6171 11.9243C16.7987 11.7911 16.8378 11.5357 16.7046 11.3541L15.4849 9.69231C15.3517 9.51076 15.0966 9.47089 14.9147 9.60444C14.7327 9.7376 14.694 9.99308 14.8272 10.1746L16.0469 11.8364Z" fill="#BABABA"/>
<path d="M26.4309 11.3543C26.2973 11.5358 26.3364 11.7913 26.5183 11.9245C26.5911 11.9775 26.6755 12.0038 26.7591 12.0038C26.8845 12.0038 27.0088 11.9458 27.0885 11.8366L28.3083 10.1748C28.4418 9.99325 28.4024 9.73777 28.2208 9.60461C28.0381 9.47067 27.7834 9.51093 27.6506 9.69248" fill="#BABABA"/>
<path d="M16.3353 15.5966C16.3373 15.5981 16.3392 15.5997 16.3415 15.602L18.6018 17.5104C18.6548 17.5549 18.6978 17.6087 18.7447 17.6594C18.7783 17.6745 18.8124 17.6881 18.8418 17.7124C19.0094 17.8537 19.2243 17.9195 19.4438 17.9029C19.6644 17.8839 19.8641 17.7813 20.005 17.6141C20.1576 17.4601 20.2238 17.2793 20.2156 17.0795C20.2059 16.8399 20.0906 16.6046 19.9071 16.4505L18.7617 15.4831C18.7605 15.4824 18.7597 15.4824 18.7594 15.4816L17.1084 14.0865C16.7608 13.7931 16.2386 13.8376 15.944 14.1864C15.6506 14.534 15.6951 15.0566 16.0431 15.3508L16.3353 15.5966Z" fill="#BABABA"/>
<path d="M20.6188 16.0195C20.8642 16.3052 21.0144 16.6645 21.0302 17.0454C21.0484 17.4762 20.8971 17.8741 20.6044 18.1652C20.3466 18.4737 19.9502 18.6785 19.512 18.7157C19.4648 18.7195 19.4168 18.7219 19.37 18.7219C19.3111 18.7219 19.2535 18.713 19.1954 18.7068C19.1958 18.7137 19.1985 18.7203 19.1989 18.7273C19.2175 19.1574 19.0673 19.5561 18.7758 19.8491C18.4688 20.2122 18.0213 20.4011 17.5661 20.4057C17.6342 20.8571 17.5227 21.334 17.2069 21.7099C16.9781 21.9797 16.6792 22.1523 16.3599 22.234C16.4621 22.4275 16.5267 22.6408 16.5453 22.8661C16.5821 23.3039 16.4466 23.729 16.1644 24.0623C15.8838 24.3955 15.4878 24.5999 15.05 24.6367C15.0023 24.6406 14.9547 24.6429 14.9079 24.6429C14.5216 24.6429 14.1515 24.5082 13.853 24.2574L12.5834 23.1874L8.22656 27.0735L12.7161 32.0001L18.6902 26.2691C18.7858 26.1859 18.9151 26.151 19.0371 26.1777C19.8736 26.3442 20.5785 26.4592 21.2408 26.4127C21.2478 26.4119 21.2536 26.4112 21.2606 26.4112C22.0127 26.355 22.7091 26.0891 23.4767 25.4419L27.6059 21.6994C27.6059 21.6994 28.1575 21.1935 27.7603 20.7452C27.5478 20.5048 27.2896 20.3303 27.0043 20.2393C27.4387 19.6428 27.429 18.8028 26.9323 18.2148C26.7194 17.9616 26.4403 17.7824 26.1279 17.6945C26.4744 17.1108 26.433 16.3451 25.9712 15.7962C25.7161 15.4939 25.3673 15.2988 24.979 15.2361C25.1521 14.7115 25.1064 14.0659 24.6771 13.6606C24.2435 13.2522 23.5526 13.666 23.5526 13.666L20.6188 16.0195Z" fill="#BABABA"/>
<path d="M24.0132 26.0565C23.3876 26.5849 22.7934 26.9011 22.1992 27.0711L27.8149 31.9845L31.7737 27.0769L27.2961 23.082L24.0132 26.0565Z" fill="#BABABA"/>
<path d="M18.9488 13.6191C18.751 13.9148 18.6976 14.3607 18.9871 14.605C18.9879 14.6058 18.9883 14.6065 18.9891 14.6073L20.0056 15.4655L21.6864 14.1176L20.131 13.3918C19.4385 13.033 19.0738 13.4313 18.9488 13.6191Z" fill="#BABABA"/>
<path d="M13.788 19.9051L14.5506 20.5485H14.551C14.5529 20.55 14.5533 20.5531 14.5552 20.5547L15.4196 21.2836C15.7684 21.5754 16.2898 21.5302 16.5832 21.1837C16.8759 20.8361 16.8317 20.3135 16.4834 20.0193L14.8572 18.6447C14.856 18.644 14.8544 18.644 14.8529 18.6432L14.851 18.6409C14.6837 18.5004 14.4689 18.4345 14.2506 18.452C14.0299 18.4702 13.8302 18.5731 13.6885 18.7407C13.3959 19.0887 13.4404 19.6109 13.788 19.9051Z" fill="#BABABA"/>
<path d="M14.6501 16.3229C14.5092 16.4909 14.4415 16.7045 14.46 16.9263C14.4786 17.147 14.5812 17.346 14.7484 17.4865L15.3701 18.0118C15.3721 18.0133 15.3736 18.0133 15.3748 18.0149L17.0099 19.396C17.3567 19.6887 17.8808 19.6449 18.1754 19.2969C18.3268 19.1436 18.393 18.9621 18.3841 18.7623C18.3736 18.5227 18.2586 18.2882 18.0755 18.1341L15.8161 16.2257L15.8118 16.2226C15.4626 15.9311 14.9435 15.976 14.6501 16.3229Z" fill="#BABABA"/>
<path d="M12.9593 22.4355L14.3788 23.6324C14.5468 23.7737 14.7578 23.8402 14.9811 23.8228C15.2014 23.8039 15.4 23.7013 15.5409 23.5348C15.6833 23.366 15.7511 23.1531 15.7325 22.9321C15.7139 22.7111 15.6113 22.5117 15.4441 22.3704L14.8948 21.9079C14.894 21.9071 14.8932 21.9071 14.8925 21.9063C14.8921 21.9055 14.8921 21.9055 14.8917 21.9048L14.013 21.1639C13.6658 20.8805 13.1509 20.9266 12.8598 21.2711C12.5668 21.6183 12.6109 22.1405 12.9593 22.4355Z" fill="#BABABA"/>
</g>
</g>
<rect x="0.5" y="0.5" width="39" height="39" rx="3.5" stroke="white" stroke-opacity="0.2"/>
<defs>
<filter id="filter0_d_1688_20530" x="-7.77344" y="-8" width="55.5469" height="56" filterUnits="userSpaceOnUse" color-interpolation-filters="sRGB">
<feFlood flood-opacity="0" result="BackgroundImageFix"/>
<feColorMatrix in="SourceAlpha" type="matrix" values="0 0 0 0 0 0 0 0 0 0 0 0 0 0 0 0 0 0 127 0" result="hardAlpha"/>
<feOffset/>
<feGaussianBlur stdDeviation="8"/>
<feComposite in2="hardAlpha" operator="out"/>
<feColorMatrix type="matrix" values="0 0 0 0 0.572549 0 0 0 0 0.435294 0 0 0 0 0.952941 0 0 0 1 0"/>
<feBlend mode="normal" in2="BackgroundImageFix" result="effect1_dropShadow_1688_20530"/>
<feBlend mode="normal" in="SourceGraphic" in2="effect1_dropShadow_1688_20530" result="shape"/>
</filter>
<radialGradient id="paint0_radial_1688_20530" cx="0" cy="0" r="1" gradientUnits="userSpaceOnUse" gradientTransform="translate(5 31) rotate(-47.5638) scale(47.4236 35.3488)">
<stop stop-color="#190B30"/>
<stop offset="1" stop-color="#01020A"/>
</radialGradient>
<clipPath id="clip0_1688_20530">
<rect width="40" height="40" rx="4" fill="white"/>
</clipPath>
</defs>
</svg>
