<svg width="48" height="48" viewBox="0 0 48 48" fill="none" xmlns="http://www.w3.org/2000/svg">
<path d="M24 36C30.6274 36 36 30.6274 36 24C36 17.3726 30.6274 12 24 12C17.3726 12 12 17.3726 12 24C12 30.6274 17.3726 36 24 36Z" fill="#7A7A7A"/>
<path d="M17.1442 23.7367C17.1442 23.7367 23.0884 21.2079 25.15 20.3174C25.9403 19.9612 28.6203 18.8214 28.6203 18.8214C28.6203 18.8214 29.8572 18.3228 29.7541 19.5338C29.7198 20.0325 29.4449 21.7777 29.17 23.6655C28.7577 26.3369 28.311 29.2575 28.311 29.2575C28.311 29.2575 28.2423 30.0767 27.6582 30.2192C27.0741 30.3617 26.112 29.7206 25.9403 29.5781C25.8028 29.4713 23.3633 27.8684 22.4699 27.0848C22.2294 26.8711 21.9546 26.4437 22.5043 25.9451C23.7412 24.7697 25.2187 23.3093 26.112 22.3833C26.5244 21.9558 26.9366 20.9585 25.2187 22.1695C22.7792 23.9148 20.374 25.5533 20.374 25.5533C20.374 25.5533 19.8243 25.9094 18.7935 25.5888C17.7627 25.2683 16.5601 24.8409 16.5601 24.8409C16.5601 24.8409 15.7355 24.3066 17.1442 23.7367Z" fill="black"/>
</svg>
