<svg width="224" height="65" viewBox="0 0 224 65" fill="none" xmlns="http://www.w3.org/2000/svg">
<path d="M71.8636 56.9706L21.9225 7.02944C17.4216 2.52856 11.3171 0 4.95195 0H217.237C210.872 0 204.767 2.52856 200.266 7.02943L150.325 56.9706C145.824 61.4714 139.72 64 133.354 64H88.8342C82.469 64 76.3645 61.4714 71.8636 56.9706Z" fill="black"/>
<path d="M22.1384 6.84277H200.453" stroke="url(#paint0_linear_40000545_4364)"/>
<path d="M0 0.5H4.95195C11.3171 0.5 17.4216 3.02856 21.9225 7.52944L71.8636 57.4706C76.3645 61.9714 82.469 64.5 88.8342 64.5H133.354C139.72 64.5 145.824 61.9714 150.325 57.4706L200.266 7.52943C204.767 3.02856 210.872 0.5 217.237 0.5H223.799" stroke="#515151"/>
<rect x="92.4878" y="11.9878" width="39.0244" height="39.0244" stroke="url(#paint1_radial_40000545_4364)" stroke-opacity="0.25" stroke-width="0.97561"/>
<g filter="url(#filter0_d_40000545_4364)">
<path d="M108.264 31.2327C110.456 33.4245 114.029 33.4245 116.22 31.2327L128.193 19.2653C127.365 18.7815 126.403 18.5 125.375 18.5H98.626C97.7277 18.5 96.8794 18.7178 96.1238 19.0918L108.264 31.2327Z" fill="white"/>
<path d="M131 39.2174V24.1272C131 22.9436 130.63 21.8467 130.003 20.9387L119.042 31.8998L129.672 42.5293L127.672 44.3554C129.434 43.4031 131 41.3553 131 39.2136L131 39.2174Z" fill="white"/>
<path d="M93.0005 24.1272V39.2174C93.0005 42.3211 95.522 44.8423 98.6254 44.8423H125.373C126.281 44.8423 127.135 44.6206 127.894 44.2408L117.259 33.6054C115.794 34.7659 114.022 35.3481 112.245 35.3481C110.176 35.3481 108.11 34.5635 106.531 32.9885L95.7278 43.7917L93.9813 42.0452L104.784 31.242L94.2048 20.6624C93.455 21.6204 93 22.8195 93 24.1265L93.0005 24.1272Z" fill="white"/>
</g>
<defs>
<filter id="filter0_d_40000545_4364" x="77" y="2.5" width="70" height="58.3423" filterUnits="userSpaceOnUse" color-interpolation-filters="sRGB">
<feFlood flood-opacity="0" result="BackgroundImageFix"/>
<feColorMatrix in="SourceAlpha" type="matrix" values="0 0 0 0 0 0 0 0 0 0 0 0 0 0 0 0 0 0 127 0" result="hardAlpha"/>
<feOffset/>
<feGaussianBlur stdDeviation="8"/>
<feComposite in2="hardAlpha" operator="out"/>
<feColorMatrix type="matrix" values="0 0 0 0 0.400833 0 0 0 0 0.400833 0 0 0 0 0.400833 0 0 0 1 0"/>
<feBlend mode="normal" in2="BackgroundImageFix" result="effect1_dropShadow_40000545_4364"/>
<feBlend mode="normal" in="SourceGraphic" in2="effect1_dropShadow_40000545_4364" result="shape"/>
</filter>
<linearGradient id="paint0_linear_40000545_4364" x1="22.1384" y1="7.34277" x2="200.453" y2="7.34277" gradientUnits="userSpaceOnUse">
<stop stop-color="white" stop-opacity="0.1"/>
<stop offset="0.5" stop-color="white" stop-opacity="0.4"/>
<stop offset="1" stop-color="white" stop-opacity="0.1"/>
</linearGradient>
<radialGradient id="paint1_radial_40000545_4364" cx="0" cy="0" r="1" gradientUnits="userSpaceOnUse" gradientTransform="translate(132 31.5) rotate(-179.303) scale(38.4376 13.479)">
<stop stop-color="white" stop-opacity="0.4"/>
<stop offset="1" stop-color="white" stop-opacity="0"/>
</radialGradient>
</defs>
</svg>
