<svg width="216" height="80" viewBox="0 0 216 80" fill="none" xmlns="http://www.w3.org/2000/svg">
<g clip-path="url(#clip0_2002_6942)">
<path d="M37.6293 30.9824L44.5288 27L51.4284 30.9824L48.8917 32.4537L44.5288 29.9424L40.1659 32.4537L37.6293 30.9824ZM51.4284 36.0049L48.8917 34.5337L44.5288 37.0449L40.1659 34.5337L37.6293 36.0049V38.9473L41.9922 41.4585V46.4809L44.5288 47.9522L47.0655 46.4809V41.4585L51.4284 38.9473V36.0049ZM51.4284 43.9698V41.0273L48.8917 42.4985V45.4409L51.4284 43.9698ZM53.2293 45.0098L48.8664 47.5209V50.4634L55.7659 46.4809V38.5161L53.2293 39.9873V45.0098ZM50.6928 33.4937L53.2293 34.9649V37.9073L55.7659 36.4361V33.4937L53.2293 32.0224L50.6928 33.4937ZM41.9922 48.5864V51.5288L44.5288 53L47.0655 51.5288V48.5864L44.5288 50.0576L41.9922 48.5864ZM37.6293 43.9698L40.1659 45.4409V42.4985L37.6293 41.0273V43.9698ZM41.9922 33.4937L44.5288 34.9649L47.0655 33.4937L44.5288 32.0224L41.9922 33.4937ZM35.8283 34.9649L38.3649 33.4937L35.8283 32.0224L33.2917 33.4937V36.4361L35.8283 37.9073V34.9649ZM35.8283 39.9873L33.2917 38.5161V46.4809L40.1912 50.4634V47.5209L35.8283 45.0098V39.9873Z" fill="white"/>
<path d="M75.7637 43.3168V43.2754C75.7637 41.3324 74.73 40.3608 73.0558 39.72C74.0893 39.1413 74.9574 38.2318 74.9574 36.5987V36.5574C74.9574 34.2836 73.1384 32.8159 70.1824 32.8159H63.4644V47.2857H70.3479C73.6139 47.2857 75.7637 45.9627 75.7637 43.3168ZM71.7948 37.1362C71.7948 38.2111 70.906 38.6658 69.5004 38.6658H66.5651V35.6065H69.7071C71.0506 35.6065 71.7948 36.144 71.7948 37.0948V37.1362ZM72.601 42.9241C72.601 43.999 71.7535 44.495 70.3479 44.495H66.5651V41.3118H70.2445C71.8775 41.3118 72.601 41.9112 72.601 42.8827V42.9241Z" fill="white"/>
<path d="M91.4465 47.2857V32.8159H88.3044V41.7252L81.5244 32.8159H78.5891V47.2857H81.7311V38.087L88.7385 47.2857H91.4465Z" fill="white"/>
<path d="M107.426 43.3168V43.2754C107.426 41.3324 106.393 40.3608 104.718 39.72C105.752 39.1413 106.62 38.2318 106.62 36.5987V36.5574C106.62 34.2836 104.801 32.8159 101.845 32.8159H95.127V47.2857H102.01C105.276 47.2857 107.426 45.9627 107.426 43.3168ZM103.457 37.1362C103.457 38.2111 102.569 38.6658 101.163 38.6658H98.2277V35.6065H101.37C102.713 35.6065 103.457 36.144 103.457 37.0948V37.1362ZM104.264 42.9241C104.264 43.999 103.416 44.495 102.01 44.495H98.2277V41.3118H101.907C103.54 41.3118 104.264 41.9112 104.264 42.8827V42.9241Z" fill="white"/>
<path d="M126.611 44.7293L124.978 43.0757C123.738 44.2332 122.601 44.9566 120.823 44.9566C118.053 44.9566 116.048 42.6416 116.048 39.7889C116.048 36.9363 118.053 34.6625 120.823 34.6625C122.477 34.6625 123.717 35.386 124.875 36.4609L126.508 34.5798C125.123 33.2569 123.511 32.3267 120.844 32.3267C116.462 32.3267 113.382 35.696 113.382 39.8303C113.382 44.0058 116.524 47.2925 120.741 47.2925C123.449 47.2925 125.102 46.3003 126.611 44.7293Z" fill="white"/>
<path d="M138.937 40.9465V47.0444H141.48V32.5747H138.937V38.59H132.033V32.5747H129.49V47.0444H132.033V40.9465H138.937Z" fill="white"/>
<path d="M152.885 32.4717H150.529L144.162 47.0448H146.766L148.255 43.5513H155.097L156.565 47.0448H159.252L152.885 32.4717ZM154.167 41.2982H149.186L151.665 35.5103L154.167 41.2982Z" fill="white"/>
<path d="M162.085 32.5747V47.0444H164.627V32.5747H162.085Z" fill="white"/>
<path d="M178.816 42.5795L171.064 32.5747H168.707V47.0444H171.209V36.7503L179.187 47.0444H181.317V32.5747H178.816V42.5795Z" fill="white"/>
</g>
<defs>
<clipPath id="clip0_2002_6942">
<rect width="148.417" height="26" fill="white" transform="translate(33.2917 27)"/>
</clipPath>
</defs>
</svg>
