<svg width="501" height="200" viewBox="0 0 501 200" fill="none" xmlns="http://www.w3.org/2000/svg">
<g clip-path="url(#clip0_236_3990)">
<mask id="mask0_236_3990" style="mask-type:luminance" maskUnits="userSpaceOnUse" x="-1" y="42" width="502" height="115">
<path d="M500.991 42.9999H-0.00878906V157H500.991V42.9999Z" fill="white"/>
</mask>
<g mask="url(#mask0_236_3990)">
<path d="M149.225 42.9999V74.0908H138.566V42.9999H127.906V74.0908H117.247V42.9999H106.587V74.0908H53.2891V42.9999H42.6295V74.0908V84.4544H149.225V94.8181H138.566H127.906H31.9699V42.9999H21.3104V94.8181H10.6508V42.9999H-0.00878906V94.8181V105.182V157H10.6508V125.909H21.3104V157H31.9699V125.909H42.6295V157H53.2891V125.909H106.587V157H117.247V125.909V115.545H31.9699H21.3104H10.6508V105.182H21.3104H31.9699H127.906V157H138.566V105.182H149.225V157H159.885V105.182V94.8181V84.4544V74.0908V42.9999H149.225Z" fill="white"/>
<path d="M231.908 84.4546V95.7056H205.872V84.4546H197.191V115.397H205.872V104.146H231.908V115.397H240.589V84.4546H231.908Z" fill="white"/>
<path d="M396.831 104.145H388.15V115.396H396.831V104.145Z" fill="white"/>
<path d="M396.834 84.4546H388.153V95.7056H362.111V84.4546H353.43V115.397H362.111V104.146H388.153L396.834 95.7056V84.4546Z" fill="white"/>
<path d="M286.888 84.4546H249.273V115.397H257.954V104.146H283.997V115.397H292.678V84.4546H286.888ZM257.954 95.7056V92.8945H283.997V95.7056H257.954Z" fill="white"/>
<path d="M344.756 92.8945V84.4546H310.032H307.141H301.352V115.397H307.141H310.032H344.756V106.957H310.032V92.8945H344.756Z" fill="white"/>
<path d="M448.913 92.8945V84.4546H414.19H411.298H405.516V115.397H411.298H414.19H448.913V106.957H414.19V104.146H448.913V95.7056H414.19V92.8945H448.913Z" fill="white"/>
<path d="M492.311 84.4546V104.146L466.275 84.4546H457.594V115.397H466.275V95.7056L492.311 115.397H500.992V84.4546H492.311Z" fill="white"/>
</g>
</g>
<defs>
<clipPath id="clip0_236_3990">
<rect width="501" height="114" fill="white" transform="translate(0 43)"/>
</clipPath>
</defs>
</svg>
