<svg width="216" height="80" viewBox="0 0 216 80" fill="none" xmlns="http://www.w3.org/2000/svg">
<path d="M95.7665 36.4419H93.748V49.7071H95.7665V36.4419Z" fill="white"/>
<path d="M104.831 30.8232H88.3398V32.8516H104.831V30.8232Z" fill="white"/>
<path d="M99.4208 36.4419H97.4023V49.7071H99.4208V36.4419Z" fill="white"/>
<path d="M155.311 49.7271H157.369V41.7356L155.311 39.4639V49.7271Z" fill="white"/>
<path d="M151.637 49.7269H153.655V34.8999L168.107 51.0453V30.823H166.069V45.65L151.637 29.5249V49.7269Z" fill="white"/>
<path d="M138.416 30.8232C133.228 30.8232 129.01 35.0624 129.01 40.2752C129.01 45.4879 133.228 49.7271 138.416 49.7271C143.603 49.7271 147.822 45.4879 147.822 40.2752C147.822 35.0624 143.603 30.8232 138.416 30.8232ZM138.416 47.6988C134.339 47.6988 131.028 44.3724 131.028 40.2752C131.028 36.178 134.339 32.8516 138.416 32.8516C142.493 32.8516 145.803 36.178 145.803 40.2752C145.783 44.3521 142.473 47.6988 138.416 47.6988Z" fill="white"/>
<path d="M138.417 38.916C137.67 38.916 137.064 39.5245 137.064 40.275C137.064 41.0255 137.67 41.634 138.417 41.634C139.164 41.634 139.769 41.0255 139.769 40.275C139.769 39.5245 139.164 38.916 138.417 38.916Z" fill="white"/>
<path d="M125.458 36.6242C125.458 33.4195 122.894 30.8232 119.725 30.8232H108.967V49.7271H110.985V32.8718H119.745C121.764 32.8718 123.419 34.5553 123.419 36.6242C123.419 38.6728 121.784 40.3563 119.786 40.3766H112.64V49.7474H114.659V42.4252H119.362L123.217 49.7474H125.559L121.522 42.1412C123.843 41.3705 125.458 39.119 125.458 36.6242Z" fill="white"/>
<path d="M74.4309 27.0708L47 22L61.432 58.4893L81.5359 33.8859L74.4309 27.0708ZM73.9869 29.3222L78.1853 33.3383L66.7204 35.4274L73.9869 29.3222ZM64.2175 35.0015L52.1269 24.9208L71.8877 28.5717L64.2175 35.0015ZM63.3496 36.7864L61.3917 53.1549L50.7543 26.2595L63.3496 36.7864ZM65.1864 37.6383L77.8825 35.326L63.3092 53.1752L65.1864 37.6383Z" fill="white"/>
</svg>
