<svg width="72" height="72" viewBox="0 0 72 72" fill="none" xmlns="http://www.w3.org/2000/svg">
<g filter="url(#filter0_d_440_1301)">
<path fill-rule="evenodd" clip-rule="evenodd" d="M36.3567 44.7298L38.5158 50.3948H42.3169C42.534 49.4644 43.3906 48.7698 44.408 48.7698C45.5912 48.7698 46.5539 49.7051 46.5539 50.8617C46.5539 52.0199 45.5945 52.9536 44.408 52.9536C43.3857 52.9536 42.5323 52.259 42.3169 51.3285H38.1893C37.9905 51.3285 37.8115 51.2042 37.7436 51.0265L35.3426 44.7361H36.3566L36.3567 44.7298ZM44.4079 18.6184C45.591 18.6184 46.5537 19.5537 46.5537 20.7104C46.5537 21.8686 45.5943 22.8023 44.4079 22.8023C43.3855 22.8023 42.5321 22.1077 42.3167 21.1772H38.5156L36.3566 26.8423H35.3425L37.7435 20.5519C37.8114 20.3694 37.9887 20.2498 38.1892 20.2498H42.3168C42.5339 19.3194 43.3905 18.6248 44.408 18.6248L44.4079 18.6184ZM52.8786 24.0234C51.8562 24.0234 51.0028 24.718 50.7874 25.6485H47.8098C47.6524 25.6485 47.5049 25.7276 47.4154 25.8552L44.3185 30.3541H42.4146V31.2846H44.5687C44.7477 31.2846 44.9034 31.1893 44.9846 31.0455L48.06 26.5789H50.7841C51.0012 27.5094 51.8578 28.204 52.8752 28.204C54.0583 28.204 55.0211 27.2687 55.0211 26.112C55.0211 24.9538 54.0617 24.0201 52.8752 24.0201L52.8786 24.0234ZM52.8786 43.3614C51.8728 43.3614 51.0293 44.035 50.7957 44.9493L48.0302 44.8879L44.9299 40.3811C44.8405 40.2535 44.693 40.1695 44.5223 40.1743L42.4146 40.2244V41.1501L44.2803 41.1048L47.3723 45.6004C47.4651 45.7329 47.6142 45.8072 47.7717 45.8072L50.7741 45.8783C50.973 46.833 51.8396 47.5486 52.8785 47.5486C54.0616 47.5486 55.0243 46.6133 55.0243 45.4567C55.0243 44.2984 54.0649 43.3647 52.8785 43.3647L52.8786 43.3614ZM52.8786 33.9082C54.0617 33.9082 55.0244 34.8435 55.0244 36.0002C55.0244 37.1584 54.065 38.0921 52.8786 38.0921C51.78 38.0921 50.8769 37.286 50.7493 36.2522H42.4178V35.3217H50.8503C51.1386 34.4995 51.9406 33.9115 52.8784 33.9115L52.8786 33.9082ZM27.9658 49.1348C28.0553 49.3739 27.9227 49.6437 27.6775 49.7309C27.4322 49.8181 27.1555 49.6889 27.0661 49.4498C26.7645 48.6275 26.2392 47.9491 25.598 47.4774C24.9534 47.0025 24.1895 46.7375 23.4223 46.7456C23.1589 46.7456 22.9468 46.5437 22.9435 46.2869C22.9435 46.03 23.1506 45.8232 23.4141 45.82C23.8598 45.8152 24.3005 45.8814 24.7247 46.0106C24.8739 45.2078 25.2119 44.4599 25.6957 43.8476C26.2939 43.0819 27.1175 42.5198 28.0835 42.2807C28.3387 42.2193 28.5971 42.3711 28.6601 42.6199C28.7231 42.8687 28.5673 43.1207 28.3122 43.1821C27.5649 43.3678 26.9203 43.8104 26.4497 44.4146C26.0123 44.9687 25.7239 45.6552 25.6229 46.3951C25.8101 46.4985 25.9924 46.6148 26.1697 46.7424C26.9551 47.3207 27.5947 48.1446 27.9593 49.1413L27.9658 49.1348ZM21.3577 42.8895C21.6212 42.9186 21.8068 43.1496 21.7737 43.4064C21.7438 43.6633 21.5069 43.8442 21.2434 43.8119C19.6444 43.6261 18.2492 42.7829 17.3362 41.5536C16.9203 42.413 16.8689 43.3984 17.1573 44.2836C17.3859 44.9944 17.8234 45.6276 18.4298 46.0702C18.7099 46.2722 19.028 46.4337 19.3793 46.5451C19.5997 46.5985 19.7571 46.802 19.7405 47.0298C19.6643 48.0184 19.9858 48.9941 20.6105 49.7178C21.3694 50.5982 22.5193 51.0247 23.6809 50.7969C23.8764 50.7597 24.062 50.7064 24.241 50.6353C24.5922 50.4819 24.9286 50.7339 24.9286 51.0537C24.9286 53.4639 26.6502 55.0244 29.0181 55.0244C31.3843 55.0244 33.1705 52.8581 33.1705 50.4804C33.1705 48.1027 31.3975 45.9364 29.0181 45.9364C28.7546 45.9364 28.5425 45.7296 28.5425 45.4728C28.5425 45.2159 28.7546 45.0092 29.0181 45.0092C30.7314 45.0092 32.2509 45.9348 33.1705 47.3127L33.1539 28.0781C32.806 27.5693 32.3868 27.1105 31.9145 26.7293C31.4224 26.3319 30.8706 26.0185 30.2907 25.8117C30.0454 25.7245 29.9178 25.4596 30.0057 25.2156C30.0951 24.9766 30.3669 24.8522 30.6171 24.9378C31.5848 25.2803 32.4497 25.8554 33.1573 26.5871V21.0705C33.1573 19.4454 32.2542 18.0562 30.743 17.3648C30.4083 17.2113 30.0603 17.0999 29.6991 17.0336C28.3967 16.8026 26.7845 17.2824 25.724 18.0917C25.1341 18.5424 24.642 19.1336 24.3238 19.8864C24.9435 20.0189 25.5036 20.342 25.9394 20.7959C26.516 21.3919 26.8889 22.219 26.9402 23.1366C26.9535 23.3934 26.753 23.6083 26.4912 23.6244C26.2277 23.6374 26.0074 23.4419 25.9908 23.1867C25.9527 22.4953 25.6726 21.875 25.2435 21.434C24.3355 20.4987 22.9353 20.5245 22.0571 21.4873C21.328 22.2901 21.1573 23.5178 21.608 24.5177C24.9717 24.0218 27.9794 26.5483 28.1151 29.8648C28.1234 30.1217 27.9196 30.3365 27.6578 30.3446C27.3943 30.3527 27.174 30.154 27.1657 29.8988C27.0646 27.4127 25.0149 25.3821 22.4482 25.3821C19.8816 25.3821 17.7274 27.5209 17.7274 30.1006C17.7274 31.4155 18.2875 32.7175 19.2667 33.5866C19.4921 33.7853 19.4838 34.1358 19.2237 34.3151C17.9428 35.1955 17.1789 36.6397 17.1789 38.2017C17.1789 40.5748 18.9602 42.6101 21.3529 42.8863L21.3577 42.8895ZM21.7173 39.6135C21.4588 39.5763 21.2765 39.3405 21.3147 39.0885C21.3528 38.8365 21.5947 38.6588 21.8532 38.6959C22.6087 38.8042 23.3428 38.6297 23.9609 38.2501C24.4696 37.9351 24.9104 37.4844 25.2252 36.9303C24.0835 36.5588 23.1887 35.7317 22.6502 34.6769C21.9808 33.3749 21.8913 31.795 22.463 30.3881C22.5608 30.1522 22.8358 30.0327 23.0777 30.128C23.3196 30.2233 23.4423 30.4914 23.3445 30.7273C22.8772 31.8774 22.9501 33.1956 23.497 34.2585C24.4646 36.1356 26.6916 36.8189 28.4002 35.5864C28.6123 35.4329 28.9089 35.4781 29.0663 35.6817C29.2237 35.8885 29.1773 36.1776 28.9685 36.3311C28.1665 36.9094 27.1906 37.2002 26.1947 37.121C25.7954 37.9271 25.1889 38.5894 24.4681 39.0272C23.6578 39.5231 22.7034 39.746 21.7191 39.6055L21.7173 39.6135ZM39.4786 27.7664C40.5722 27.7664 41.4637 28.6355 41.4637 29.7016V41.8638C41.4637 42.93 40.5722 43.7991 39.4786 43.7991H34.1215V41.6942H37.6377C38.559 41.6942 39.3046 40.9625 39.3046 40.0692V31.4965C39.3046 30.5983 38.554 29.8714 37.6377 29.8714H34.1083V27.7665L39.4786 27.7664ZM34.1084 30.8017L34.1167 40.7688H37.6328C38.0272 40.7688 38.3503 40.4538 38.3503 40.0694V31.4967C38.3503 31.1122 38.0272 30.7972 37.6328 30.7972H34.1034L34.1084 30.8017Z" fill="#998DF8"/>
</g>
<defs>
<filter id="filter0_d_440_1301" x="0.975586" y="0.975586" width="70.0488" height="70.0488" filterUnits="userSpaceOnUse" color-interpolation-filters="sRGB">
<feFlood flood-opacity="0" result="BackgroundImageFix"/>
<feColorMatrix in="SourceAlpha" type="matrix" values="0 0 0 0 0 0 0 0 0 0 0 0 0 0 0 0 0 0 127 0" result="hardAlpha"/>
<feOffset/>
<feGaussianBlur stdDeviation="8"/>
<feComposite in2="hardAlpha" operator="out"/>
<feColorMatrix type="matrix" values="0 0 0 0 0.572549 0 0 0 0 0.435294 0 0 0 0 0.952941 0 0 0 1 0"/>
<feBlend mode="normal" in2="BackgroundImageFix" result="effect1_dropShadow_440_1301"/>
<feBlend mode="normal" in="SourceGraphic" in2="effect1_dropShadow_440_1301" result="shape"/>
</filter>
</defs>
</svg>
